<svg width="336" height="140" viewBox="0 0 336 140" fill="none" xmlns="http://www.w3.org/2000/svg">
<circle cx="89.0699" cy="76.3637" r="63.6364" fill="#E83F40"/>
<path d="M103.566 80.5V76.98H91.7063V91H103.746V87.48H96.3463V85.74H102.906V82.22H96.3463V80.5H103.566ZM110.155 87.14V76.98H105.515V91H115.995V87.14H110.155ZM129.055 80.5V76.98H117.195V91H129.235V87.48H121.835V85.74H128.395V82.22H121.835V80.5H129.055ZM140.063 83.62V86.88C139.383 87.16 138.703 87.34 138.223 87.34C136.403 87.34 135.063 85.94 135.063 84C135.063 82.1 136.383 80.7 138.183 80.7C139.343 80.7 140.703 81.28 141.643 82.18L144.263 79C142.763 77.68 140.383 76.84 138.203 76.84C133.623 76.84 130.303 79.86 130.303 84C130.303 88.16 133.503 91.2 137.903 91.2C139.903 91.2 142.483 90.44 144.043 89.4V83.62H140.063ZM150.409 91V76.98H145.769V91H150.409ZM168.309 80.64V76.98H155.689V80.64H159.669V91H164.309V80.64H168.309ZM182.662 76.98H178.022V85.06C178.022 86.46 177.142 87.34 176.002 87.34C174.842 87.34 173.842 86.44 173.842 85.06V76.98H169.202V85.06C169.202 88.78 171.902 91.2 175.982 91.2C180.042 91.2 182.662 88.78 182.662 85.06V76.98ZM190.54 76.78C186.9 76.78 184.54 78.54 184.54 81.34C184.54 86.26 191.8 85.06 191.8 86.88C191.8 87.38 191.36 87.6 190.68 87.6C189.26 87.6 186.78 86.62 185.34 85.42L183.62 88.9C185.48 90.32 188.2 91.14 190.64 91.14C193.8 91.14 196.54 89.76 196.54 86.64C196.54 81.56 189.28 82.66 189.28 80.9C189.28 80.48 189.62 80.32 190.14 80.32C191.36 80.32 193.54 81.18 194.96 81.96L196.64 78.44C195.06 77.44 192.76 76.78 190.54 76.78ZM206.101 76.98V91H210.741V87.36H212.681C216.321 87.36 218.421 85.4 218.421 82C218.421 78.8 216.321 76.98 212.681 76.98H206.101ZM210.741 80.5H212.441C213.441 80.5 214.021 81.1 214.021 82.14C214.021 83.22 213.441 83.84 212.441 83.84H210.741V80.5ZM227.872 91H233.112L230.352 86.44C231.792 85.56 232.572 84.04 232.572 82C232.572 78.8 230.392 76.98 226.592 76.98H219.812V91H224.452V87.36H226.192L227.872 91ZM224.452 83.84V80.5H226.592C227.592 80.5 228.172 81.1 228.172 82.14C228.172 83.22 227.592 83.84 226.592 83.84H224.452ZM241.304 76.84C236.844 76.84 233.604 79.82 233.604 83.98C233.604 88.16 236.844 91.2 241.304 91.2C245.764 91.2 249.004 88.14 249.004 83.98C249.004 79.84 245.764 76.84 241.304 76.84ZM241.364 80.7C242.964 80.7 244.244 82.08 244.244 84C244.244 85.92 242.964 87.34 241.364 87.34C239.764 87.34 238.364 85.92 238.364 84C238.364 82.08 239.744 80.7 241.364 80.7ZM250.3 76.98V91H256.38C261.12 91 264.18 88.24 264.18 83.98C264.18 79.72 261.18 76.98 256.56 76.98H250.3ZM254.94 80.58H256.46C258.26 80.58 259.44 81.94 259.44 84.02C259.44 86.08 258.36 87.4 256.68 87.4H254.94V80.58ZM278.736 76.98H274.096V85.06C274.096 86.46 273.216 87.34 272.076 87.34C270.916 87.34 269.916 86.44 269.916 85.06V76.98H265.276V85.06C265.276 88.78 267.976 91.2 272.056 91.2C276.116 91.2 278.736 88.78 278.736 85.06V76.98ZM287.434 76.84C283.034 76.84 279.834 79.84 279.834 83.96C279.834 88.14 282.954 91.2 287.254 91.2C289.414 91.2 291.794 90.1 293.354 88.4L290.674 85.54C289.754 86.52 288.494 87.14 287.494 87.14C285.814 87.14 284.594 85.78 284.594 83.9C284.594 82.04 285.814 80.7 287.494 80.7C288.574 80.7 289.834 81.44 290.674 82.58L293.354 79.4C291.914 77.84 289.574 76.84 287.434 76.84ZM306.024 80.64V76.98H293.404V80.64H297.384V91H302.024V80.64H306.024ZM313.511 76.84C309.051 76.84 305.811 79.82 305.811 83.98C305.811 88.16 309.051 91.2 313.511 91.2C317.971 91.2 321.211 88.14 321.211 83.98C321.211 79.84 317.971 76.84 313.511 76.84ZM313.571 80.7C315.171 80.7 316.451 82.08 316.451 84C316.451 85.92 315.171 87.34 313.571 87.34C311.971 87.34 310.571 85.92 310.571 84C310.571 82.08 311.951 80.7 313.571 80.7ZM328.587 76.78C324.947 76.78 322.587 78.54 322.587 81.34C322.587 86.26 329.847 85.06 329.847 86.88C329.847 87.38 329.407 87.6 328.727 87.6C327.307 87.6 324.827 86.62 323.387 85.42L321.667 88.9C323.527 90.32 326.247 91.14 328.687 91.14C331.847 91.14 334.587 89.76 334.587 86.64C334.587 81.56 327.327 82.66 327.327 80.9C327.327 80.48 327.667 80.32 328.187 80.32C329.407 80.32 331.587 81.18 333.007 81.96L334.687 78.44C333.107 77.44 330.807 76.78 328.587 76.78ZM100.266 110.64L105.286 100.98H100.666L97.9463 106.38L95.1263 100.98H90.5063L95.6263 110.74V115H100.266V110.64ZM117.161 100.84C112.761 100.84 109.561 103.84 109.561 107.96C109.561 112.14 112.681 115.2 116.981 115.2C119.141 115.2 121.521 114.1 123.081 112.4L120.401 109.54C119.481 110.52 118.221 111.14 117.221 111.14C115.541 111.14 114.321 109.78 114.321 107.9C114.321 106.04 115.541 104.7 117.221 104.7C118.301 104.7 119.561 105.44 120.401 106.58L123.081 103.4C121.641 101.84 119.301 100.84 117.161 100.84ZM130.835 100.84C126.375 100.84 123.135 103.82 123.135 107.98C123.135 112.16 126.375 115.2 130.835 115.2C135.295 115.2 138.535 112.14 138.535 107.98C138.535 103.84 135.295 100.84 130.835 100.84ZM130.895 104.7C132.495 104.7 133.775 106.08 133.775 108C133.775 109.92 132.495 111.34 130.895 111.34C129.295 111.34 127.895 109.92 127.895 108C127.895 106.08 129.275 104.7 130.895 104.7ZM153.451 115V100.98H149.251V108.18L143.711 100.98H139.831V115H144.051V107.84L149.571 115H153.451ZM167.176 104.64V100.98H154.556V104.64H158.536V115H163.176V104.64H167.176ZM176.207 113.02L176.907 115H181.847L176.147 100.98H171.387L165.467 115H170.227L170.947 113.02H176.207ZM175.067 109.7H172.147L173.627 105.6L175.067 109.7ZM189.153 100.84C184.753 100.84 181.553 103.84 181.553 107.96C181.553 112.14 184.673 115.2 188.973 115.2C191.133 115.2 193.513 114.1 195.073 112.4L192.393 109.54C191.473 110.52 190.213 111.14 189.213 111.14C187.533 111.14 186.313 109.78 186.313 107.9C186.313 106.04 187.533 104.7 189.213 104.7C190.293 104.7 191.553 105.44 192.393 106.58L195.073 103.4C193.633 101.84 191.293 100.84 189.153 100.84ZM207.743 104.64V100.98H195.123V104.64H199.103V115H203.743V104.64H207.743ZM216.774 113.02L217.474 115H222.414L216.714 100.98H211.954L206.034 115H210.794L211.514 113.02H216.774ZM215.634 109.7H212.714L214.194 105.6L215.634 109.7ZM236.83 115V100.98H232.63V108.18L227.09 100.98H223.21V115H227.43V107.84L232.95 115H236.83ZM245.835 100.84C241.375 100.84 238.135 103.82 238.135 107.98C238.135 112.16 241.375 115.2 245.835 115.2C250.295 115.2 253.535 112.14 253.535 107.98C253.535 103.84 250.295 100.84 245.835 100.84ZM245.895 104.7C247.495 104.7 248.775 106.08 248.775 108C248.775 109.92 247.495 111.34 245.895 111.34C244.295 111.34 242.895 109.92 242.895 108C242.895 106.08 244.275 104.7 245.895 104.7ZM260.911 100.78C257.271 100.78 254.911 102.54 254.911 105.34C254.911 110.26 262.171 109.06 262.171 110.88C262.171 111.38 261.731 111.6 261.051 111.6C259.631 111.6 257.151 110.62 255.711 109.42L253.991 112.9C255.851 114.32 258.571 115.14 261.011 115.14C264.171 115.14 266.911 113.76 266.911 110.64C266.911 105.56 259.651 106.66 259.651 104.9C259.651 104.48 259.991 104.32 260.511 104.32C261.731 104.32 263.911 105.18 265.331 105.96L267.011 102.44C265.431 101.44 263.131 100.78 260.911 100.78Z" fill="white"/>
<path d="M97.6953 46.0876C95.6972 44.6376 93.1497 44.1035 90.7655 43.6869C88.9406 43.3727 86.9326 42.7643 84.9907 42.561C85.365 42.0772 85.6766 41.5477 85.9179 40.9853C87.2494 37.8919 86.6604 34.0991 83.542 32.5019C84.2366 31.1032 84.8983 29.5573 84.6293 28.0064C84.2993 26.0951 83.1444 24.4914 81.5555 23.3919C79.7042 22.1072 76.7491 22.0973 74.6438 23.1786C74.3732 22.1023 73.7182 21.0078 73.2166 20.5084C72.46 19.7501 71.4678 19.2731 70.4041 19.1562C69.3403 19.0392 68.2686 19.2894 67.3659 19.8653C67.0953 16.6975 65.4074 14.4704 62.1619 13.2022C57.8523 11.5191 54.2719 12.8088 51.0313 15.5583C49.6487 13.227 47.2365 12.0862 44.4827 11.9209C41.1828 11.7175 38.3251 13.8289 36.7279 16.5586C35.5466 15.1119 33.8273 14.7399 31.7781 15.183C29.2322 15.7352 28.6102 17.4646 28.3775 19.6074C26.2474 18.5691 24.0134 17.6382 21.5863 17.9986C18.7121 18.4236 16.2009 19.3213 14.1896 21.479C11.3583 24.5162 11.5134 28.7537 13.947 31.6736C11.7163 31.8108 9.37503 32.7235 9.32718 35.2614C9.28098 37.4554 10.8253 39.6957 12.9571 40.3769C11.0085 42.9561 10.1522 46.2612 13.0924 48.5874C9.30903 49.5563 5.90023 52.6597 3.49955 55.4439C1.67305 57.5619 -1.05102 61.7531 0.433938 64.7441C2.18949 68.279 7.13274 65.2401 9.12588 63.5867C11.1537 61.9152 12.6205 59.822 13.7457 57.5338C13.8119 59.7701 14.1116 61.9933 14.64 64.1671C16.0144 69.9538 18.9167 75.3239 22.7132 79.8872C30.5274 89.2948 43.1248 94.0284 55.2701 92.8115C66.6795 91.669 77.0263 85.8492 83.0734 76.0497C88.1883 67.7548 88.736 58.0281 85.9377 49.0901C90.5427 54.4155 97.5979 61.1745 101.305 55.5382C103.427 52.3141 100.238 47.9327 97.6953 46.0876" fill="#7EC6E8"/>
<path d="M56.8623 91.1565C57.0853 88.637 57.1261 86.1046 56.9844 83.5792C56.9052 82.0812 56.9844 80.5816 56.5257 79.1862C56.6445 79.1531 56.7633 79.1167 56.8837 79.0737C57.8291 78.7431 59.4643 77.7345 59.7629 76.7293C60.0351 75.815 58.6079 75.4264 58.3307 76.3374C58.1822 76.8335 56.5323 77.6353 56.0653 77.8023C55.9828 77.831 55.9004 77.8558 55.8179 77.8767C55.6749 77.7949 55.5093 77.7619 55.346 77.7824C55.1826 77.803 55.0304 77.8761 54.912 77.9908C53.8099 77.9908 52.7308 77.5196 51.655 77.2964C50.7212 77.1029 50.3235 78.5248 51.2607 78.7183C52.612 78.9977 53.7818 79.3928 55.0325 79.3928C55.671 80.9321 55.4631 82.8831 55.5489 84.5017C55.6609 86.7829 55.6019 89.0693 55.3724 91.3417L55.1876 92.8297L56.7451 92.6445L56.8623 91.1565Z" fill="#1C1B1A"/>
<path d="M86.4806 38.9914C86.9112 36.3857 86.0367 33.7006 83.542 32.4242C84.2366 31.0255 84.8982 29.4779 84.6293 27.9287C84.2993 26.0174 83.1443 24.4137 81.5538 23.3126C79.7042 22.0295 76.7491 22.0196 74.6438 23.1009C74.3732 22.0246 73.7182 20.9301 73.2166 20.4307C72.4598 19.672 71.4674 19.1948 70.4033 19.0778C69.3392 18.9609 68.2671 19.2113 67.3642 19.7876C67.0953 16.6198 65.4074 14.3927 62.1619 13.1246C57.8522 11.4414 54.2719 12.7311 51.0313 15.4806C49.6487 13.1494 47.2365 12.0085 44.4827 11.8432C41.1828 11.6398 38.3251 13.7512 36.7279 16.4726C35.5466 15.0259 33.8273 14.6539 31.7781 15.097C29.2322 15.6492 28.6085 17.3786 28.3775 19.5214C26.2474 18.4831 24.0134 17.5522 21.5863 17.9127C18.7105 18.3376 16.1992 19.2354 14.1896 21.3847C11.3583 24.4236 11.5134 28.6595 13.947 31.581C11.7147 31.7182 9.37503 32.6309 9.32718 35.1688C9.28098 37.3628 10.8253 39.6031 12.9571 40.2843C11.0695 42.7842 10.2099 45.9636 12.83 48.275C12.9506 48.4181 13.0919 48.5424 13.2491 48.6437C14.0015 49.1265 15.0212 49.7878 16.4203 49.6357C17.3024 49.6845 18.1864 49.6845 19.0685 49.6357C20.0885 49.6118 21.0976 49.4191 22.0549 49.0653C22.1226 49.0372 22.177 49.0074 22.2348 48.9776C22.2321 49.1013 22.2376 49.2251 22.2512 49.348C22.337 50.0259 22.7281 50.5533 23.1488 51.0642C24.0216 52.1256 25.7227 52.2992 26.9701 52.086C28.3016 51.8595 30.765 51.4164 31.8639 50.1962C34.0913 52.8019 38.3812 53.7211 41.5128 52.9953C43.6346 52.4993 47.149 51.1601 48.3436 48.9611C51.0132 50.4706 54.6266 51.5949 56.3458 48.6784C58.5848 50.6244 61.1076 51.9851 64.1815 52.124C66.9435 52.2546 69.1957 50.1796 70.1922 47.7442C71.3274 48.3246 72.9609 48.2403 74.1026 48.0667C75.9489 47.7757 77.3629 46.5158 77.7078 44.8095C79.2801 45.2198 80.9432 45.103 82.4431 44.4772C83.2914 43.9131 84.0711 43.2517 84.7663 42.5064L84.9906 42.4866C85.365 42.0028 85.6766 41.4733 85.9179 40.9109C85.9476 40.8431 85.9757 40.7737 86.0021 40.7042C86.2621 40.1676 86.4242 39.5886 86.4806 38.9947" fill="#FFFFFD"/>
<path d="M86.4806 38.9914C86.9112 36.3857 86.0367 33.7006 83.542 32.4242C84.2366 31.0255 84.8982 29.4779 84.6293 27.9287C84.2993 26.0174 83.1443 24.4137 81.5538 23.3126C79.7042 22.0295 76.7491 22.0196 74.6438 23.1009C74.3732 22.0246 73.7182 20.9301 73.2166 20.4307C72.4598 19.672 71.4674 19.1948 70.4033 19.0778C69.3392 18.9609 68.2671 19.2113 67.3642 19.7876C67.0953 16.6198 65.4074 14.3927 62.1619 13.1246C57.8522 11.4414 54.2719 12.7311 51.0313 15.4806C49.6487 13.1494 47.2365 12.0085 44.4827 11.8432C41.1828 11.6398 38.3251 13.7512 36.7279 16.4726C35.5466 15.0259 33.8273 14.6539 31.7781 15.097C29.2322 15.6492 28.6085 17.3786 28.3775 19.5214C26.2474 18.4831 24.0134 17.5522 21.5863 17.9127C18.7105 18.3376 16.1992 19.2354 14.1896 21.3847C11.3583 24.4236 11.5134 28.6595 13.947 31.581C11.7147 31.7182 9.37503 32.6309 9.32718 35.1688C9.28098 37.3628 10.8253 39.6031 12.9571 40.2843C11.0695 42.7842 10.2099 45.9636 12.83 48.275C12.9506 48.4181 13.0919 48.5424 13.2491 48.6437C14.0015 49.1265 15.0212 49.7878 16.4203 49.6357C17.3024 49.6845 18.1864 49.6845 19.0685 49.6357C20.0885 49.6118 21.0976 49.4191 22.0549 49.0653C22.1226 49.0372 22.177 49.0074 22.2348 48.9776C22.2321 49.1013 22.2376 49.2251 22.2512 49.348C22.337 50.0259 22.7281 50.5533 23.1488 51.0642C24.0216 52.1256 25.7227 52.2992 26.9701 52.086C28.3016 51.8595 30.765 51.4164 31.8639 50.1962C34.0913 52.8019 38.3812 53.7211 41.5128 52.9953C43.6346 52.4993 47.149 51.1601 48.3436 48.9611C51.0132 50.4706 54.6266 51.5949 56.3458 48.6784C58.5848 50.6244 61.1076 51.9851 64.1815 52.124C66.9435 52.2546 69.1957 50.1796 70.1922 47.7442C71.3274 48.3246 72.9609 48.2403 74.1026 48.0667C75.9489 47.7757 77.3629 46.5158 77.7078 44.8095C79.2801 45.2198 80.9432 45.103 82.4431 44.4772C83.2914 43.9131 84.0711 43.2517 84.7663 42.5064L84.9906 42.4866C85.365 42.0028 85.6766 41.4733 85.9179 40.9109C85.9476 40.8431 85.9757 40.7737 86.0021 40.7042C86.2625 40.1665 86.4245 39.5864 86.4806 38.9914V38.9914Z" stroke="#FFFFFD" stroke-width="10" stroke-miterlimit="10"/>
<path d="M33.4544 60.7082C33.3473 60.6732 33.2366 60.6505 33.1244 60.6404C32.5502 60.5991 31.8903 60.9232 31.6395 61.4489C31.5885 61.5539 31.5514 61.6651 31.5289 61.7796C31.519 61.8077 31.5058 61.8342 31.4976 61.8639C31.3441 62.4476 31.6131 62.9072 32.0256 63.2296C32.1645 63.4636 32.3768 63.645 32.6294 63.7454C32.6442 63.7569 32.6596 63.7673 32.6756 63.7769C32.7671 63.8298 32.8692 63.8617 32.9745 63.8703C33.0798 63.8789 33.1857 63.8639 33.2845 63.8265C33.5532 63.797 33.8068 63.6869 34.0121 63.5107C34.128 63.4455 34.2346 63.3648 34.3289 63.2709C34.5218 63.1247 34.6614 62.9191 34.7265 62.6856C34.7747 62.507 34.7803 62.3196 34.743 62.1384C34.7051 61.4307 34.2117 60.7578 33.4544 60.7099" fill="#1C1B1A"/>
<path d="M71.7481 56.1615C71.554 56.0373 71.3336 55.9602 71.1045 55.9361C70.8754 55.9119 70.6439 55.9416 70.4282 56.0226C70.2964 56.0242 70.1652 56.0409 70.0371 56.0722L69.9811 56.0887C69.7305 56.1512 69.4996 56.2757 69.3095 56.4508C68.7617 56.97 68.7568 57.8215 69.0818 58.4514C69.2644 58.8004 69.574 59.0656 69.9464 59.1921L69.9761 59.2053L70.0454 59.2285C70.2387 59.3208 70.4473 59.3768 70.6608 59.3938C72.3537 59.5211 73.1259 57.0626 71.7514 56.1532" fill="#1C1B1A"/>
<path d="M120.073 34V5.96H105.913V13.28H110.793V34H120.073Z" fill="#80CFF5"/>
</svg>
