<svg width="322" height="142" viewBox="0 0 322 142" fill="none" xmlns="http://www.w3.org/2000/svg">
<circle cx="75.0699" cy="78.3637" r="63.6364" fill="#BCCF00"/>
<path d="M78 78.98V93H82.64V89.36H84.58C88.22 89.36 90.32 87.4 90.32 84C90.32 80.8 88.22 78.98 84.58 78.98H78ZM82.64 82.5H84.34C85.34 82.5 85.92 83.1 85.92 84.14C85.92 85.22 85.34 85.84 84.34 85.84H82.64V82.5ZM100.06 91.02L100.76 93H105.7L99.9995 78.98H95.2395L89.3195 93H94.0795L94.7995 91.02H100.06ZM98.9195 87.7H95.9995L97.4795 83.6L98.9195 87.7ZM112.576 78.78C108.936 78.78 106.576 80.54 106.576 83.34C106.576 88.26 113.836 87.06 113.836 88.88C113.836 89.38 113.396 89.6 112.716 89.6C111.296 89.6 108.816 88.62 107.376 87.42L105.656 90.9C107.516 92.32 110.236 93.14 112.676 93.14C115.836 93.14 118.576 91.76 118.576 88.64C118.576 83.56 111.316 84.66 111.316 82.9C111.316 82.48 111.656 82.32 112.176 82.32C113.396 82.32 115.576 83.18 116.996 83.96L118.676 80.44C117.096 79.44 114.796 78.78 112.576 78.78ZM129.317 91.02L130.017 93H134.957L129.257 78.98H124.497L118.577 93H123.337L124.057 91.02H129.317ZM128.177 87.7H125.257L126.737 83.6L128.177 87.7ZM140.394 89.14V78.98H135.754V93H146.234V89.14H140.394ZM154.434 78.84C149.974 78.84 146.734 81.82 146.734 85.98C146.734 90.16 149.974 93.2 154.434 93.2C158.894 93.2 162.134 90.14 162.134 85.98C162.134 81.84 158.894 78.84 154.434 78.84ZM154.494 82.7C156.094 82.7 157.374 84.08 157.374 86C157.374 87.92 156.094 89.34 154.494 89.34C152.894 89.34 151.494 87.92 151.494 86C151.494 84.08 152.874 82.7 154.494 82.7ZM177.149 91.02L177.849 93H182.789L177.089 78.98H172.329L166.409 93H171.169L171.889 91.02H177.149ZM176.009 87.7H173.089L174.569 83.6L176.009 87.7ZM187.766 78.98V93H195.206C198.626 93 200.846 91.46 200.846 89.06C200.846 87.3 199.746 85.9 198.066 85.52C199.506 85.08 200.426 83.9 200.426 82.52C200.426 80.38 198.246 78.98 194.866 78.98H187.766ZM192.386 82.38H194.606C195.246 82.38 195.666 82.76 195.666 83.36C195.666 83.98 195.246 84.38 194.606 84.38H192.386V82.38ZM192.386 87.46H194.606C195.466 87.46 196.026 87.86 196.026 88.48C196.026 89.16 195.466 89.6 194.606 89.6H192.386V87.46ZM215.498 78.98H210.858V87.06C210.858 88.46 209.978 89.34 208.838 89.34C207.678 89.34 206.678 88.44 206.678 87.06V78.98H202.038V87.06C202.038 90.78 204.738 93.2 208.818 93.2C212.878 93.2 215.498 90.78 215.498 87.06V78.98ZM223.377 78.78C219.737 78.78 217.377 80.54 217.377 83.34C217.377 88.26 224.637 87.06 224.637 88.88C224.637 89.38 224.197 89.6 223.517 89.6C222.097 89.6 219.617 88.62 218.177 87.42L216.457 90.9C218.317 92.32 221.037 93.14 223.477 93.14C226.637 93.14 229.377 91.76 229.377 88.64C229.377 83.56 222.117 84.66 222.117 82.9C222.117 82.48 222.457 82.32 222.977 82.32C224.197 82.32 226.377 83.18 227.797 83.96L229.477 80.44C227.897 79.44 225.597 78.78 223.377 78.78ZM237.478 78.84C233.078 78.84 229.878 81.84 229.878 85.96C229.878 90.14 232.998 93.2 237.298 93.2C239.458 93.2 241.838 92.1 243.398 90.4L240.718 87.54C239.798 88.52 238.538 89.14 237.538 89.14C235.858 89.14 234.638 87.78 234.638 85.9C234.638 84.04 235.858 82.7 237.538 82.7C238.618 82.7 239.878 83.44 240.718 84.58L243.398 81.4C241.958 79.84 239.618 78.84 237.478 78.84ZM253.692 91.02L254.392 93H259.332L253.632 78.98H248.872L242.952 93H247.712L248.432 91.02H253.692ZM252.552 87.7H249.632L251.112 83.6L252.552 87.7ZM268.189 93H273.429L270.669 88.44C272.109 87.56 272.889 86.04 272.889 84C272.889 80.8 270.709 78.98 266.909 78.98H260.129V93H264.769V89.36H266.509L268.189 93ZM264.769 85.84V82.5H266.909C267.909 82.5 268.489 83.1 268.489 84.14C268.489 85.22 267.909 85.84 266.909 85.84H264.769ZM287.361 88.64L292.381 78.98H287.761L285.041 84.38L282.221 78.98H277.601L282.721 88.74V93H287.361V88.64ZM80.04 110.02C81.24 110.02 82.08 109.18 82.08 107.98C82.08 106.76 81.24 105.92 80.04 105.92C78.82 105.92 77.98 106.76 77.98 107.98C77.98 109.18 78.82 110.02 80.04 110.02ZM77.8 116.42V120.1H82.08V116.42L81.28 111.24H78.6L77.8 116.42ZM83.8789 102.98V117H89.9589C94.6989 117 97.7589 114.24 97.7589 109.98C97.7589 105.72 94.7589 102.98 90.1389 102.98H83.8789ZM88.5189 106.58H90.0389C91.8389 106.58 93.0189 107.94 93.0189 110.02C93.0189 112.08 91.9389 113.4 90.2589 113.4H88.5189V106.58ZM103.695 117V102.98H99.0547V117H103.695ZM111.775 102.78C108.135 102.78 105.775 104.54 105.775 107.34C105.775 112.26 113.035 111.06 113.035 112.88C113.035 113.38 112.595 113.6 111.915 113.6C110.495 113.6 108.015 112.62 106.575 111.42L104.855 114.9C106.715 116.32 109.435 117.14 111.875 117.14C115.035 117.14 117.775 115.76 117.775 112.64C117.775 107.56 110.515 108.66 110.515 106.9C110.515 106.48 110.855 106.32 111.375 106.32C112.595 106.32 114.775 107.18 116.195 107.96L117.875 104.44C116.295 103.44 113.995 102.78 111.775 102.78ZM127.037 117H132.277L129.517 112.44C130.957 111.56 131.737 110.04 131.737 108C131.737 104.8 129.557 102.98 125.757 102.98H118.977V117H123.617V113.36H125.357L127.037 117ZM123.617 109.84V106.5H125.757C126.757 106.5 127.337 107.1 127.337 108.14C127.337 109.22 126.757 109.84 125.757 109.84H123.617ZM146.729 102.98H142.089V111.06C142.089 112.46 141.209 113.34 140.069 113.34C138.909 113.34 137.909 112.44 137.909 111.06V102.98H133.269V111.06C133.269 114.78 135.969 117.2 140.049 117.2C144.109 117.2 146.729 114.78 146.729 111.06V102.98ZM160.247 106.64V102.98H147.627V106.64H151.607V117H156.247V106.64H160.247ZM169.278 115.02L169.978 117H174.918L169.218 102.98H164.458L158.538 117H163.298L164.018 115.02H169.278ZM168.138 111.7H165.218L166.698 107.6L168.138 111.7ZM180.355 113.14V102.98H175.715V117H186.195V113.14H180.355ZM194.395 102.84C189.935 102.84 186.695 105.82 186.695 109.98C186.695 114.16 189.935 117.2 194.395 117.2C198.855 117.2 202.095 114.14 202.095 109.98C202.095 105.84 198.855 102.84 194.395 102.84ZM194.455 106.7C196.055 106.7 197.335 108.08 197.335 110C197.335 111.92 196.055 113.34 194.455 113.34C192.855 113.34 191.455 111.92 191.455 110C191.455 108.08 192.835 106.7 194.455 106.7ZM207.471 106.66V102.98H203.191V106.66L203.991 111.84H206.671L207.471 106.66ZM205.231 113.06C204.031 113.06 203.191 113.9 203.191 115.1C203.191 116.32 204.031 117.16 205.231 117.16C206.451 117.16 207.291 116.32 207.291 115.1C207.291 113.9 206.451 113.06 205.231 113.06Z" fill="white"/>
<path d="M104.227 14.04L110.267 8.24V3.04H90.5073V9.76H99.8273L94.5073 14.84V19.68H99.5873C101.507 19.68 102.467 20.48 102.467 22.12C102.467 23.76 101.507 24.56 99.5873 24.56C97.1473 24.56 94.8273 23.24 92.7073 20.64L89.0273 27.68C91.7473 29.92 96.1473 31.4 100.347 31.4C107.147 31.4 111.547 27.56 111.547 22.08C111.547 17.88 108.947 15.16 105.427 14.32L104.227 14.04Z" fill="#FFE864"/>
<path d="M70.6193 29.0993C69.2239 26.51 66.7041 24.3764 64.4499 22.5483C61.7869 20.3888 58.9566 18.2328 55.8831 16.6792C52.8097 15.1256 49.5258 15.3621 46.2333 14.713C42.306 13.9397 41.6748 10.0211 41.1505 6.73788C41.0677 6.22001 40.5779 6.10781 40.1932 6.28215C40.0347 6.22283 39.8609 6.21812 39.6994 6.26877C39.5379 6.31942 39.3979 6.42254 39.3016 6.5618C38.6117 7.53884 38.4823 8.6816 38.3392 9.80709C38.3018 9.54448 38.2505 9.28403 38.1857 9.02684C37.7855 7.54229 37.789 6.05602 37.1974 4.6129C36.9887 4.10885 36.1298 3.77741 35.8418 4.44028C35.1639 5.99388 34.562 7.54747 34.2481 9.22536C34.0256 10.3992 33.8945 11.9217 33.1305 12.8884C33.0856 12.9454 32.6717 10.6892 32.6717 10.3681C32.6717 9.72769 32.7321 9.08381 32.7665 8.44338C32.8978 6.2823 32.7236 4.11349 32.2491 2.00114C32.2257 1.89672 32.1805 1.79846 32.1163 1.71285C32.1577 0.944688 30.909 0.677127 30.6538 1.51089C30.0656 3.42872 29.2498 5.12214 28.296 6.88461C27.2319 8.8525 26.661 11.0172 25.4571 12.9402C24.3809 14.6578 22.6717 15.5916 20.8987 16.4513C18.9577 17.3872 17.1028 18.4922 15.3554 19.7536C12.2508 21.9821 10.2467 25.0202 7.59407 27.6734C4.76206 30.5096 3.50818 34.1347 2.15771 37.7994C2.12078 37.8863 2.10422 37.9805 2.10931 38.0747C2.11439 38.169 2.14098 38.2608 2.18703 38.3432C1.32467 42.8676 0.234635 47.4076 0.0207683 52.0114C-0.193099 56.5548 1.38158 60.5303 3.76344 64.3314C8.47541 71.8508 15.245 78.3017 23.6117 81.5539C27.6889 83.1368 32.0715 83.6253 36.4075 83.8946C41.3471 84.2036 46.5144 83.8946 51.1781 82.1425C58.6927 79.3288 64.1601 73.1558 68.9428 66.9846C69.0427 66.9657 69.1371 66.925 69.2194 66.8653C69.3017 66.8056 69.3698 66.7284 69.4188 66.6394C76.3074 55.2463 76.9628 40.8842 70.6262 29.0958" fill="#F5DF66"/>
<path d="M20.4881 46.579C20.3794 46.5824 20.2713 46.5968 20.1656 46.6222C19.9291 46.5673 19.6836 46.5636 19.4456 46.6116C19.2076 46.6595 18.9826 46.7579 18.7858 46.9001C18.189 47.3437 18.0752 48.0653 18.1804 48.7558C18.2129 48.9598 18.2878 49.1546 18.4005 49.3277C18.5131 49.5008 18.6608 49.6482 18.8341 49.7605C18.9652 49.9248 19.1239 50.065 19.3032 50.1747C19.9379 50.5666 20.9314 50.4993 21.5264 50.0608C22.8889 49.0544 22.3111 46.5583 20.4915 46.579" fill="#1C1B1A"/>
<path d="M58.8082 46.7793C58.7742 46.7311 58.7373 46.685 58.6978 46.6412C58.4247 46.2606 58.0583 45.9567 57.634 45.7587C57.2096 45.5607 56.7415 45.4752 56.2746 45.5105C55.2397 45.6711 55.0259 46.8742 55.2397 47.7252C55.2885 48.2071 55.4674 48.6666 55.7572 49.0544C56.2642 49.7069 57.0231 49.8554 57.644 49.5222C58.8979 49.3358 59.5171 47.8409 58.8082 46.7793" fill="#1C1B1A"/>
<path d="M48.5305 51.2002C48.5429 51.0727 48.5221 50.9443 48.4702 50.8273C47.8769 49.4463 46.3401 49.1494 44.9897 48.8663C42.7078 48.3847 41.059 48.2345 38.7358 48.7714C36.6557 49.2547 33.058 49.9797 33.0028 52.6674C32.9928 52.8414 33.0512 53.0124 33.1657 53.1437C33.2802 53.2751 33.4415 53.3563 33.615 53.37C34.5102 54.4057 35.9503 54.8045 37.0766 55.602C38.2839 56.4651 39.4308 56.9951 40.3329 58.25C40.94 59.0959 41.466 59.9762 42.1162 60.7893C42.5578 61.3434 43.3374 60.8307 43.3822 60.2714C43.5547 58.2 44.6827 56.2424 46.1763 54.8338C47.0179 54.0398 47.8217 53.2682 48.3029 52.2445C48.3897 52.1801 48.4596 52.0956 48.5064 51.9981C48.5533 51.9007 48.5758 51.7933 48.5719 51.6852V51.4401C48.572 51.3578 48.558 51.276 48.5305 51.1984" fill="#DA403F"/>
</svg>
