<svg width="338" height="140" viewBox="0 0 338 140" fill="none" xmlns="http://www.w3.org/2000/svg">
<circle r="63.6364" transform="matrix(-1 0 0 1 248.636 76.3637)" fill="#FFE864"/>
<path d="M68.7656 74.98V89H73.4056V85.36H75.3456C78.9856 85.36 81.0856 83.4 81.0856 80C81.0856 76.8 78.9856 74.98 75.3456 74.98H68.7656ZM73.4056 78.5H75.1056C76.1056 78.5 76.6856 79.1 76.6856 80.14C76.6856 81.22 76.1056 81.84 75.1056 81.84H73.4056V78.5ZM90.5366 89H95.7766L93.0166 84.44C94.4566 83.56 95.2366 82.04 95.2366 80C95.2366 76.8 93.0566 74.98 89.2566 74.98H82.4766V89H87.1166V85.36H88.8566L90.5366 89ZM87.1166 81.84V78.5H89.2566C90.2566 78.5 90.8366 79.1 90.8366 80.14C90.8366 81.22 90.2566 81.84 89.2566 81.84H87.1166ZM108.829 78.5V74.98H96.9688V89H109.009V85.48H101.609V83.74H108.169V80.22H101.609V78.5H108.829ZM110.777 74.98V89H115.417V85.36H117.357C120.997 85.36 123.097 83.4 123.097 80C123.097 76.8 120.997 74.98 117.357 74.98H110.777ZM115.417 78.5H117.117C118.117 78.5 118.697 79.1 118.697 80.14C118.697 81.22 118.117 81.84 117.117 81.84H115.417V78.5ZM132.837 87.02L133.537 89H138.477L132.777 74.98H128.017L122.097 89H126.857L127.577 87.02H132.837ZM131.697 83.7H128.777L130.257 79.6L131.697 83.7ZM147.333 89H152.573L149.813 84.44C151.253 83.56 152.033 82.04 152.033 80C152.033 76.8 149.853 74.98 146.053 74.98H139.273V89H143.913V85.36H145.653L147.333 89ZM143.913 81.84V78.5H146.053C147.053 78.5 147.633 79.1 147.633 80.14C147.633 81.22 147.053 81.84 146.053 81.84H143.913ZM163.306 87.02L164.006 89H168.946L163.246 74.98H158.486L152.566 89H157.326L158.046 87.02H163.306ZM162.166 83.7H159.246L160.726 79.6L162.166 83.7ZM185.662 89V74.98H180.762L177.702 82.3L174.642 74.98H169.742V89H173.782V81.32L176.182 87.64H179.222L181.622 81.32V89H185.662ZM194.672 74.84C190.212 74.84 186.972 77.82 186.972 81.98C186.972 86.16 190.212 89.2 194.672 89.2C199.132 89.2 202.372 86.14 202.372 81.98C202.372 77.84 199.132 74.84 194.672 74.84ZM194.732 78.7C196.332 78.7 197.612 80.08 197.612 82C197.612 83.92 196.332 85.34 194.732 85.34C193.132 85.34 191.732 83.92 191.732 82C191.732 80.08 193.112 78.7 194.732 78.7ZM209.748 74.78C206.108 74.78 203.748 76.54 203.748 79.34C203.748 84.26 211.008 83.06 211.008 84.88C211.008 85.38 210.568 85.6 209.888 85.6C208.468 85.6 205.988 84.62 204.548 83.42L202.828 86.9C204.688 88.32 207.408 89.14 209.848 89.14C213.008 89.14 215.748 87.76 215.748 84.64C215.748 79.56 208.488 80.66 208.488 78.9C208.488 78.48 208.828 78.32 209.348 78.32C210.568 78.32 212.748 79.18 214.168 79.96L215.848 76.44C214.268 75.44 211.968 74.78 209.748 74.78ZM232.849 78.64V74.98H220.229V78.64H224.209V89H228.849V78.64H232.849ZM247.201 74.98H242.561V83.06C242.561 84.46 241.681 85.34 240.541 85.34C239.381 85.34 238.381 84.44 238.381 83.06V74.98H233.741V83.06C233.741 86.78 236.441 89.2 240.521 89.2C244.581 89.2 247.201 86.78 247.201 83.06V74.98ZM168.492 98.98V113H173.132V109.36H175.072C178.712 109.36 180.812 107.4 180.812 104C180.812 100.8 178.712 98.98 175.072 98.98H168.492ZM173.132 102.5H174.832C175.832 102.5 176.412 103.1 176.412 104.14C176.412 105.22 175.832 105.84 174.832 105.84H173.132V102.5ZM194.063 102.5V98.98H182.203V113H194.243V109.48H186.843V107.74H193.403V104.22H186.843V102.5H194.063ZM196.012 98.98V113H202.092C206.832 113 209.892 110.24 209.892 105.98C209.892 101.72 206.892 98.98 202.272 98.98H196.012ZM200.652 102.58H202.172C203.972 102.58 205.152 103.94 205.152 106.02C205.152 108.08 204.072 109.4 202.392 109.4H200.652V102.58ZM215.828 113V98.98H211.188V113H215.828ZM217.828 98.98V113H223.908C228.648 113 231.708 110.24 231.708 105.98C231.708 101.72 228.708 98.98 224.088 98.98H217.828ZM222.468 102.58H223.988C225.788 102.58 226.968 103.94 226.968 106.02C226.968 108.08 225.888 109.4 224.208 109.4H222.468V102.58ZM240.004 98.84C235.544 98.84 232.304 101.82 232.304 105.98C232.304 110.16 235.544 113.2 240.004 113.2C244.464 113.2 247.704 110.14 247.704 105.98C247.704 101.84 244.464 98.84 240.004 98.84ZM240.064 102.7C241.664 102.7 242.944 104.08 242.944 106C242.944 107.92 241.664 109.34 240.064 109.34C238.464 109.34 237.064 107.92 237.064 106C237.064 104.08 238.444 102.7 240.064 102.7Z" fill="white"/>
<path d="M220.524 5.56C216.124 5.56 212.044 7.2 208.044 9.96L211.484 16.64C214.204 14.44 216.964 13.04 219.084 13.04C220.284 13.04 220.924 13.56 220.924 14.52C220.924 15.48 220.004 16.88 218.884 18.08L209.164 28.2V34H231.044V26.88H220.964L225.204 22.64C228.324 19.52 230.644 16.4 230.644 13.16C230.644 8.6 226.284 5.56 220.524 5.56Z" fill="#E83F40"/>
<path d="M299.691 23.5374C295.638 21.9565 291.323 21.1564 286.973 21.1791C270.879 21.1791 253.338 31.8041 250.955 52.1122C249.81 61.8504 253.137 71.8763 260.08 79.6179C266.951 87.2776 276.224 91.4974 286.189 91.4974C292.597 91.4974 299.064 89.7476 305.389 86.2966C316.967 79.9858 323.131 68.8593 322.318 55.7707C321.424 41.4731 312.332 28.5182 299.692 23.5406" fill="#DA403F"/>
<path d="M267.899 24.5452C265.396 24.0971 262.894 23.6396 260.355 23.3409C260.221 23.3252 260.091 23.3032 259.959 23.2843C257.632 26.9711 254.335 29.581 251.166 32.5116L250.964 32.7065C252.018 34.5452 252.928 36.4627 253.687 38.4419C257.094 32.3355 262.135 27.6865 267.904 24.5452" fill="#DA403F"/>
<path d="M258.343 23.0076C253.928 22.0721 249.881 19.9559 245.582 18.6856C244.817 25.7605 242.927 32.6656 242.567 39.7861C243.69 38.5425 244.591 37.0379 245.746 35.8666C247.189 34.4029 248.526 32.7898 250.096 31.4535C253.113 28.8861 256.134 26.3108 258.343 23.0076" fill="#DA403F"/>
<path d="M325.119 19.6966C324.566 19.0174 323.996 18.3398 323.492 17.6213C323.021 16.9452 322.977 16.3556 322.636 15.6702C320.771 16.4563 318.944 17.6386 317.127 18.5253C314.977 19.5739 312.856 20.6273 310.825 21.8804L310.617 22.003C311.062 22.4857 311.448 23.0045 311.961 23.4384C313.18 24.4666 314.597 25.3251 315.887 26.2684C318.138 27.9098 320.349 29.471 322.885 30.6611C325.582 31.9267 328.465 32.8905 331.11 34.252C332.688 35.0648 334.037 36.2236 335.552 37.1103C333.511 33.3779 331.241 29.7775 329.222 26.0325C328.011 23.7843 326.734 21.6933 325.119 19.6966Z" fill="#DA403F"/>
<path d="M311.583 25.0687C310.668 24.4603 310.145 23.4965 309.322 22.7812C308.119 23.4871 306.921 24.1852 305.764 24.9823C310.817 28.1455 315.081 32.5996 318.195 37.8303C318.339 37.4766 318.485 37.126 318.628 36.7691C319.199 35.3368 319.963 34.0287 320.611 32.631C320.672 32.4958 320.925 31.9188 321.143 31.4582C319.019 30.3199 317.102 28.9725 315.127 27.5575C313.951 26.7133 312.789 25.8643 311.583 25.064" fill="#DA403F"/>
<path d="M337.917 38.3477C335.758 34.161 333.183 30.2116 330.952 26.0688C329.964 24.2356 329.055 22.2044 327.749 20.5661C327.063 19.7061 326.361 18.8556 325.667 18.0019C324.797 16.9281 324.491 15.8652 323.845 14.7317C323.769 14.5903 323.647 14.4793 323.498 14.4173C323.471 14.3355 323.426 14.2605 323.368 14.1972C323.309 14.1338 323.238 14.0836 323.159 14.0496C323.079 14.0156 322.994 13.9988 322.908 14.0001C322.822 14.0014 322.737 14.0209 322.658 14.0572C321.018 14.6971 319.573 15.7473 317.948 16.4611C315.767 17.4233 313.63 18.56 311.529 19.6826C309.622 20.7029 307.724 21.8836 305.877 23.0313C305.361 23.3802 304.869 23.7636 304.404 24.1791C303.04 23.4052 301.623 22.727 300.165 22.1493C295.933 20.5003 291.429 19.666 286.888 19.6904C281.097 19.7083 275.378 20.9805 270.124 23.4197C267.185 22.9087 264.26 22.3191 261.284 21.9591C258.177 21.5786 255.363 20.5017 252.377 19.6543C250.03 18.9892 247.877 17.8022 245.544 17.1277C245.186 16.6938 244.238 16.8557 244.17 17.6072C243.456 25.6365 241.099 33.4377 241 41.5503C241 42.066 241.669 42.5534 242.135 42.1965C243.509 41.1463 244.544 39.6637 245.638 38.3383C246.957 36.7466 248.357 35.2248 249.833 33.7789C250.983 35.8436 251.96 37.9995 252.755 40.2249C250.985 43.9142 249.845 47.8752 249.386 51.9426C248.193 62.1068 251.661 72.5588 258.884 80.618C266.045 88.6016 275.717 92.999 286.119 92.999C292.782 92.999 299.487 91.1863 306.045 87.6127C318.154 81.0126 324.609 69.3783 323.753 55.6844C323.386 50.0355 321.82 44.53 319.157 39.5363C319.272 39.258 319.391 38.9845 319.501 38.7031C320.215 36.8667 321.071 35.1593 321.913 33.3811C322.087 33.0133 322.371 32.595 322.599 32.1753C325.142 33.3843 327.771 34.4204 330.35 35.5461C332.762 36.5994 334.514 38.6071 337.066 39.4467C337.733 39.6668 338.199 38.8949 337.917 38.3462M245.751 35.8652C244.596 37.0365 243.694 38.538 242.572 39.7847C242.931 32.6642 244.822 25.7528 245.585 18.6842C249.885 19.9545 253.933 22.0707 258.348 23.0062C256.139 26.3078 253.118 28.8846 250.1 31.4521C248.53 32.7884 247.194 34.4015 245.751 35.8652M250.964 32.7051L251.166 32.5101C254.341 29.5811 257.637 26.9697 259.959 23.2829C260.091 23.3018 260.221 23.3238 260.355 23.3395C262.894 23.6382 265.396 24.0957 267.899 24.5438C262.131 27.6882 257.089 32.3341 253.682 38.4405C252.923 36.4614 252.013 34.5439 250.959 32.7051M305.318 86.3015C298.986 89.7603 292.526 91.5023 286.119 91.5023C276.153 91.5023 266.88 87.2825 260.009 79.6227C253.066 71.8812 249.739 61.8569 250.884 52.1171C253.267 31.8027 270.807 21.184 286.902 21.184C291.252 21.1613 295.567 21.9614 299.62 23.5423C312.26 28.5278 321.352 41.4827 322.245 55.7803C323.065 68.8689 316.895 79.9922 305.317 86.3062M320.609 32.6312C319.961 34.0289 319.196 35.337 318.626 36.7692C318.483 37.1261 318.337 37.4767 318.193 37.8305C315.079 32.5998 310.813 28.1457 305.762 24.9824C306.92 24.1963 308.118 23.492 309.32 22.7814C310.143 23.492 310.666 24.4605 311.581 25.0689C312.787 25.8692 313.949 26.7182 315.125 27.5624C317.1 28.9774 319.017 30.3201 321.142 31.4536C320.923 31.9143 320.671 32.4913 320.609 32.6265M331.109 34.2537C328.463 32.8922 325.58 31.9284 322.883 30.6628C320.347 29.4727 318.136 27.9115 315.885 26.2701C314.594 25.3268 313.177 24.4699 311.96 23.4401C311.446 23.0062 311.06 22.4874 310.616 22.0047L310.823 21.8821C312.855 20.6243 314.976 19.5756 317.125 18.527C318.942 17.6403 320.77 16.4643 322.635 15.6719C322.976 16.3573 323.016 16.9469 323.491 17.623C323.995 18.3415 324.565 19.0191 325.117 19.6983C326.733 21.6918 328.009 23.786 329.221 26.0327C331.241 29.7777 333.506 33.378 335.551 37.1104C334.037 36.2237 332.688 35.0665 331.11 34.2521" fill="#DA403F"/>
<path d="M286.737 81.5186C280.868 81.6413 274.618 77.5205 274.605 71.315C274.605 68.32 276.332 65.4853 278.314 63.3691C280.468 61.0722 283.12 60.1697 285.979 60.2735C286.062 60.3117 286.152 60.3362 286.243 60.3458C286.91 60.4087 287.574 60.47 288.229 60.547C288.394 60.5801 288.557 60.6131 288.724 60.6508C288.836 60.6766 288.953 60.6766 289.066 60.6508C291.24 60.9652 293.283 61.5784 294.987 63.2245C297.028 65.196 297.634 68.3687 297.61 71.0714C297.557 77.2029 292.693 81.3881 286.737 81.5123" fill="#F5DF66"/>
<path d="M302.884 78.7406C302.781 77.7312 301.178 77.7202 301.281 78.7406C301.611 81.9321 297.609 82.6868 295.141 82.7151C294.109 82.7277 294.107 84.3172 295.141 84.3046C298.469 84.2637 303.313 82.9053 302.884 78.7406Z" fill="#1C1B1A"/>
<path d="M269.874 54.7928C268.001 53.4832 265.778 52.5917 263.994 51.1689C263.244 50.5699 262.17 51.6233 262.928 52.227C264.447 53.436 266.225 54.296 267.901 55.3069C267.519 55.4514 267.151 55.6298 266.802 55.8399C265.795 56.4688 264.715 56.909 263.757 57.6196C262.999 58.1841 263.694 59.4591 264.519 58.9136L264.77 58.7469C264.787 58.7342 264.804 58.7205 264.82 58.706C265.587 58.2033 266.381 57.745 267.2 57.3335C267.709 57.0615 268.185 56.6669 268.734 56.4767C269.135 56.3383 269.498 56.2786 269.881 56.0852C270.425 55.81 270.311 55.0931 269.881 54.7928" fill="#1C1B1A"/>
<path d="M314.188 55.9578C313.403 55.4625 312.533 55.1858 311.654 54.9107C311.023 54.6903 310.411 54.4217 309.821 54.1073C310.252 53.4801 310.717 52.8766 311.212 52.2993C311.553 51.8732 311.878 51.4361 312.2 50.9943C312.378 50.7491 312.563 50.5085 312.756 50.2727C312.709 50.3309 313.188 49.6674 313.169 49.6753C314.054 49.3089 313.666 47.8609 312.768 48.232C311.756 48.6502 311.098 49.9614 310.474 50.8214C309.718 51.8716 308.651 52.8653 308.129 54.0633C308.082 54.1665 308.058 54.2789 308.06 54.3923C308.062 54.5057 308.089 54.6173 308.14 54.7189C308.178 54.8194 308.237 54.9107 308.313 54.9871C308.388 55.0634 308.479 55.1231 308.579 55.1623C309.391 55.4987 310.124 55.9704 310.958 56.2628C311.792 56.5552 312.658 56.7675 313.426 57.2549C314.249 57.7752 314.996 56.4798 314.188 55.9625" fill="#1C1B1A"/>
<path d="M282.654 68.7697C282.553 68.5562 282.409 68.3664 282.23 68.213C282.051 68.0596 281.842 67.946 281.616 67.8798C281.429 67.8197 281.233 67.7978 281.038 67.8154C281.017 67.8154 281 67.8154 280.98 67.8154C280.005 67.8908 279.54 68.8499 279.881 69.702C279.971 69.9141 280.109 70.1024 280.284 70.2523C280.458 70.4021 280.666 70.5095 280.889 70.566C281.112 70.6225 281.345 70.6265 281.57 70.5778C281.795 70.5291 282.006 70.429 282.186 70.2853C282.627 69.9127 282.88 69.331 282.657 68.7729" fill="#1C1B1A"/>
<path d="M292.894 69.004C292.785 68.471 292.217 68.0261 291.655 67.9789C291.592 67.9514 291.528 67.9288 291.462 67.9113C290.612 67.7038 289.831 68.6314 289.986 69.4253C290.143 70.2523 291.025 70.4881 291.759 70.4567C291.935 70.4525 292.108 70.4094 292.265 70.3302C292.423 70.2511 292.561 70.138 292.669 69.9991C292.778 69.8601 292.854 69.6988 292.893 69.5268C292.932 69.3547 292.932 69.1761 292.894 69.004" fill="#1C1B1A"/>
</svg>
