<svg width="409" height="228" viewBox="0 0 409 228" fill="none" xmlns="http://www.w3.org/2000/svg">
<circle cx="166.955" cy="125.497" r="93.4382" fill="#E83F40"/>
<path d="M173.455 118.1V111.764H152.107V137H173.779V130.664H160.459V127.532H172.267V121.196H160.459V118.1H173.455ZM185.314 130.052V111.764H176.962V137H195.826V130.052H185.314ZM219.334 118.1V111.764H197.986V137H219.658V130.664H206.338V127.532H218.146V121.196H206.338V118.1H219.334ZM239.149 123.716V129.584C237.925 130.088 236.701 130.412 235.837 130.412C232.561 130.412 230.149 127.892 230.149 124.4C230.149 120.98 232.525 118.46 235.765 118.46C237.853 118.46 240.301 119.504 241.993 121.124L246.709 115.4C244.009 113.024 239.725 111.512 235.801 111.512C227.557 111.512 221.581 116.948 221.581 124.4C221.581 131.888 227.341 137.36 235.261 137.36C238.861 137.36 243.505 135.992 246.313 134.12V123.716H239.149ZM257.771 137V111.764H249.419V137H257.771ZM289.992 118.352V111.764H267.276V118.352H274.44V137H282.792V118.352H289.992ZM315.826 111.764H307.474V126.308C307.474 128.828 305.89 130.412 303.838 130.412C301.75 130.412 299.95 128.792 299.95 126.308V111.764H291.598V126.308C291.598 133.004 296.458 137.36 303.802 137.36C311.11 137.36 315.826 133.004 315.826 126.308V111.764ZM330.008 111.404C323.456 111.404 319.208 114.572 319.208 119.612C319.208 128.468 332.276 126.308 332.276 129.584C332.276 130.484 331.484 130.88 330.26 130.88C327.704 130.88 323.24 129.116 320.648 126.956L317.552 133.22C320.9 135.776 325.796 137.252 330.188 137.252C335.876 137.252 340.808 134.768 340.808 129.152C340.808 120.008 327.74 121.988 327.74 118.82C327.74 118.064 328.352 117.776 329.288 117.776C331.484 117.776 335.408 119.324 337.964 120.728L340.988 114.392C338.144 112.592 334.004 111.404 330.008 111.404ZM134.581 154.764V180H142.933V173.448H146.425C152.977 173.448 156.757 169.92 156.757 163.8C156.757 158.04 152.977 154.764 146.425 154.764H134.581ZM142.933 161.1H145.993C147.793 161.1 148.837 162.18 148.837 164.052C148.837 165.996 147.793 167.112 145.993 167.112H142.933V161.1ZM173.769 180H183.201L178.233 171.792C180.825 170.208 182.229 167.472 182.229 163.8C182.229 158.04 178.305 154.764 171.465 154.764H159.261V180H167.613V173.448H170.745L173.769 180ZM167.613 167.112V161.1H171.465C173.265 161.1 174.309 162.18 174.309 164.052C174.309 165.996 173.265 167.112 171.465 167.112H167.613ZM197.947 154.512C189.919 154.512 184.087 159.876 184.087 167.364C184.087 174.888 189.919 180.36 197.947 180.36C205.975 180.36 211.807 174.852 211.807 167.364C211.807 159.912 205.975 154.512 197.947 154.512ZM198.055 161.46C200.935 161.46 203.239 163.944 203.239 167.4C203.239 170.856 200.935 173.412 198.055 173.412C195.175 173.412 192.655 170.856 192.655 167.4C192.655 163.944 195.139 161.46 198.055 161.46ZM214.14 154.764V180H225.084C233.616 180 239.124 175.032 239.124 167.364C239.124 159.696 233.724 154.764 225.408 154.764H214.14ZM222.492 161.244H225.228C228.468 161.244 230.592 163.692 230.592 167.436C230.592 171.144 228.648 173.52 225.624 173.52H222.492V161.244ZM265.324 154.764H256.972V169.308C256.972 171.828 255.388 173.412 253.336 173.412C251.248 173.412 249.448 171.792 249.448 169.308V154.764H241.096V169.308C241.096 176.004 245.956 180.36 253.3 180.36C260.608 180.36 265.324 176.004 265.324 169.308V154.764ZM280.982 154.512C273.062 154.512 267.302 159.912 267.302 167.328C267.302 174.852 272.918 180.36 280.658 180.36C284.546 180.36 288.83 178.38 291.638 175.32L286.814 170.172C285.158 171.936 282.89 173.052 281.09 173.052C278.066 173.052 275.87 170.604 275.87 167.22C275.87 163.872 278.066 161.46 281.09 161.46C283.034 161.46 285.302 162.792 286.814 164.844L291.638 159.12C289.046 156.312 284.834 154.512 280.982 154.512ZM314.443 161.352V154.764H291.727V161.352H298.891V180H307.243V161.352H314.443ZM327.92 154.512C319.892 154.512 314.06 159.876 314.06 167.364C314.06 174.888 319.892 180.36 327.92 180.36C335.948 180.36 341.78 174.852 341.78 167.364C341.78 159.912 335.948 154.512 327.92 154.512ZM328.028 161.46C330.908 161.46 333.212 163.944 333.212 167.4C333.212 170.856 330.908 173.412 328.028 173.412C325.148 173.412 322.628 170.856 322.628 167.4C322.628 163.944 325.112 161.46 328.028 161.46ZM355.057 154.404C348.505 154.404 344.257 157.572 344.257 162.612C344.257 171.468 357.325 169.308 357.325 172.584C357.325 173.484 356.533 173.88 355.309 173.88C352.753 173.88 348.289 172.116 345.697 169.956L342.601 176.22C345.949 178.776 350.845 180.252 355.237 180.252C360.925 180.252 365.857 177.768 365.857 172.152C365.857 163.008 352.789 164.988 352.789 161.82C352.789 161.064 353.401 160.776 354.337 160.776C356.533 160.776 360.457 162.324 363.013 163.728L366.037 157.392C363.193 155.592 359.053 154.404 355.057 154.404ZM107.942 215.152L116.978 197.764H108.662L103.766 207.484L98.6904 197.764H90.3744L99.5904 215.332V223H107.942V215.152ZM138.353 197.512C130.433 197.512 124.673 202.912 124.673 210.328C124.673 217.852 130.289 223.36 138.029 223.36C141.917 223.36 146.201 221.38 149.009 218.32L144.185 213.172C142.529 214.936 140.261 216.052 138.461 216.052C135.437 216.052 133.241 213.604 133.241 210.22C133.241 206.872 135.437 204.46 138.461 204.46C140.405 204.46 142.673 205.792 144.185 207.844L149.009 202.12C146.417 199.312 142.205 197.512 138.353 197.512ZM162.966 197.512C154.938 197.512 149.106 202.876 149.106 210.364C149.106 217.888 154.938 223.36 162.966 223.36C170.994 223.36 176.826 217.852 176.826 210.364C176.826 202.912 170.994 197.512 162.966 197.512ZM163.074 204.46C165.954 204.46 168.258 206.944 168.258 210.4C168.258 213.856 165.954 216.412 163.074 216.412C160.194 216.412 157.674 213.856 157.674 210.4C157.674 206.944 160.158 204.46 163.074 204.46ZM203.675 223V197.764H196.115V210.724L186.143 197.764H179.159V223H186.755V210.112L196.691 223H203.675ZM228.38 204.352V197.764H205.664V204.352H212.828V223H221.18V204.352H228.38ZM244.636 219.436L245.896 223H254.788L244.528 197.764H235.96L225.304 223H233.872L235.168 219.436H244.636ZM242.584 213.46H237.328L239.992 206.08L242.584 213.46ZM267.939 197.512C260.019 197.512 254.259 202.912 254.259 210.328C254.259 217.852 259.875 223.36 267.615 223.36C271.503 223.36 275.787 221.38 278.595 218.32L273.771 213.172C272.115 214.936 269.847 216.052 268.047 216.052C265.023 216.052 262.827 213.604 262.827 210.22C262.827 206.872 265.023 204.46 268.047 204.46C269.991 204.46 272.259 205.792 273.771 207.844L278.595 202.12C276.003 199.312 271.791 197.512 267.939 197.512ZM301.4 204.352V197.764H278.684V204.352H285.848V223H294.2V204.352H301.4ZM317.656 219.436L318.916 223H327.808L317.548 197.764H308.98L298.324 223H306.892L308.188 219.436H317.656ZM315.604 213.46H310.348L313.012 206.08L315.604 213.46ZM353.757 223V197.764H346.197V210.724L336.225 197.764H329.241V223H336.837V210.112L346.773 223H353.757ZM369.966 197.512C361.938 197.512 356.106 202.876 356.106 210.364C356.106 217.888 361.938 223.36 369.966 223.36C377.994 223.36 383.826 217.852 383.826 210.364C383.826 202.912 377.994 197.512 369.966 197.512ZM370.074 204.46C372.954 204.46 375.258 206.944 375.258 210.4C375.258 213.856 372.954 216.412 370.074 216.412C367.194 216.412 364.674 213.856 364.674 210.4C364.674 206.944 367.158 204.46 370.074 204.46ZM397.103 197.404C390.551 197.404 386.303 200.572 386.303 205.612C386.303 214.468 399.371 212.308 399.371 215.584C399.371 216.484 398.579 216.88 397.355 216.88C394.799 216.88 390.335 215.116 387.743 212.956L384.647 219.22C387.995 221.776 392.891 223.252 397.283 223.252C402.971 223.252 407.903 220.768 407.903 215.152C407.903 206.008 394.835 207.988 394.835 204.82C394.835 204.064 395.447 203.776 396.383 203.776C398.579 203.776 402.503 205.324 405.059 206.728L408.083 200.392C405.239 198.592 401.099 197.404 397.103 197.404Z" fill="white"/>
<path d="M162.98 65.977C159.647 63.5654 155.396 62.6772 151.419 61.9843C148.374 61.4618 145.024 60.4499 141.784 60.1117C142.409 59.307 142.929 58.4265 143.331 57.4911C145.553 52.3461 144.57 46.038 139.367 43.3817C140.526 41.0553 141.63 38.4842 141.181 35.9049C140.631 32.7261 138.704 30.0587 136.053 28.2301C132.964 26.0935 128.034 26.077 124.522 27.8754C124.07 26.0852 122.977 24.2648 122.141 23.4344C120.878 22.1732 119.223 21.3798 117.448 21.1853C115.674 20.9908 113.885 21.4069 112.379 22.3647C111.928 17.096 109.112 13.392 103.697 11.2829C96.5071 8.48356 90.5337 10.6284 85.1273 15.2014C82.8205 11.3241 78.796 9.42676 74.2017 9.15177C68.6963 8.81354 63.9285 12.3251 61.2639 16.8651C59.2929 14.459 56.4246 13.8402 53.0057 14.5772C48.7582 15.4956 47.7204 18.372 47.3323 21.9357C43.7785 20.2088 40.0513 18.6607 36.002 19.2602C31.2068 19.9669 27.0171 21.46 23.6615 25.0485C18.9378 30.1 19.1966 37.1478 23.2569 42.004C19.5352 42.2322 15.6291 43.7502 15.5492 47.9711C15.4721 51.6202 18.0487 55.3462 21.6052 56.4791C18.3543 60.7689 16.9256 66.2658 21.831 70.1348C15.5189 71.7462 9.83179 76.9076 5.82656 81.5383C2.77928 85.0609 -1.76548 92.0317 0.71198 97.0061C3.64089 102.885 11.8881 97.8311 15.2134 95.0813C18.5965 92.3012 21.0437 88.8199 22.921 85.0141C23.0313 88.7335 23.5314 92.4311 24.413 96.0465C26.7061 105.671 31.5481 114.602 37.8822 122.192C50.9191 137.838 71.9362 145.711 92.1991 143.687C111.234 141.787 128.497 132.108 138.585 115.809C147.119 102.014 148.033 85.8363 143.364 70.9707C151.047 79.8279 162.818 91.0693 169.003 81.6951C172.543 76.3329 167.222 69.0458 162.98 65.977" fill="#7EC6E8"/>
<path d="M94.8555 140.935C95.2276 136.744 95.2957 132.532 95.0592 128.332C94.9271 125.841 95.0592 123.347 94.2939 121.026C94.4921 120.971 94.6903 120.91 94.8913 120.839C96.4686 120.289 99.1966 118.612 99.6948 116.94C100.149 115.419 97.7679 114.773 97.3054 116.288C97.0577 117.113 94.305 118.447 93.5259 118.724C93.3883 118.772 93.2507 118.813 93.113 118.848C92.8745 118.712 92.5982 118.657 92.3257 118.691C92.0532 118.725 91.7992 118.847 91.6018 119.038C89.7629 119.038 87.9627 118.254 86.1679 117.883C84.6098 117.561 83.9464 119.926 85.51 120.248C87.7645 120.712 89.7161 121.37 91.8027 121.37C92.868 123.93 92.5212 127.175 92.6643 129.867C92.8512 133.661 92.7528 137.463 92.3698 141.243L92.0615 143.718L94.6601 143.41L94.8555 140.935Z" fill="#1C1B1A"/>
<path d="M144.27 54.1748C144.988 49.841 143.529 45.3753 139.367 43.2524C140.526 40.9261 141.63 38.3522 141.181 35.7756C140.631 32.5968 138.704 29.9295 136.05 28.0981C132.964 25.9642 128.034 25.9477 124.522 27.7461C124.07 25.956 122.977 24.1356 122.141 23.3052C120.878 22.0433 119.222 21.2495 117.447 21.055C115.672 20.8605 113.883 21.2769 112.377 22.2355C111.928 16.9668 109.112 13.2628 103.697 11.1537C96.5072 8.35432 90.5337 10.4992 85.1274 15.0722C82.8206 11.1949 78.7961 9.29752 74.2017 9.02253C68.6963 8.6843 63.9286 12.1958 61.2639 16.7221C59.2929 14.316 56.4246 13.6972 53.0057 14.4342C48.7582 15.3526 47.7177 18.229 47.3323 21.7928C43.7785 20.0659 40.0513 18.5177 36.002 19.1172C31.204 19.8239 27.0144 21.317 23.6615 24.8918C18.9378 29.946 19.1966 36.9911 23.2569 41.85C19.5324 42.0783 15.6291 43.5962 15.5492 47.8172C15.4722 51.4662 18.0487 55.1922 21.6052 56.3251C18.4561 60.4829 17.0219 65.7708 21.3933 69.6151C21.5945 69.8531 21.8301 70.0598 22.0925 70.2283C23.3477 71.0312 25.0489 72.1312 27.3832 71.8782C28.8548 71.9594 30.3298 71.9594 31.8014 71.8782C33.5032 71.8385 35.1867 71.5179 36.7838 70.9295C36.8967 70.8827 36.9875 70.8332 37.0839 70.7837C37.0794 70.9894 37.0886 71.1952 37.1114 71.3997C37.2545 72.5271 37.9069 73.4043 38.6089 74.254C40.0651 76.0194 42.9032 76.3082 44.9842 75.9534C47.2057 75.5767 51.3155 74.8398 53.1488 72.8104C56.865 77.1441 64.0221 78.673 69.2468 77.4658C72.7869 76.6409 78.6502 74.4135 80.6432 70.7562C85.0971 73.2668 91.1256 75.1367 93.9939 70.286C97.7294 73.5226 101.938 75.7857 107.067 76.0167C111.675 76.2339 115.432 72.7829 117.095 68.7324C118.989 69.6976 121.714 69.5573 123.619 69.2686C126.699 68.7846 129.058 66.6892 129.634 63.8514C132.257 64.5337 135.031 64.3396 137.534 63.2987C138.949 62.3605 140.25 61.2604 141.41 60.0209L141.784 59.9879C142.409 59.1833 142.929 58.3027 143.331 57.3673C143.381 57.2546 143.428 57.1391 143.472 57.0236C143.905 56.131 144.176 55.168 144.27 54.1803" fill="#FFFFFD"/>
<path d="M144.27 54.1748C144.988 49.841 143.529 45.3753 139.367 43.2524C140.526 40.9261 141.63 38.3522 141.181 35.7756C140.631 32.5968 138.704 29.9295 136.05 28.0981C132.964 25.9642 128.034 25.9477 124.522 27.7461C124.07 25.956 122.977 24.1356 122.141 23.3052C120.878 22.0433 119.222 21.2495 117.447 21.055C115.672 20.8605 113.883 21.2769 112.377 22.2355C111.928 16.9668 109.112 13.2628 103.697 11.1537C96.5072 8.35432 90.5337 10.4992 85.1274 15.0722C82.8206 11.1949 78.7961 9.29752 74.2017 9.02253C68.6963 8.6843 63.9286 12.1958 61.2639 16.7221C59.2929 14.316 56.4246 13.6972 53.0057 14.4342C48.7582 15.3526 47.7177 18.229 47.3323 21.7928C43.7785 20.0659 40.0513 18.5177 36.002 19.1172C31.204 19.8239 27.0144 21.317 23.6615 24.8918C18.9378 29.946 19.1966 36.9911 23.2569 41.85C19.5324 42.0783 15.6291 43.5962 15.5492 47.8172C15.4722 51.4662 18.0487 55.1922 21.6052 56.3251C18.4561 60.4829 17.0219 65.7708 21.3933 69.6151C21.5945 69.8531 21.8301 70.0598 22.0925 70.2283C23.3477 71.0312 25.0489 72.1312 27.3832 71.8782C28.8548 71.9594 30.3298 71.9594 31.8014 71.8782C33.5032 71.8385 35.1867 71.5179 36.7838 70.9295C36.8967 70.8827 36.9875 70.8332 37.0839 70.7837C37.0794 70.9894 37.0886 71.1952 37.1114 71.3997C37.2545 72.5271 37.9069 73.4043 38.6089 74.254C40.0651 76.0194 42.9032 76.3082 44.9842 75.9534C47.2057 75.5767 51.3155 74.8398 53.1488 72.8104C56.865 77.1441 64.0221 78.673 69.2468 77.4658C72.7869 76.6409 78.6502 74.4135 80.6432 70.7562C85.0971 73.2668 91.1256 75.1367 93.9939 70.286C97.7294 73.5226 101.938 75.7857 107.067 76.0167C111.675 76.2339 115.432 72.7829 117.095 68.7324C118.989 69.6976 121.714 69.5573 123.619 69.2686C126.699 68.7846 129.058 66.6892 129.634 63.8514C132.257 64.5337 135.031 64.3396 137.534 63.2987C138.949 62.3605 140.25 61.2604 141.41 60.0209L141.784 59.9879C142.409 59.1833 142.929 58.3027 143.331 57.3673C143.381 57.2546 143.428 57.1391 143.472 57.0236C143.906 56.1293 144.176 55.1644 144.27 54.1748V54.1748Z" stroke="#FFFFFD" stroke-width="10" stroke-miterlimit="10"/>
<path d="M55.8025 90.2938C55.6238 90.2356 55.4391 90.1978 55.2519 90.1811C54.294 90.1123 53.1929 90.6513 52.7745 91.5257C52.6895 91.7003 52.6275 91.8852 52.59 92.0757C52.5735 92.1224 52.5515 92.1664 52.5377 92.2159C52.2817 93.1866 52.7304 93.9511 53.4186 94.4873C53.6504 94.8765 54.0047 95.1782 54.4261 95.3452C54.4507 95.3642 54.4764 95.3817 54.5032 95.3975C54.6558 95.4856 54.8261 95.5387 55.0018 95.5529C55.1774 95.5672 55.3541 95.5423 55.5189 95.48C55.9673 95.4309 56.3904 95.2479 56.7329 94.9548C56.9263 94.8464 57.1041 94.7122 57.2614 94.556C57.5832 94.3128 57.8163 93.9708 57.9248 93.5826C58.0052 93.2855 58.0146 92.9738 57.9524 92.6724C57.889 91.4955 57.066 90.3763 55.8025 90.2965" fill="#1C1B1A"/>
<path d="M119.691 82.7318C119.367 82.5253 118.999 82.3969 118.617 82.3568C118.235 82.3167 117.848 82.366 117.488 82.5008C117.269 82.5035 117.05 82.5312 116.836 82.5833L116.742 82.6108C116.324 82.7146 115.939 82.9216 115.622 83.213C114.708 84.0764 114.7 85.4926 115.242 86.5403C115.547 87.1207 116.063 87.5618 116.685 87.7722L116.734 87.7942L116.85 87.8327C117.172 87.9863 117.52 88.0795 117.877 88.1077C120.701 88.3194 121.989 84.2304 119.696 82.718" fill="#1C1B1A"/>
<path d="M199.713 52V15.548H181.305V25.064H187.649V52H199.713Z" fill="#80CFF5"/>
</svg>
