<svg width="402" height="228" viewBox="0 0 402 228" fill="none" xmlns="http://www.w3.org/2000/svg">
<circle cx="190.966" cy="124.497" r="93.4382" fill="#80CFF5"/>
<path d="M170.273 110.764V136H178.625V129.448H182.117C188.669 129.448 192.449 125.92 192.449 119.8C192.449 114.04 188.669 110.764 182.117 110.764H170.273ZM178.625 117.1H181.685C183.485 117.1 184.529 118.18 184.529 120.052C184.529 121.996 183.485 123.112 181.685 123.112H178.625V117.1ZM209.98 132.436L211.24 136H220.132L209.872 110.764H201.304L190.648 136H199.216L200.512 132.436H209.98ZM207.928 126.46H202.672L205.336 119.08L207.928 126.46ZM232.51 110.404C225.958 110.404 221.71 113.572 221.71 118.612C221.71 127.468 234.778 125.308 234.778 128.584C234.778 129.484 233.986 129.88 232.762 129.88C230.206 129.88 225.742 128.116 223.15 125.956L220.054 132.22C223.402 134.776 228.298 136.252 232.69 136.252C238.378 136.252 243.31 133.768 243.31 128.152C243.31 119.008 230.242 120.988 230.242 117.82C230.242 117.064 230.854 116.776 231.79 116.776C233.986 116.776 237.91 118.324 240.466 119.728L243.49 113.392C240.646 111.592 236.506 110.404 232.51 110.404ZM262.644 132.436L263.904 136H272.796L262.536 110.764H253.968L243.312 136H251.88L253.176 132.436H262.644ZM260.592 126.46H255.336L258 119.08L260.592 126.46ZM282.582 129.052V110.764H274.23V136H293.094V129.052H282.582ZM307.853 110.512C299.825 110.512 293.993 115.876 293.993 123.364C293.993 130.888 299.825 136.36 307.853 136.36C315.881 136.36 321.713 130.852 321.713 123.364C321.713 115.912 315.881 110.512 307.853 110.512ZM307.961 117.46C310.841 117.46 313.145 119.944 313.145 123.4C313.145 126.856 310.841 129.412 307.961 129.412C305.081 129.412 302.561 126.856 302.561 123.4C302.561 119.944 305.045 117.46 307.961 117.46ZM348.742 132.436L350.002 136H358.894L348.634 110.764H340.066L329.41 136H337.978L339.274 132.436H348.742ZM346.69 126.46H341.434L344.098 119.08L346.69 126.46ZM170.431 153.764V179H183.823C189.979 179 193.975 176.228 193.975 171.908C193.975 168.74 191.995 166.22 188.971 165.536C191.563 164.744 193.219 162.62 193.219 160.136C193.219 156.284 189.295 153.764 183.211 153.764H170.431ZM178.747 159.884H182.743C183.895 159.884 184.651 160.568 184.651 161.648C184.651 162.764 183.895 163.484 182.743 163.484H178.747V159.884ZM178.747 169.028H182.743C184.291 169.028 185.299 169.748 185.299 170.864C185.299 172.088 184.291 172.88 182.743 172.88H178.747V169.028ZM220.35 153.764H211.998V168.308C211.998 170.828 210.414 172.412 208.362 172.412C206.274 172.412 204.474 170.792 204.474 168.308V153.764H196.122V168.308C196.122 175.004 200.982 179.36 208.326 179.36C215.634 179.36 220.35 175.004 220.35 168.308V153.764ZM234.531 153.404C227.979 153.404 223.731 156.572 223.731 161.612C223.731 170.468 236.799 168.308 236.799 171.584C236.799 172.484 236.007 172.88 234.783 172.88C232.227 172.88 227.763 171.116 225.171 168.956L222.075 175.22C225.423 177.776 230.319 179.252 234.711 179.252C240.399 179.252 245.331 176.768 245.331 171.152C245.331 162.008 232.263 163.988 232.263 160.82C232.263 160.064 232.875 159.776 233.811 159.776C236.007 159.776 239.931 161.324 242.487 162.728L245.511 156.392C242.667 154.592 238.527 153.404 234.531 153.404ZM259.913 153.512C251.993 153.512 246.233 158.912 246.233 166.328C246.233 173.852 251.849 179.36 259.589 179.36C263.477 179.36 267.761 177.38 270.569 174.32L265.745 169.172C264.089 170.936 261.821 172.052 260.021 172.052C256.997 172.052 254.801 169.604 254.801 166.22C254.801 162.872 256.997 160.46 260.021 160.46C261.965 160.46 264.233 161.792 265.745 163.844L270.569 158.12C267.977 155.312 263.765 153.512 259.913 153.512ZM289.099 175.436L290.359 179H299.251L288.991 153.764H280.423L269.767 179H278.335L279.631 175.436H289.099ZM287.047 169.46H281.791L284.455 162.08L287.047 169.46ZM315.193 179H324.625L319.657 170.792C322.249 169.208 323.653 166.472 323.653 162.8C323.653 157.04 319.729 153.764 312.889 153.764H300.685V179H309.037V172.448H312.169L315.193 179ZM309.037 166.112V160.1H312.889C314.689 160.1 315.733 161.18 315.733 163.052C315.733 164.996 314.689 166.112 312.889 166.112H309.037ZM349.702 171.152L358.738 153.764H350.422L345.526 163.484L340.45 153.764H332.134L341.35 171.332V179H349.702V171.152ZM139.474 209.436C141.634 209.436 143.146 207.924 143.146 205.764C143.146 203.568 141.634 202.056 139.474 202.056C137.278 202.056 135.766 203.568 135.766 205.764C135.766 207.924 137.278 209.436 139.474 209.436ZM135.442 220.956V227.58H143.146V220.956L141.706 211.632H136.882L135.442 220.956ZM146.384 196.764V222H157.328C165.86 222 171.368 217.032 171.368 209.364C171.368 201.696 165.968 196.764 157.652 196.764H146.384ZM154.736 203.244H157.472C160.712 203.244 162.836 205.692 162.836 209.436C162.836 213.144 160.892 215.52 157.868 215.52H154.736V203.244ZM182.052 222V196.764H173.7V222H182.052ZM196.598 196.404C190.046 196.404 185.798 199.572 185.798 204.612C185.798 213.468 198.866 211.308 198.866 214.584C198.866 215.484 198.074 215.88 196.85 215.88C194.294 215.88 189.83 214.116 187.238 211.956L184.142 218.22C187.49 220.776 192.386 222.252 196.778 222.252C202.466 222.252 207.398 219.768 207.398 214.152C207.398 205.008 194.33 206.988 194.33 203.82C194.33 203.064 194.942 202.776 195.878 202.776C198.074 202.776 201.998 204.324 204.554 205.728L207.578 199.392C204.734 197.592 200.594 196.404 196.598 196.404ZM229.864 203.1V196.764H209.56V222H217.912V213.792H229.108V207.456H217.912V203.1H229.864ZM246.779 222H256.211L251.243 213.792C253.835 212.208 255.239 209.472 255.239 205.8C255.239 200.04 251.315 196.764 244.475 196.764H232.271V222H240.623V215.448H243.755L246.779 222ZM240.623 209.112V203.1H244.475C246.275 203.1 247.319 204.18 247.319 206.052C247.319 207.996 246.275 209.112 244.475 209.112H240.623ZM282.225 196.764H273.873V211.308C273.873 213.828 272.289 215.412 270.237 215.412C268.149 215.412 266.349 213.792 266.349 211.308V196.764H257.997V211.308C257.997 218.004 262.857 222.36 270.201 222.36C277.509 222.36 282.225 218.004 282.225 211.308V196.764ZM306.558 203.352V196.764H283.842V203.352H291.006V222H299.358V203.352H306.558ZM322.814 218.436L324.074 222H332.966L322.706 196.764H314.138L303.482 222H312.05L313.346 218.436H322.814ZM320.762 212.46H315.506L318.17 205.08L320.762 212.46ZM342.752 215.052V196.764H334.4V222H353.264V215.052H342.752ZM368.023 196.512C359.995 196.512 354.163 201.876 354.163 209.364C354.163 216.888 359.995 222.36 368.023 222.36C376.051 222.36 381.883 216.852 381.883 209.364C381.883 201.912 376.051 196.512 368.023 196.512ZM368.131 203.46C371.011 203.46 373.315 205.944 373.315 209.4C373.315 212.856 371.011 215.412 368.131 215.412C365.251 215.412 362.731 212.856 362.731 209.4C362.731 205.944 365.215 203.46 368.131 203.46ZM391.56 203.388V196.764H383.856V203.388L385.296 212.712H390.12L391.56 203.388ZM387.528 214.908C385.368 214.908 383.856 216.42 383.856 218.58C383.856 220.776 385.368 222.288 387.528 222.288C389.724 222.288 391.236 220.776 391.236 218.58C391.236 216.42 389.724 214.908 387.528 214.908Z" fill="white"/>
<path d="M55.2782 28.7272C53.1709 28.4007 51.0959 27.8916 49.0767 27.2058C45.6374 26.0641 42.4441 24.2844 39.664 21.9597C35.9807 18.8589 35.6411 14.8084 35.9669 10.385C36.069 8.97132 34.0534 8.57647 33.3825 9.69197C28.4952 17.7904 25.1819 26.2588 30.1989 35.1165C32.4243 39.0483 36.5136 42.2126 41.0888 43.9521C42.5301 44.4105 44.2503 44.9406 44.7031 43.9908C46.8347 39.5205 55.2672 28.7327 55.2672 28.7327M161.786 30.3894C162.965 29.4098 164.006 28.2758 164.881 27.0181C170.503 18.9639 168.62 8.38319 160.986 2.36392C160.716 2.14538 160.38 2.02727 160.033 2.02982C159.252 1.87796 158.354 2.30594 158.376 3.31651C158.539 10.3436 154.911 15.0679 148.961 18.5193C147.573 19.3058 146.102 19.9364 144.576 20.3996C144.576 20.3996 157.484 33.0318 157.697 33.1285C158.003 33.2665 161.082 31.1266 161.783 30.3894M101.977 141.442C104.021 141.6 106.078 141.68 108.09 141.68Z" fill="#DA403F"/>
<path d="M202.477 44.8633C198.308 41.4864 194.23 37.9853 189.972 34.7161C186.808 32.2863 183.229 29.2629 179.261 28.2137C175.294 27.1644 171.721 27.4847 167.792 28.6637C165.776 29.2657 158.553 32.1262 157.945 33.1119C156.656 30.8036 146.915 21.5731 144.573 20.4107C128.404 8.17887 107.041 3.81628 87.1804 8.89401C74.6945 12.0886 63.8074 19.3449 55.2589 28.7604C51.7191 32.2753 46.9286 39.3355 43.8968 44.5623C43.7174 44.4547 42.1849 44.2559 41.0805 43.9797C38.8578 43.4717 36.6295 42.9526 34.3902 42.3948C30.4059 41.4091 26.833 41.2628 22.9122 42.5025C18.9914 43.7423 15.5704 46.9203 12.5276 49.5131C8.44111 52.981 4.53687 56.692 0.538745 60.2511C-0.22609 60.9359 -0.209524 62.1452 0.801052 62.6146C4.48164 64.3183 8.25611 64.7656 12.1631 65.6905C16.4788 66.7094 20.0738 67.7531 24.4502 66.5382C27.7635 65.6188 30.4722 62.3192 32.7474 59.9639C35.0846 57.5389 37.559 55.2498 40.1583 53.108C36.6185 62.1066 34.7105 71.8534 35.1882 81.4898C35.3794 85.1698 36.1241 88.8001 37.3971 92.2582C37.3226 96.4275 38.3525 100.669 40.4951 104.75C47.0335 117.213 63.7107 138.535 101.961 141.475C104.004 141.633 106.064 141.713 108.074 141.713C140.766 141.713 161.692 121.645 170.376 102.864C173.01 97.1675 174.275 91.6203 174.195 86.4791C174.195 86.4405 174.211 86.4018 174.217 86.3632C176.884 70.1995 171.238 53.097 161.913 39.1919C164.848 41.3265 167.646 43.643 170.291 46.1279C172.676 48.3727 175.537 51.537 178.9 52.2935C183.318 53.2986 186.871 52.0837 191.129 50.8577C194.994 49.7533 198.736 49.1154 202.328 47.2351C203.314 46.7188 203.272 45.5094 202.474 44.8633" fill="#FFFFFD"/>
<path d="M151.181 63.454C141.045 63.1917 133.534 66.8502 126.267 70.3845C120.839 73.0269 115.708 75.5229 110.181 75.8515C102.634 76.2961 97.554 73.8359 92.1587 71.2183C86.7634 68.6008 81.1859 65.8949 72.4 65.8949C70.1906 65.9029 67.9842 66.0578 65.7954 66.3587C53.8894 67.9547 44.5208 73.8138 40.0892 82.4285C36.5605 89.2872 36.682 97.0764 40.4344 104.36C46.9589 117.037 63.6279 138.75 102.03 141.757C104.084 141.917 106.149 142 108.165 142C140.804 142 161.687 121.587 170.346 102.48C175.211 91.7474 175.316 81.6471 170.622 74.0402C166.613 67.535 159.528 63.6777 151.186 63.4568" fill="#DA403F"/>
<path d="M69.2772 86.8022C68.9027 86.5899 68.483 86.4702 68.0529 86.4531C67.6228 86.436 67.1949 86.5219 66.8047 86.7037C66.4146 86.8856 66.0736 87.158 65.8101 87.4984C65.5467 87.8387 65.3684 88.2372 65.2901 88.6604C65.0002 90.2619 65.9638 92.1726 67.8497 91.9738C67.9687 91.9616 68.0861 91.9375 68.2003 91.902C68.6083 91.9194 69.0144 91.839 69.3849 91.6673C70.2988 91.2393 70.6909 90.2674 70.7461 89.3203C70.8096 88.2904 70.1414 87.3047 69.2772 86.7966" fill="#1C1B1A"/>
<path d="M157.33 86.5481C157.214 85.9052 156.912 85.3105 156.461 84.8381C156.01 84.3658 155.429 84.0367 154.792 83.8919C154.72 83.8174 154.641 83.749 154.558 83.6876C154.175 83.3839 153.701 83.2186 153.213 83.2186C152.725 83.2186 152.251 83.3839 151.868 83.6876C151.139 84.2536 150.96 85.2476 150.866 86.1008C150.667 87.948 152.324 89.6903 154.108 89.9388C156.223 90.2453 157.697 88.5748 157.33 86.5371" fill="#1C1B1A"/>
<path d="M110.874 115.554C98.8103 118.166 83.5522 118.039 75.9094 107.019C74.9044 105.567 72.4994 106.942 73.5155 108.4C81.9591 120.579 98.1448 121.101 111.619 118.199C113.367 117.821 112.624 115.162 110.882 115.548" fill="#1C1B1A"/>
<path d="M67.615 46.6442C63.5561 46.6857 58.6275 49.2314 56.9432 53.0142C56.2281 54.6212 58.6164 56.0211 59.3371 54.3947C60.6017 51.5591 63.7549 50.1343 66.6016 49.5269C70.7433 48.6405 74.9458 51.675 77.29 54.8531C78.3337 56.2696 80.7414 54.9 79.6839 53.4725C76.8151 49.5821 72.5823 46.589 67.615 46.6442" fill="#1C1B1A"/>
<path d="M136.185 42.2927C134.095 42.1932 132.028 42.7556 130.276 43.8997C129.31 44.5126 128.57 45.4183 127.868 46.2991C127.661 46.5559 125.325 50.2061 125.267 50.623C125.267 50.6893 125.248 50.7556 125.237 50.8218C125.005 52.4371 127.3 53.1909 127.824 51.8821C128.089 51.5185 128.297 51.1174 128.443 50.692C129.359 48.6792 130.632 46.9369 132.521 45.7358C135.776 43.6732 142.132 45.4597 143.875 48.6737C144.722 50.2365 147.116 48.8448 146.269 47.2931C144.289 43.6456 140.111 42.4832 136.185 42.301" fill="#1C1B1A"/>
<path d="M222.441 29.952L230.293 22.412V15.652H204.605V24.388H216.721L209.805 30.992V37.284H216.409C218.905 37.284 220.153 38.324 220.153 40.456C220.153 42.588 218.905 43.628 216.409 43.628C213.237 43.628 210.221 41.912 207.465 38.532L202.681 47.684C206.217 50.596 211.937 52.52 217.397 52.52C226.237 52.52 231.957 47.528 231.957 40.404C231.957 34.944 228.577 31.408 224.001 30.316L222.441 29.952Z" fill="#E83F40"/>
</svg>
