<svg xmlns="http://www.w3.org/2000/svg" xmlns:xlink="http://www.w3.org/1999/xlink" viewBox="0 0 617.79 502.48"><defs><style>.cls-1{fill:none;}.cls-2{clip-path:url(#clip-path);}.cls-3{fill:#da403f;}.cls-4{fill:#f5df66;}.cls-5{fill:#1c1b1a;}</style><clipPath id="clip-path" transform="translate(-231.1 -288.76)"><rect class="cls-1" width="1080" height="1080"/></clipPath></defs><title>Recurso 1</title><g id="Capa_2" data-name="Capa 2"><g id="Capa_1-2" data-name="Capa 1"><g class="cls-2"><g class="cls-2"><path class="cls-3" d="M604.9,349.43a220,220,0,0,0-81-15c-102.5,0-214.22,67.58-229.4,196.75-7.29,61.94,13.9,125.71,58.12,174.95,43.76,48.72,102.82,75.56,166.29,75.56,40.81,0,82-11.13,122.28-33.08,73.74-40.14,113-110.91,107.82-194.16-5.69-90.94-63.6-173.34-144.1-205" transform="translate(-231.1 -288.76)"/><path class="cls-3" d="M402.42,355.84c-15.94-2.85-31.88-5.76-48.05-7.66-.85-.1-1.68-.24-2.52-.36-14.82,23.45-35.82,40.05-56,58.69l-1.29,1.24a261.64,261.64,0,0,1,17.34,36.48c21.7-38.84,53.81-68.41,90.55-88.39" transform="translate(-231.1 -288.76)"/><path class="cls-3" d="M341.56,346.06c-28.12-5.95-53.9-19.41-81.28-27.49-4.87,45-16.91,88.92-19.2,134.21,7.15-7.91,12.89-17.48,20.25-24.93,9.19-9.31,17.7-19.57,27.7-28.07,19.22-16.33,38.46-32.71,52.53-53.72" transform="translate(-231.1 -288.76)"/><path class="cls-3" d="M766.85,325c-3.52-4.32-7.15-8.63-10.36-13.2-3-4.3-3.28-8.05-5.45-12.41-11.88,5-23.52,12.52-35.09,18.16-13.69,6.67-27.2,13.37-40.14,21.34l-1.32.78c2.83,3.07,5.29,6.37,8.56,9.13,7.76,6.54,16.79,12,25,18,14.34,10.44,28.42,20.37,44.57,27.94,17.18,8.05,35.54,14.18,52.39,22.84,10.05,5.17,18.64,12.54,28.29,18.18-13-23.74-27.46-46.64-40.32-70.46C785.27,351,777.14,337.7,766.85,325" transform="translate(-231.1 -288.76)"/><path class="cls-3" d="M680.64,359.17c-5.83-3.87-9.16-10-14.4-14.55-7.66,4.49-15.29,8.93-22.66,14,32.18,20.12,59.34,48.45,79.17,81.72.92-2.25,1.85-4.48,2.76-6.75,3.64-9.11,8.5-17.43,12.63-26.32.39-.86,2-4.53,3.39-7.46C728,392.57,715.79,384,703.21,375c-7.49-5.37-14.89-10.77-22.57-15.86" transform="translate(-231.1 -288.76)"/><path class="cls-3" d="M848.36,443.63C834.61,417,818.21,391.88,804,365.53c-6.29-11.66-12.08-24.58-20.4-35-4.37-5.47-8.84-10.88-13.26-16.31-5.54-6.83-7.49-13.59-11.6-20.8a4.48,4.48,0,0,0-2.21-2,3.91,3.91,0,0,0-5.35-2.29c-10.45,4.07-19.65,10.75-30,15.29-13.89,6.12-27.5,13.35-40.88,20.49-12.15,6.49-24.24,14-36,21.3a87.84,87.84,0,0,0-9.38,7.3,216,216,0,0,0-27-12.91,229.75,229.75,0,0,0-84.56-15.64,255.72,255.72,0,0,0-106.77,23.72c-18.72-3.25-37.35-7-56.3-9.29-19.79-2.42-37.71-9.27-56.73-14.66-14.95-4.23-28.66-11.78-43.52-16.07-2.28-2.76-8.32-1.73-8.75,3.05C246.74,362.78,231.73,412.4,231.1,464c0,3.28,4.26,6.38,7.23,4.11,8.75-6.68,15.34-16.11,22.31-24.54a378.85,378.85,0,0,1,26.72-29,273.64,273.64,0,0,1,18.61,41,232.32,232.32,0,0,0-21.46,74.53C276.91,594.75,299,661.23,345,712.49c45.61,50.78,107.21,78.75,173.46,78.75,42.44,0,85.14-11.53,126.91-34.26C722.49,715,763.6,641,758.15,553.9a252.87,252.87,0,0,0-29.27-102.71c.73-1.77,1.49-3.51,2.19-5.3,4.55-11.68,10-22.54,15.36-33.85,1.11-2.34,2.92-5,4.37-7.67,16.2,7.69,32.94,14.28,49.37,21.44,15.36,6.7,26.52,19.47,42.77,24.81,4.25,1.4,7.22-3.51,5.42-7m-587-15.78c-7.36,7.45-13.1,17-20.25,24.93,2.29-45.29,14.33-89.25,19.19-134.21,27.39,8.08,53.17,21.54,81.29,27.49-14.07,21-33.31,37.39-52.53,53.72-10,8.5-18.51,18.76-27.7,28.07m33.2-20.1,1.29-1.24c20.22-18.63,41.21-35.24,56-58.69.84.12,1.67.26,2.52.36,16.17,1.9,32.11,4.81,48.05,7.66-36.74,20-68.85,49.55-90.55,88.39a262.18,262.18,0,0,0-17.34-36.48M640.74,748.64c-40.33,22-81.47,33.08-122.28,33.08-63.47,0-122.53-26.84-166.29-75.56-44.22-49.24-65.41-113-58.12-174.95C309.23,402,420.94,334.46,523.45,334.46a220,220,0,0,1,81,15c80.5,31.71,138.41,114.11,144.1,205.05,5.22,83.25-34.08,154-107.82,194.16m97.4-341.4c-4.13,8.89-9,17.21-12.63,26.32-.91,2.27-1.84,4.5-2.76,6.75-19.83-33.27-47-61.6-79.17-81.72,7.37-5,15-9.48,22.66-14,5.24,4.52,8.57,10.68,14.4,14.55,7.68,5.09,15.08,10.49,22.57,15.86,12.58,9,24.79,17.54,38.32,24.75-1.39,2.93-3,6.6-3.39,7.46M805,417.59c-16.85-8.66-35.21-14.79-52.39-22.84-16.15-7.57-30.23-17.5-44.57-27.94-8.22-6-17.25-11.45-25-18-3.27-2.76-5.73-6.06-8.56-9.13l1.32-.78c12.94-8,26.45-14.67,40.14-21.34,11.57-5.64,23.21-13.12,35.09-18.16,2.17,4.36,2.43,8.11,5.45,12.41,3.21,4.57,6.84,8.88,10.36,13.2,10.29,12.68,18.42,26,26.14,40.29,12.86,23.82,27.29,46.72,40.31,70.46-9.64-5.64-18.23-13-28.28-18.18" transform="translate(-231.1 -288.76)"/><path class="cls-4" d="M522.4,718.22c-37.38.78-77.19-25.43-77.27-64.9,0-19.05,11-37.08,23.62-50.54,13.72-14.61,30.61-20.35,48.82-19.69a5.39,5.39,0,0,0,1.68.46c4.25.4,8.48.79,12.65,1.28,1.05.21,2.09.42,3.15.66a4.89,4.89,0,0,0,2.18,0c13.85,2,26.86,5.9,37.71,16.37,13,12.54,16.86,32.72,16.71,49.91-.34,39-31.32,65.62-69.25,66.41" transform="translate(-231.1 -288.76)"/><path class="cls-5" d="M625.24,700.55c-.66-6.42-10.87-6.49-10.21,0,2.1,20.3-23.39,25.1-39.11,25.28-6.57.08-6.58,10.19,0,10.11,21.2-.26,52.05-8.9,49.32-35.39" transform="translate(-231.1 -288.76)"/><path class="cls-5" d="M415,548.23c-11.93-8.33-26.09-14-37.45-23.05-4.78-3.81-11.62,2.89-6.79,6.73,9.67,7.69,21,13.16,31.67,19.59a43.51,43.51,0,0,0-7,3.39c-6.41,4-13.29,6.8-19.39,11.32-4.83,3.59-.4,11.7,4.85,8.23l1.6-1.06a4,4,0,0,0,.32-.26,152.4,152.4,0,0,1,15.16-8.73c3.24-1.73,6.27-4.24,9.77-5.45,2.55-.88,4.86-1.26,7.3-2.49,3.47-1.75,2.74-6.31,0-8.22" transform="translate(-231.1 -288.76)"/><path class="cls-5" d="M697.23,555.64c-5-3.15-10.54-4.91-16.14-6.66a83,83,0,0,1-11.67-5.11,135.25,135.25,0,0,1,8.86-11.5c2.17-2.71,4.24-5.49,6.29-8.3q1.7-2.34,3.54-4.59c-.3.37,2.75-3.85,2.63-3.8,5.64-2.33,3.17-11.54-2.55-9.18-6.45,2.66-10.64,11-14.61,16.47-4.82,6.68-11.61,13-14.94,20.62a4.85,4.85,0,0,0,.07,4.17,4.91,4.91,0,0,0,2.8,2.82c5.17,2.14,9.84,5.14,15.15,7s10.83,3.21,15.72,6.31c5.24,3.31,10-4.93,4.85-8.22" transform="translate(-231.1 -288.76)"/><path class="cls-5" d="M496.39,637.13a10.58,10.58,0,0,0-6.61-5.66,9.29,9.29,0,0,0-3.68-.41c-.13,0-.24,0-.37,0-6.21.48-9.17,6.58-7,12a9.51,9.51,0,0,0,14.68,3.71c2.81-2.37,4.42-6.07,3-9.62" transform="translate(-231.1 -288.76)"/><path class="cls-5" d="M561.61,638.62c-.69-3.39-4.31-6.22-7.89-6.52a8.52,8.52,0,0,0-1.23-.43c-5.41-1.32-10.39,4.58-9.4,9.63,1,5.26,6.62,6.76,11.29,6.56a7.59,7.59,0,0,0,7.23-9.24" transform="translate(-231.1 -288.76)"/></g></g></g></g></svg>