<svg xmlns="http://www.w3.org/2000/svg" xmlns:xlink="http://www.w3.org/1999/xlink" viewBox="0 0 418.33 744.28"><defs><style>.cls-1{fill:none;}.cls-2{clip-path:url(#clip-path);}.cls-3{fill:#b3c51d;}.cls-4{fill:#fffffd;}.cls-5{fill:#1c1b1a;}</style><clipPath id="clip-path" transform="translate(-349.75 -149.35)"><rect class="cls-1" width="1080" height="1080"/></clipPath></defs><title>Recurso 3</title><g id="Capa_2" data-name="Capa 2"><g id="Capa_1-2" data-name="Capa 1"><g class="cls-2"><g class="cls-2"><path class="cls-3" d="M759.75,619.19c-9-45.6-22.37-90.24-34-135.2-9.53-36.79-15.6-73.39-21-110.59a4,4,0,0,0,.31-2.1c-5-47.07-3.78-99.19-33.61-138.94-19.16-25.51-60.08-38.1-81.64-7.1-21.26,30.58-2.5,69.4,11,98.93,11.87,26,23.91,51.71,29.12,80,5.86,31.75,1.66,65.37.34,97.44-50.56-13.28-105.1-10.83-154.85,4.77-11.91-50.19-5.59-106.33-.92-157.08,4.8-52.17,24.92-103.25,14.63-156-3.32-17-12.25-34.35-28.9-41.56-16.13-7-33.94,2.54-45.64,13.21-32.35,29.5-36.76,77.35-32.12,118.64a3.85,3.85,0,0,0-.73,2.7c7.47,96.87-4.92,191.18-19.88,286.69-6.73,42.95-11.93,86.7-12.1,130.21-.14,37.73,6.72,76.61,27,109,31.7,50.67,91.91,74,149.33,79.91,64.1,6.61,131.6-8.68,181.92-49.61,67.21-54.67,67.06-145.73,51.75-223.34" transform="translate(-349.75 -149.35)"/><path class="cls-4" d="M535.72,801.57c-.53-17,1.22-35,.77-52a34,34,0,0,0,9.94-2.48c10.85-4.44,19.83-15.18,23.79-23.45-.34,6,1.72,19.41,1.81,27.45.12,11.08-1.53,34.24-1.72,49.57-10.3,3.84-23.78,3.6-34.59.87" transform="translate(-349.75 -149.35)"/><path class="cls-4" d="M579.46,800.87c-2.57-17.28-6.76-35.88-8.08-51.47-.62-7.37-1.34-15.89-2-24.15,4.7,5.27,13.75,12.63,21.86,15.31a76.85,76.85,0,0,0,18.11,3.88c0,10.2,1.2,21,2.41,31.11.93,7.76,2,15.34,2.76,22.57-4,1.83-11.43,3-15.23,4.11-5.84,1.65-14.5,2.81-19.84-1.36" transform="translate(-349.75 -149.35)"/><path class="cls-5" d="M650.36,722.3h-2c-3.48,0-4.83,3.25-4.07,5.8-11.16,15.76-34,14.59-51,7.4-18.54-7.84-21.05-30.45-20.06-49.15a11.64,11.64,0,0,0,1.48-.62c.08,0,.13-.1.21-.14a19.76,19.76,0,0,0,5.48-3.33c4.47-3.87,3-9.6-1.32-12.58-.2-.31-.47-.59-.71-.89a8.39,8.39,0,0,0-.56-.65c-.23-.24-.39-.52-.64-.74-4.81-4.32-13.47-4.81-18.66-.9a10.56,10.56,0,0,0-4.28,8.6v0a.41.41,0,0,0,0,.11,10.86,10.86,0,0,0,3.47,8.91,11.3,11.3,0,0,0,6.19,2.71c.29,16.08,1.52,32-9.49,45.42-12.19,14.88-42.67,17.23-55,0-3.28-4.58-11-.19-7.66,4.44,7.66,10.67,22.12,16.1,36.09,16.36,15.22.46,31.65-5.82,39.23-22.36.61-1.34,2.68-2.13,3.6-2.34s3.74,2.87,5.61,5.13c11.23,13.56,31.53,15.7,43.56,15.64,14.1-.55,27.11-6.22,34.34-20.25a4.44,4.44,0,0,0-3.83-6.61" transform="translate(-349.75 -149.35)"/><path class="cls-5" d="M446.59,653.21a8.65,8.65,0,0,0-1.22-3.08c-1.45-4.22-5.56-7.21-9.88-8.14-4.73-1-10.34.6-12.35,5.32a12.88,12.88,0,0,0-1,3.71,10.31,10.31,0,0,0,1.12,8.06,9.84,9.84,0,0,0,3.8,3.45c7.52,5.49,21.53,1.76,19.5-9.32" transform="translate(-349.75 -149.35)"/><path class="cls-5" d="M700.11,653.15c-6.39-9.39-18.1-6.42-27.49-8.66,7.89-10.65,17.06-20.17,22-32.9,2.06-5.3-6.52-7.57-8.56-2.34-5.22,13.4-16.29,23.42-24.19,35.11a4.39,4.39,0,0,0,1.59,6c4.17,2.28,8.54,2.66,13.24,2.94,3.89.23,13.23.6,15.73,4.27,3.17,4.68,10.86.28,7.66-4.44" transform="translate(-349.75 -149.35)"/></g></g></g></g></svg>