<svg width="49" height="50" viewBox="0 0 49 50" fill="none" xmlns="http://www.w3.org/2000/svg">
<circle cx="24.5" cy="25" r="24.5" fill="#F6A02A"/>
<path fill-rule="evenodd" clip-rule="evenodd" d="M19.7589 13.569C20.9852 13.5125 21.3762 13.5 24.5 13.5C27.6238 13.5 28.0148 13.5136 29.2401 13.569C30.4654 13.6244 31.3017 13.8199 32.0335 14.1032C32.7999 14.3928 33.4951 14.8455 34.0701 15.431C34.6555 16.0049 35.1072 16.6991 35.3957 17.4665C35.6801 18.1983 35.8745 19.0346 35.931 20.2578C35.9875 21.4862 36 21.8772 36 25C36 28.1238 35.9864 28.5148 35.931 29.7411C35.8756 30.9643 35.6801 31.8007 35.3957 32.5325C35.1072 33.3 34.6548 33.9953 34.0701 34.5701C33.4951 35.1555 32.7999 35.6072 32.0335 35.8957C31.3017 36.1801 30.4654 36.3745 29.2422 36.431C28.0148 36.4875 27.6238 36.5 24.5 36.5C21.3762 36.5 20.9852 36.4864 19.7589 36.431C18.5357 36.3756 17.6993 36.1801 16.9675 35.8957C16.2001 35.6071 15.5047 35.1548 14.9299 34.5701C14.3449 33.9958 13.8921 33.3008 13.6032 32.5335C13.3199 31.8017 13.1255 30.9654 13.069 29.7422C13.0125 28.5138 13 28.1228 13 25C13 21.8762 13.0136 21.4852 13.069 20.2599C13.1244 19.0346 13.3199 18.1983 13.6032 17.4665C13.8925 16.6992 14.3456 16.0042 14.931 15.4299C15.505 14.845 16.1996 14.3922 16.9665 14.1032C17.6983 13.8199 18.5346 13.6255 19.7578 13.569H19.7589ZM29.147 15.639C27.9343 15.5836 27.5705 15.5721 24.5 15.5721C21.4295 15.5721 21.0657 15.5836 19.853 15.639C18.7312 15.6902 18.1227 15.8774 17.7171 16.0352C17.1808 16.2443 16.7971 16.4921 16.3946 16.8946C16.013 17.2658 15.7194 17.7177 15.5352 18.2171C15.3774 18.6227 15.1902 19.2312 15.139 20.353C15.0836 21.5657 15.0721 21.9295 15.0721 25C15.0721 28.0705 15.0836 28.4343 15.139 29.647C15.1902 30.7688 15.3774 31.3773 15.5352 31.7829C15.7192 32.2816 16.013 32.7343 16.3946 33.1054C16.7657 33.487 17.2184 33.7808 17.7171 33.9648C18.1227 34.1226 18.7312 34.3098 19.853 34.361C21.0657 34.4164 21.4285 34.4279 24.5 34.4279C27.5715 34.4279 27.9343 34.4164 29.147 34.361C30.2688 34.3098 30.8773 34.1226 31.2829 33.9648C31.8192 33.7557 32.2029 33.5079 32.6054 33.1054C32.987 32.7343 33.2808 32.2816 33.4648 31.7829C33.6226 31.3773 33.8098 30.7688 33.861 29.647C33.9164 28.4343 33.9279 28.0705 33.9279 25C33.9279 21.9295 33.9164 21.5657 33.861 20.353C33.8098 19.2312 33.6226 18.6227 33.4648 18.2171C33.2557 17.6808 33.0079 17.2971 32.6054 16.8946C32.2342 16.5131 31.7823 16.2194 31.2829 16.0352C30.8773 15.8774 30.2688 15.6902 29.147 15.639ZM23.0311 28.5451C23.8515 28.8866 24.7649 28.9327 25.6154 28.6755C26.466 28.4184 27.2008 27.8739 27.6945 27.1351C28.1882 26.3963 28.4101 25.509 28.3222 24.6248C28.2344 23.7406 27.8423 22.9143 27.213 22.287C26.8117 21.8861 26.3266 21.5791 25.7925 21.3881C25.2584 21.1971 24.6886 21.127 24.1242 21.1826C23.5597 21.2383 23.0146 21.4185 22.5281 21.7101C22.0416 22.0017 21.6258 22.3976 21.3106 22.8692C20.9955 23.3408 20.7888 23.8764 20.7055 24.4375C20.6222 24.9986 20.6644 25.5711 20.8289 26.1139C20.9935 26.6568 21.2763 27.1564 21.6571 27.5768C22.0379 27.9971 22.5072 28.3279 23.0311 28.5451ZM20.3203 20.8203C20.8692 20.2714 21.5208 19.836 22.2379 19.5389C22.9551 19.2419 23.7238 19.089 24.5 19.089C25.2762 19.089 26.0449 19.2419 26.7621 19.5389C27.4792 19.836 28.1308 20.2714 28.6797 20.8203C29.2286 21.3692 29.664 22.0208 29.9611 22.7379C30.2581 23.4551 30.411 24.2238 30.411 25C30.411 25.7762 30.2581 26.5449 29.9611 27.2621C29.664 27.9792 29.2286 28.6308 28.6797 29.1797C27.5712 30.2883 26.0677 30.911 24.5 30.911C22.9323 30.911 21.4288 30.2883 20.3203 29.1797C19.2117 28.0712 18.589 26.5677 18.589 25C18.589 23.4323 19.2117 21.9288 20.3203 20.8203ZM31.722 19.9693C31.858 19.841 31.9669 19.6867 32.0422 19.5155C32.1175 19.3444 32.1578 19.1598 32.1605 18.9729C32.1632 18.7859 32.1284 18.6003 32.0581 18.427C31.9878 18.2538 31.8835 18.0964 31.7512 17.9641C31.619 17.8319 31.4616 17.7276 31.2883 17.6573C31.1151 17.587 30.9294 17.5522 30.7425 17.5549C30.5555 17.5576 30.371 17.5978 30.1998 17.6731C30.0287 17.7485 29.8744 17.8573 29.7461 17.9934C29.4966 18.2579 29.3599 18.6093 29.3652 18.9729C29.3705 19.3365 29.5173 19.6837 29.7745 19.9409C30.0316 20.198 30.3789 20.3448 30.7425 20.3501C31.1061 20.3554 31.4575 20.2188 31.722 19.9693Z" fill="#1D1D1B"/>
</svg>
