<svg width="210" height="210" viewBox="0 0 210 210" fill="none" xmlns="http://www.w3.org/2000/svg">
<circle cx="105" cy="105" r="105" fill="black"/>
<path fill-rule="evenodd" clip-rule="evenodd" d="M84.6809 56.0101C89.9366 55.7681 91.6123 55.7144 105 55.7144C118.388 55.7144 120.064 55.7726 125.315 56.0101C130.566 56.2475 134.15 57.0854 137.287 58.2996C140.571 59.5407 143.55 61.4808 146.015 63.9899C148.524 66.4497 150.459 69.4247 151.696 72.7134C152.915 75.8498 153.748 79.4342 153.99 84.6764C154.232 89.941 154.286 91.6168 154.286 105C154.286 118.388 154.228 120.064 153.99 125.319C153.753 130.561 152.915 134.146 151.696 137.282C150.459 140.571 148.521 143.551 146.015 146.015C143.55 148.524 140.571 150.459 137.287 151.696C134.15 152.915 130.566 153.748 125.324 153.99C120.064 154.232 118.388 154.286 105 154.286C91.6123 154.286 89.9366 154.228 84.6809 153.99C79.4387 153.753 75.8543 152.915 72.7179 151.696C69.4289 150.459 66.4489 148.521 63.9854 146.015C61.478 143.553 59.5376 140.575 58.2996 137.287C57.0854 134.15 56.252 130.566 56.0101 125.324C55.7681 120.059 55.7144 118.383 55.7144 105C55.7144 91.6123 55.7726 89.9366 56.0101 84.6854C56.2475 79.4342 57.0854 75.8498 58.2996 72.7134C59.5395 69.4251 61.4813 66.4466 63.9899 63.9854C66.4499 61.4785 69.4269 59.5382 72.7134 58.2996C75.8498 57.0854 79.4342 56.252 84.6764 56.0101H84.6809ZM124.916 64.8815C119.719 64.644 118.159 64.5947 105 64.5947C91.8408 64.5947 90.2816 64.644 85.0842 64.8815C80.2766 65.101 77.6689 65.9031 75.9305 66.5796C73.632 67.4757 71.9876 68.5376 70.2626 70.2626C68.6274 71.8534 67.369 73.79 66.5796 75.9305C65.9031 77.6689 65.101 80.2766 64.8815 85.0842C64.644 90.2816 64.5947 91.8408 64.5947 105C64.5947 118.159 64.644 119.719 64.8815 124.916C65.101 129.724 65.9031 132.331 66.5796 134.07C67.3682 136.207 68.6272 138.147 70.2626 139.738C71.8532 141.373 73.7933 142.632 75.9305 143.421C77.6689 144.097 80.2766 144.899 85.0842 145.119C90.2816 145.356 91.8363 145.405 105 145.405C118.164 145.405 119.719 145.356 124.916 145.119C129.724 144.899 132.331 144.097 134.07 143.421C136.368 142.524 138.013 141.463 139.738 139.738C141.373 138.147 142.632 136.207 143.421 134.07C144.097 132.331 144.899 129.724 145.119 124.916C145.356 119.719 145.405 118.159 145.405 105C145.405 91.8408 145.356 90.2816 145.119 85.0842C144.899 80.2766 144.097 77.6689 143.421 75.9305C142.524 73.632 141.463 71.9876 139.738 70.2626C138.147 68.6275 136.21 67.3691 134.07 66.5796C132.331 65.9031 129.724 65.101 124.916 64.8815V64.8815ZM98.7049 120.194C102.221 121.657 106.135 121.855 109.78 120.752C113.426 119.65 116.575 117.317 118.691 114.15C120.807 110.984 121.757 107.182 121.381 103.392C121.005 99.6026 119.324 96.0613 116.627 93.3731C114.908 91.6547 112.828 90.339 110.539 89.5205C108.25 88.7021 105.808 88.4014 103.389 88.64C100.97 88.8786 98.6339 89.6506 96.5489 90.9005C94.4639 92.1503 92.682 93.8469 91.3314 95.8681C89.9807 97.8893 89.0951 100.185 88.7381 102.589C88.3811 104.994 88.5617 107.448 89.2669 109.774C89.9721 112.101 91.1843 114.242 92.8163 116.043C94.4483 117.845 96.4594 119.262 98.7049 120.194ZM87.087 87.087C89.4393 84.7346 92.232 82.8686 95.3056 81.5955C98.3791 80.3224 101.673 79.6671 105 79.6671C108.327 79.6671 111.621 80.3224 114.695 81.5955C117.768 82.8686 120.561 84.7346 122.913 87.087C125.266 89.4393 127.132 92.232 128.405 95.3056C129.678 98.3791 130.333 101.673 130.333 105C130.333 108.327 129.678 111.621 128.405 114.695C127.132 117.768 125.266 120.561 122.913 122.913C118.162 127.664 111.719 130.333 105 130.333C98.2814 130.333 91.8378 127.664 87.087 122.913C82.3361 118.162 79.6671 111.719 79.6671 105C79.6671 98.2814 82.3361 91.8378 87.087 87.087V87.087ZM135.952 83.4398C136.534 82.8899 137.001 82.2286 137.324 81.4951C137.647 80.7617 137.819 79.9709 137.831 79.1696C137.842 78.3683 137.693 77.5728 137.392 76.8302C137.091 76.0876 136.643 75.413 136.077 74.8463C135.51 74.2797 134.836 73.8325 134.093 73.5312C133.35 73.23 132.555 73.0807 131.754 73.0924C130.952 73.1041 130.161 73.2764 129.428 73.5992C128.694 73.922 128.033 74.3887 127.483 74.9716C126.414 76.1053 125.828 77.6112 125.851 79.1696C125.874 80.7279 126.503 82.2161 127.605 83.3181C128.707 84.4202 130.195 85.0493 131.754 85.0721C133.312 85.0948 134.818 84.5093 135.952 83.4398V83.4398Z" fill="#FEF608"/>
</svg>
