<svg width="132" height="132" viewBox="0 0 132 132" fill="none" xmlns="http://www.w3.org/2000/svg">
<circle cx="66" cy="66" r="66" fill="#1D1D1B"/>
<path fill-rule="evenodd" clip-rule="evenodd" d="M53.2281 35.2063C56.5316 35.0542 57.5849 35.0204 66.0001 35.0204C74.4153 35.0204 75.4686 35.057 78.7693 35.2063C82.0701 35.3555 84.3231 35.8822 86.2945 36.6454C88.3589 37.4255 90.2318 38.645 91.7807 40.2221C93.3579 41.7683 94.5745 43.6383 95.3519 45.7055C96.1179 47.677 96.6417 49.93 96.7938 53.2251C96.9459 56.5343 96.9797 57.5876 96.9797 66C96.9797 74.4152 96.9431 75.4685 96.7938 78.772C96.6445 82.0671 96.1179 84.3202 95.3519 86.2916C94.5745 88.3591 93.3559 90.2322 91.7807 91.7806C90.2318 93.3578 88.3589 94.5744 86.2945 95.3517C84.3231 96.1178 82.0701 96.6416 78.775 96.7937C75.4686 96.9458 74.4153 96.9796 66.0001 96.9796C57.5849 96.9796 56.5316 96.943 53.2281 96.7937C49.933 96.6444 47.6799 96.1178 45.7085 95.3517C43.6411 94.5743 41.7679 93.3557 40.2194 91.7806C38.6434 90.2335 37.4237 88.3613 36.6455 86.2944C35.8823 84.323 35.3585 82.0699 35.2064 78.7748C35.0543 75.4656 35.0205 74.4123 35.0205 66C35.0205 57.5848 35.0571 56.5315 35.2064 53.2308C35.3557 49.93 35.8823 47.677 36.6455 45.7055C37.4249 43.6386 38.6455 41.7664 40.2223 40.2193C41.7685 38.6436 43.6398 37.424 45.7057 36.6454C47.6771 35.8822 49.9301 35.3583 53.2252 35.2063H53.2281ZM78.5187 40.7826C75.2517 40.6333 74.2716 40.6023 66.0001 40.6023C57.7285 40.6023 56.7485 40.6333 53.4815 40.7826C50.4596 40.9206 48.8205 41.4247 47.7278 41.85C46.283 42.4132 45.2494 43.0807 44.1651 44.165C43.1373 45.1649 42.3463 46.3822 41.8501 47.7277C41.4248 48.8204 40.9207 50.4595 40.7827 53.4814C40.6334 56.7483 40.6025 57.7284 40.6025 66C40.6025 74.2715 40.6334 75.2516 40.7827 78.5185C40.9207 81.5405 41.4248 83.1796 41.8501 84.2723C42.3458 85.6157 43.1372 86.8352 44.1651 87.835C45.1649 88.8629 46.3844 89.6543 47.7278 90.15C48.8205 90.5752 50.4596 91.0794 53.4815 91.2174C56.7485 91.3666 57.7257 91.3976 66.0001 91.3976C74.2745 91.3976 75.2517 91.3666 78.5187 91.2174C81.5406 91.0794 83.1797 90.5752 84.2724 90.15C85.7172 89.5867 86.7508 88.9192 87.8351 87.835C88.863 86.8352 89.6544 85.6157 90.1501 84.2723C90.5754 83.1796 91.0795 81.5405 91.2175 78.5185C91.3668 75.2516 91.3977 74.2715 91.3977 66C91.3977 57.7284 91.3668 56.7483 91.2175 53.4814C91.0795 50.4595 90.5754 48.8204 90.1501 47.7277C89.5868 46.2829 88.9194 45.2493 87.8351 44.165C86.8351 43.1372 85.6178 42.3462 84.2724 41.85C83.1797 41.4247 81.5406 40.9206 78.5187 40.7826ZM62.0432 75.5501C64.253 76.47 66.7137 76.5942 69.0049 75.9014C71.2961 75.2086 73.2758 73.7418 74.6057 71.7516C75.9356 69.7614 76.5333 67.3712 76.2967 64.9892C76.0601 62.6073 75.0039 60.3813 73.3085 58.6916C72.2277 57.6115 70.9208 56.7844 69.482 56.27C68.0432 55.7555 66.5082 55.5665 64.9876 55.7165C63.467 55.8665 61.9985 56.3517 60.688 57.1374C59.3774 57.923 58.2573 58.9894 57.4083 60.2599C56.5594 61.5303 56.0027 62.9732 55.7783 64.4847C55.5539 65.9961 55.6674 67.5385 56.1107 69.0008C56.5539 70.4631 57.3159 71.809 58.3417 72.9414C59.3675 74.0739 60.6317 74.9649 62.0432 75.5501ZM54.7404 54.7403C56.2191 53.2617 57.9745 52.0887 59.9064 51.2885C61.8383 50.4883 63.909 50.0764 66.0001 50.0764C68.0912 50.0764 70.1618 50.4883 72.0938 51.2885C74.0257 52.0887 75.7811 53.2617 77.2598 54.7403C78.7384 56.2189 79.9113 57.9743 80.7116 59.9063C81.5118 61.8382 81.9237 63.9089 81.9237 66C81.9237 68.0911 81.5118 70.1617 80.7116 72.0937C79.9113 74.0256 78.7384 75.781 77.2598 77.2596C74.2735 80.2459 70.2233 81.9236 66.0001 81.9236C61.7769 81.9236 57.7267 80.2459 54.7404 77.2596C51.7542 74.2734 50.0765 70.2232 50.0765 66C50.0765 61.7768 51.7542 57.7266 54.7404 54.7403ZM85.4553 52.4478C85.8217 52.1022 86.115 51.6865 86.3179 51.2255C86.5208 50.7644 86.6292 50.2673 86.6365 49.7637C86.6438 49.26 86.55 48.76 86.3607 48.2932C86.1713 47.8264 85.8902 47.4024 85.534 47.0462C85.1778 46.69 84.7538 46.4089 84.287 46.2196C83.8203 46.0302 83.3202 45.9364 82.8166 45.9437C82.3129 45.9511 81.8158 46.0594 81.3548 46.2623C80.8937 46.4652 80.4781 46.7585 80.1324 47.125C79.4602 47.8376 79.0922 48.7841 79.1064 49.7637C79.1207 50.7432 79.5162 51.6786 80.2089 52.3713C80.9016 53.064 81.837 53.4595 82.8166 53.4738C83.7961 53.4881 84.7427 53.12 85.4553 52.4478Z" fill="#F6A02A"/>
</svg>
