<svg width="166" height="166" viewBox="0 0 166 166" fill="none" xmlns="http://www.w3.org/2000/svg">
<circle cx="83" cy="83" r="83" fill="#FEF608"/>
<path d="M53.38 95.7563C51.8573 99.9005 50.5888 104.133 49.5816 108.431C48.887 111.369 48.3734 114.346 48.0437 117.347C47.7534 120.393 47.2394 123.414 46.5059 126.385C46.4064 126.535 46.2748 126.661 46.1205 126.754C45.9663 126.847 45.7932 126.904 45.614 126.922C45.0147 126.91 44.4321 126.723 43.9377 126.385C41.8469 122.078 40.0686 117.627 38.6168 113.065C37.1482 108.426 35.2538 103.931 32.9575 99.6386C33.2805 98.856 33.5727 98.4571 33.8495 98.4417C34.0423 98.2722 34.2852 98.1698 34.5415 98.1502C35.499 98.2856 36.405 98.6662 37.1712 99.255C38.6785 102.066 39.9888 104.979 41.0927 107.971C42.1384 111.04 43.2149 113.955 44.2914 116.932C45.0757 113.188 45.8292 109.444 46.6135 105.669C47.4132 101.938 48.4403 98.2582 49.6892 94.6515C49.8887 94.2479 50.2261 93.9287 50.6406 93.7515C51.0551 93.5742 51.5194 93.5506 51.9499 93.6848C52.1309 93.7403 52.2949 93.8406 52.4266 93.9763C52.5215 94.0641 52.6329 94.1323 52.7543 94.1771C52.8756 94.2218 53.0047 94.2423 53.134 94.2372C53.3954 94.2372 53.5492 94.4213 53.5953 94.851C53.6106 95.1603 53.5581 95.4693 53.4416 95.7563" fill="black"/>
<path d="M69.9579 97.5977C68.4156 98.3504 66.8345 99.0214 65.2213 99.6079C63.6016 100.202 62.0153 100.883 60.4694 101.649C60.2359 103.373 60.1946 105.118 60.3464 106.851C60.8925 106.996 61.4611 107.037 62.0226 106.973C62.7304 106.895 63.4301 106.757 64.1141 106.559C64.802 106.378 65.5005 106.24 66.2056 106.145C66.9572 106.057 67.7185 106.179 68.4047 106.498C68.7286 106.808 68.9805 107.185 69.1428 107.603C69.1491 107.707 69.1265 107.81 69.0777 107.902C69.0289 107.994 68.9557 108.071 68.866 108.124C68.6551 108.331 68.4646 108.557 68.297 108.8C68.2011 108.939 68.0724 109.052 67.9222 109.129C67.772 109.207 67.605 109.247 67.4358 109.245C66.3117 109.537 65.1643 109.732 64.0064 109.828C62.8603 109.915 61.7373 110.195 60.6847 110.656C60.3654 112.407 60.2519 114.189 60.3464 115.966C60.3786 116.671 60.5621 117.362 60.8846 117.991C62.4225 118.85 64.8523 119.05 68.3124 118.59C68.5977 118.547 68.859 118.406 69.0506 118.191C69.2128 117.994 69.4337 117.854 69.6811 117.792C70.5115 117.531 71.1113 118.114 71.5111 119.526C71.6477 119.969 71.6035 120.449 71.3881 120.861C71.2927 121.062 71.1485 121.236 70.9686 121.367C70.7886 121.498 70.5787 121.583 70.3577 121.613C67.2056 122.059 64.006 122.059 60.8539 121.613C59.9518 121.459 59.1135 121.049 58.4395 120.431C57.7254 119.84 57.2368 119.022 57.0554 118.114C56.5773 115.824 56.3657 113.486 56.4249 111.147C55.5329 110.656 55.1177 110.135 55.1485 109.613C55.1485 109.352 55.3638 109.076 55.779 108.815C56.1942 108.554 56.4249 108.293 56.4556 108.048C56.4864 107.802 56.4556 106.39 56.4556 103.766C54.764 103.598 53.8721 103.045 53.8259 102.109C53.8248 101.65 53.9543 101.2 54.1993 100.812C54.4443 100.423 54.7948 100.112 55.21 99.9148L57.9781 98.4877C59.2698 97.72 60.635 97.0826 62.0534 96.5849C63.4528 96.0786 64.8676 95.5722 66.2978 95.0504C66.4729 94.9983 66.6536 94.9674 66.8361 94.9584C67.847 94.93 68.8481 95.1626 69.7426 95.6335C69.7426 95.7563 69.881 95.9711 70.0194 96.2934C70.135 96.5102 70.2179 96.7429 70.2655 96.9839C70.2804 97.1002 70.2641 97.2183 70.2182 97.3262C70.1722 97.4341 70.0983 97.5278 70.004 97.5977" fill="black"/>
<path d="M88.1967 107.234C87.5234 109.682 87.2177 112.216 87.2894 114.753C87.3817 117.301 87.474 119.848 87.5816 122.426C87.5816 123.178 87.1356 123.592 86.2129 123.669C85.9543 123.723 85.6872 123.723 85.4286 123.669C84.8124 123.487 84.2688 123.116 83.8744 122.61C83.4799 122.103 83.2544 121.486 83.2295 120.845C83.1917 120.207 83.1917 119.566 83.2295 118.927C83.2694 118.304 83.2694 117.679 83.2295 117.055C83.2295 116.18 83.2295 114.876 83.3218 113.127C81.4848 115.215 79.2398 116.907 76.7244 118.099C76.3894 118.251 76.0304 118.345 75.6633 118.375C74.8845 118.389 74.1136 118.216 73.4152 117.872C72.7169 117.528 72.1114 117.021 71.6496 116.395C70.8973 115.54 70.4487 114.462 70.3732 113.326C70.289 111.963 70.424 110.596 70.773 109.275C72.0301 104.006 74.1556 98.9807 77.0628 94.406C78.6006 91.9508 80.0154 90.6618 81.3687 90.539C82.722 90.4163 83.2757 90.8153 83.5063 91.7053C83.6151 92.0119 83.6131 92.3468 83.5008 92.6522C83.3885 92.9575 83.1729 93.2142 82.8912 93.3779C81.8916 94.0377 81.3533 94.406 81.3533 94.4674C78.8428 97.9542 76.8487 101.784 75.4327 105.838C74.4991 108.156 74.0743 110.647 74.187 113.142C74.187 113.526 74.2793 113.925 74.3408 114.308C74.3408 114.308 74.51 114.462 74.6484 114.707C74.7868 114.953 74.9713 115.014 75.1712 114.907C78.2226 112.98 80.9958 110.647 83.4141 107.971C83.8523 107.326 84.1412 106.592 84.2599 105.823C84.3132 105.448 84.496 105.103 84.7767 104.848C85.0574 104.593 85.4185 104.444 85.7977 104.426C85.567 104.426 85.7977 104.426 86.5051 104.273C86.8588 104.181 87.1049 104.273 87.2433 104.38C87.7679 104.931 88.1297 105.616 88.289 106.36C88.3037 106.655 88.2673 106.951 88.1814 107.234" fill="black"/>
<path d="M108.158 114.539C108.363 114.92 108.494 115.336 108.542 115.766C108.568 116.066 108.527 116.368 108.42 116.649C108.314 116.931 108.145 117.185 107.927 117.393C107.451 117.884 107.128 118.129 106.943 118.114C105.405 117.976 104.421 116.886 103.867 114.83C103.358 112.941 102.689 111.098 101.868 109.321L98.7925 109.858C97.8045 110.029 96.8894 110.489 96.1628 111.178C95.7899 112.845 95.5025 114.53 95.3016 116.227C95.0984 117.95 94.7537 119.654 94.2712 121.321C94.0867 121.874 93.5946 122.073 92.7334 121.904C91.8722 121.735 91.1955 121.26 91.0417 120.707C90.9014 119.15 91.0954 117.581 91.6107 116.104C92.1707 114.561 92.5274 112.951 92.6719 111.316C92.6719 111.04 92.4566 110.764 92.0106 110.472C91.5646 110.181 91.3186 109.951 91.3032 109.766C91.3075 109.589 91.3666 109.418 91.4723 109.275C91.7208 109.027 92.036 108.857 92.3797 108.784C92.8564 108.646 93.1178 108.462 93.164 108.247C93.5638 106.713 94.1636 103.864 94.9632 99.7001C95.4427 96.8843 96.0793 94.0974 96.8702 91.3524C96.9459 91.1344 97.0901 90.9466 97.2812 90.8167C97.4723 90.6868 97.7002 90.6218 97.9313 90.6312C98.3382 90.5886 98.7471 90.692 99.0846 90.9228C100.066 91.6867 100.742 92.7749 100.992 93.9918C101.284 95.204 101.561 96.4009 101.822 97.6132C103.575 103.382 105.691 109.035 108.158 114.539ZM100.838 106.575C100.616 105.337 100.307 104.117 99.9151 102.923C99.5152 101.756 99.1154 100.59 98.7463 99.4239C98.0697 101.971 97.516 104.529 97.0855 107.096C98.3256 106.863 99.5786 106.704 100.838 106.621" fill="black"/>
<path d="M126.474 87.7156C126.474 91.7359 126.381 95.787 126.351 99.8534C126.289 104.672 126.397 108.677 126.674 111.869C126.786 112.892 126.909 113.915 127.043 114.938C127.079 115.169 127.062 115.405 126.992 115.628C126.923 115.852 126.803 116.056 126.643 116.226C126.492 116.413 126.306 116.567 126.094 116.68C125.883 116.794 125.651 116.864 125.413 116.886C124.49 116.963 123.659 116.411 122.921 115.214C119.674 109.769 116.762 104.132 114.202 98.3343C114.125 98.1655 114.032 98.0734 113.94 98.0888C113.848 98.1041 113.617 98.3343 113.602 98.7486C113.486 103.265 113.64 107.785 114.063 112.283C114.263 114.554 114.54 116.886 114.863 119.203C114.947 119.538 114.936 119.889 114.83 120.218C114.724 120.546 114.527 120.838 114.263 121.06C114.187 121.164 114.09 121.251 113.979 121.317C113.868 121.383 113.745 121.426 113.617 121.444C113.329 121.442 113.044 121.374 112.787 121.244L111.91 120.922C111.51 120.83 111.234 120.492 111.095 119.909C110.957 119.326 110.941 118.943 110.865 118.375C110.618 116.718 110.419 114.968 110.249 113.158C109.973 109.996 109.793 106.027 109.711 101.25C109.609 94.0172 109.557 90.0122 109.557 89.2347C109.557 88.5749 110.049 88.2066 111.095 88.0992C111.603 87.9918 112.372 88.2987 113.433 89.0199C115.076 91.7618 116.53 94.6123 117.785 97.5517C119.05 100.526 120.552 103.394 122.275 106.13C122.352 102.124 122.521 96.0632 122.737 87.9457C122.737 87.3473 123.183 87.0097 123.967 86.933C124.284 86.898 124.604 86.898 124.92 86.933L125.782 87.0711C125.928 87.1101 126.063 87.1833 126.175 87.2847C126.287 87.3861 126.374 87.5128 126.427 87.6542" fill="black"/>
<path d="M57.486 45.8084C55.1456 52.0661 53.194 58.4617 51.6422 64.9589C50.6439 69.4131 49.9096 73.9221 49.4431 78.4625C48.9649 83.0685 48.1477 87.6332 46.998 92.1195C46.8452 92.3437 46.6446 92.5315 46.4107 92.6695C46.1768 92.8074 45.9152 92.8921 45.6447 92.9175C44.7387 92.9059 43.8562 92.6284 43.1072 92.1195C39.9451 85.6082 37.2522 78.8803 35.0489 71.9869C32.8344 64.9728 29.9773 58.177 26.5139 51.6855C27.006 50.504 27.452 49.8902 27.8518 49.8595C28.1609 49.6318 28.5295 49.4985 28.9129 49.4759C30.354 49.6675 31.7208 50.2278 32.8806 51.1024C35.1653 55.3525 37.1489 59.757 38.8166 64.2838C40.416 68.8259 42.0307 73.3373 43.6608 77.818C44.8194 72.2222 45.9881 66.5497 47.1671 60.8004C48.368 55.1632 49.9086 49.6033 51.7806 44.1512C52.0702 43.5253 52.5769 43.0251 53.2073 42.743C53.8377 42.461 54.5491 42.4161 55.21 42.6167C55.4833 42.7048 55.7313 42.8574 55.9328 43.0617C56.0733 43.1956 56.2402 43.2989 56.4229 43.365C56.6056 43.431 56.8001 43.4584 56.9939 43.4453C57.3938 43.4453 57.6244 43.7522 57.686 44.366C57.7281 44.837 57.6542 45.3111 57.4707 45.747" fill="black"/>
<path d="M66.9284 49.5986C67.1283 50.9029 67.2975 52.2533 67.4205 53.6497C67.6973 56.7187 67.805 61.3682 67.7435 67.5982C67.6819 73.8283 67.7793 78.529 68.0356 81.7003C68.1433 82.8818 68.2817 84.0174 68.4201 85.1529C68.3302 85.7382 68.0288 86.2704 67.5727 86.6492C67.1166 87.028 66.5373 87.2272 65.9442 87.2091C63.986 87.3012 62.848 86.5646 62.5302 84.9994C62.2176 83.3459 62.0019 81.6756 61.8843 79.997C61.5846 75.3994 61.5435 70.7887 61.7613 66.1865C61.9659 61.5841 61.9249 56.9741 61.6382 52.376C61.5306 51.1945 61.3768 50.059 61.1769 48.9388C61.3519 48.4958 61.6538 48.114 62.0449 47.8411C62.436 47.5682 62.8989 47.4163 63.376 47.4043C64.2691 47.3585 65.159 47.5435 65.9596 47.9414C66.0642 47.8276 66.1967 47.743 66.344 47.6958C66.4824 47.6958 66.5593 47.9107 66.6055 48.3557C66.5772 48.6758 66.6085 48.9983 66.6977 49.3071C66.6977 49.4298 66.8208 49.5219 66.9284 49.5526" fill="black"/>
<path d="M100.407 41.9416C98.0589 48.1928 96.1021 54.5835 94.548 61.0768C93.558 65.5318 92.8289 70.0406 92.3643 74.5803C91.8824 79.1869 91.06 83.7517 89.9037 88.2373C89.7525 88.4631 89.5524 88.652 89.3182 88.7901C89.0839 88.9282 88.8215 89.012 88.5504 89.0353C87.6473 89.0204 86.7671 88.7489 86.013 88.2527C82.861 81.7336 80.1733 75.0009 77.9701 68.1047C75.7486 61.0908 72.8864 54.2951 69.4197 47.8034C69.9118 46.6218 70.3578 46.0233 70.7576 45.9773C71.0627 45.7354 71.431 45.5863 71.8187 45.5476C73.2718 45.752 74.6454 46.3341 75.8017 47.2356C78.0722 51.4831 80.0453 55.8822 81.707 60.4016C83.3064 64.9437 84.9262 69.4602 86.5666 73.9512C87.7354 68.294 88.9041 62.6164 90.0729 56.9183C91.2833 51.2802 92.8342 45.7203 94.7172 40.269C95.0088 39.6486 95.5134 39.1528 96.1396 38.8713C96.7658 38.5899 97.4722 38.5413 98.1312 38.7345C98.3905 38.8456 98.6178 39.0197 98.7924 39.2409C98.9345 39.3726 99.1016 39.4744 99.2839 39.5403C99.4662 39.6062 99.6599 39.6348 99.8536 39.6245C100.269 39.6245 100.499 39.916 100.561 40.5452C100.586 41.0205 100.513 41.4959 100.346 41.9416" fill="black"/>
<path d="M109.834 45.7165C110.039 47.026 110.208 48.3763 110.342 49.7676C110.618 52.8366 110.721 57.4861 110.649 63.7162C110.577 69.9462 110.685 74.6418 110.972 77.8028C111.08 78.9844 111.203 80.1199 111.357 81.2554C111.263 81.842 110.959 82.3745 110.5 82.7531C110.042 83.1316 109.46 83.3302 108.865 83.3117C106.928 83.4037 105.79 82.6672 105.467 81.102C105.124 79.4554 104.877 77.7902 104.729 76.1149C104.429 71.5173 104.388 66.9066 104.605 62.3044C104.826 57.7023 104.785 53.0914 104.482 48.494C104.375 47.3277 104.221 46.1769 104.036 45.0567C104.204 44.6114 104.501 44.2267 104.891 43.953C105.28 43.6792 105.744 43.5291 106.22 43.5222C107.131 43.4554 108.044 43.6301 108.865 44.0286C108.97 43.9148 109.102 43.8302 109.25 43.7831C109.388 43.7831 109.48 43.9979 109.527 44.4429C109.505 44.7621 109.531 45.0827 109.603 45.3943C109.647 45.5022 109.729 45.5899 109.834 45.6398" fill="black"/>
<path d="M53.38 95.7563C51.8573 99.9005 50.5888 104.133 49.5816 108.431C48.887 111.369 48.3734 114.346 48.0437 117.347C47.7534 120.393 47.2394 123.414 46.5059 126.385C46.4064 126.535 46.2748 126.661 46.1205 126.754C45.9663 126.847 45.7932 126.904 45.614 126.922C45.0147 126.91 44.4321 126.723 43.9377 126.385C41.8469 122.078 40.0686 117.627 38.6168 113.065C37.1482 108.426 35.2538 103.931 32.9575 99.6386C33.2805 98.856 33.5727 98.4571 33.8495 98.4417C34.0423 98.2722 34.2852 98.1698 34.5415 98.1502C35.499 98.2856 36.405 98.6662 37.1712 99.255C38.6785 102.066 39.9888 104.979 41.0927 107.971C42.1384 111.04 43.2149 113.955 44.2914 116.932C45.0757 113.188 45.8292 109.444 46.6135 105.669C47.4132 101.938 48.4403 98.2582 49.6892 94.6515C49.8887 94.2479 50.2261 93.9287 50.6406 93.7515C51.0551 93.5742 51.5194 93.5506 51.9499 93.6848C52.1309 93.7403 52.2949 93.8406 52.4266 93.9763C52.5215 94.0641 52.6329 94.1323 52.7543 94.1771C52.8756 94.2218 53.0047 94.2423 53.134 94.2372C53.3954 94.2372 53.5492 94.4213 53.5953 94.851C53.6106 95.1603 53.5581 95.4693 53.4416 95.7563" fill="black"/>
<path d="M69.9579 97.5977C68.4156 98.3504 66.8345 99.0214 65.2213 99.6079C63.6016 100.202 62.0153 100.883 60.4694 101.649C60.2359 103.373 60.1946 105.118 60.3464 106.851C60.8925 106.996 61.4611 107.037 62.0226 106.973C62.7304 106.895 63.4301 106.757 64.1141 106.559C64.802 106.378 65.5005 106.24 66.2056 106.145C66.9572 106.057 67.7185 106.179 68.4047 106.498C68.7286 106.808 68.9805 107.185 69.1428 107.603C69.1491 107.707 69.1265 107.81 69.0777 107.902C69.0289 107.994 68.9557 108.071 68.866 108.124C68.6551 108.331 68.4646 108.557 68.297 108.8C68.2011 108.939 68.0724 109.052 67.9222 109.129C67.772 109.207 67.605 109.247 67.4358 109.245C66.3117 109.537 65.1643 109.732 64.0064 109.828C62.8603 109.915 61.7373 110.195 60.6847 110.656C60.3654 112.407 60.2519 114.189 60.3464 115.966C60.3786 116.671 60.5621 117.362 60.8846 117.991C62.4225 118.85 64.8523 119.05 68.3124 118.59C68.5977 118.547 68.859 118.406 69.0506 118.191C69.2128 117.994 69.4337 117.854 69.6811 117.792C70.5115 117.531 71.1113 118.114 71.5111 119.526C71.6477 119.969 71.6035 120.449 71.3881 120.861C71.2927 121.062 71.1485 121.236 70.9686 121.367C70.7886 121.498 70.5787 121.583 70.3577 121.613C67.2056 122.059 64.006 122.059 60.8539 121.613C59.9518 121.459 59.1135 121.049 58.4395 120.431C57.7254 119.84 57.2368 119.022 57.0554 118.114C56.5773 115.824 56.3657 113.486 56.4249 111.147C55.5329 110.656 55.1177 110.135 55.1485 109.613C55.1485 109.352 55.3638 109.076 55.779 108.815C56.1942 108.554 56.4249 108.293 56.4556 108.048C56.4864 107.802 56.4556 106.39 56.4556 103.766C54.764 103.598 53.8721 103.045 53.8259 102.109C53.8248 101.65 53.9543 101.2 54.1993 100.812C54.4443 100.423 54.7948 100.112 55.21 99.9148L57.9781 98.4877C59.2698 97.72 60.635 97.0826 62.0534 96.5849C63.4528 96.0786 64.8676 95.5722 66.2978 95.0504C66.4729 94.9983 66.6536 94.9674 66.8361 94.9584C67.847 94.93 68.8481 95.1626 69.7426 95.6335C69.7426 95.7563 69.881 95.9711 70.0194 96.2934C70.135 96.5102 70.2179 96.7429 70.2655 96.9839C70.2804 97.1002 70.2641 97.2183 70.2182 97.3262C70.1722 97.4341 70.0983 97.5278 70.004 97.5977" fill="black"/>
<path d="M88.1967 107.234C87.5234 109.682 87.2177 112.216 87.2894 114.753C87.3817 117.301 87.474 119.848 87.5816 122.426C87.5816 123.178 87.1356 123.592 86.2129 123.669C85.9543 123.723 85.6872 123.723 85.4286 123.669C84.8124 123.487 84.2688 123.116 83.8744 122.61C83.4799 122.103 83.2544 121.486 83.2295 120.845C83.1917 120.207 83.1917 119.566 83.2295 118.927C83.2694 118.304 83.2694 117.679 83.2295 117.055C83.2295 116.18 83.2295 114.876 83.3218 113.127C81.4848 115.215 79.2398 116.907 76.7244 118.099C76.3894 118.251 76.0304 118.345 75.6633 118.375C74.8845 118.389 74.1136 118.216 73.4152 117.872C72.7169 117.528 72.1114 117.021 71.6496 116.395C70.8973 115.54 70.4487 114.462 70.3732 113.326C70.289 111.963 70.424 110.596 70.773 109.275C72.0301 104.006 74.1556 98.9807 77.0628 94.406C78.6006 91.9508 80.0154 90.6618 81.3687 90.539C82.722 90.4163 83.2757 90.8153 83.5063 91.7053C83.6151 92.0119 83.6131 92.3468 83.5008 92.6522C83.3885 92.9575 83.1729 93.2142 82.8912 93.3779C81.8916 94.0377 81.3533 94.406 81.3533 94.4674C78.8428 97.9542 76.8487 101.784 75.4327 105.838C74.4991 108.156 74.0743 110.647 74.187 113.142C74.187 113.526 74.2793 113.925 74.3408 114.308C74.3408 114.308 74.51 114.462 74.6484 114.707C74.7868 114.953 74.9713 115.014 75.1712 114.907C78.2226 112.98 80.9958 110.647 83.4141 107.971C83.8523 107.326 84.1412 106.592 84.2599 105.823C84.3132 105.448 84.496 105.103 84.7767 104.848C85.0574 104.593 85.4185 104.444 85.7977 104.426C85.567 104.426 85.7977 104.426 86.5051 104.273C86.8588 104.181 87.1049 104.273 87.2433 104.38C87.7679 104.931 88.1297 105.616 88.289 106.36C88.3037 106.655 88.2673 106.951 88.1814 107.234" fill="black"/>
<path d="M108.158 114.539C108.363 114.92 108.494 115.336 108.542 115.766C108.568 116.066 108.527 116.368 108.42 116.649C108.314 116.931 108.145 117.185 107.927 117.393C107.451 117.884 107.128 118.129 106.943 118.114C105.405 117.976 104.421 116.886 103.867 114.83C103.358 112.941 102.689 111.098 101.868 109.321L98.7925 109.858C97.8045 110.029 96.8894 110.489 96.1628 111.178C95.7899 112.845 95.5025 114.53 95.3016 116.227C95.0984 117.95 94.7537 119.654 94.2712 121.321C94.0867 121.874 93.5946 122.073 92.7334 121.904C91.8722 121.735 91.1955 121.26 91.0417 120.707C90.9014 119.15 91.0954 117.581 91.6107 116.104C92.1707 114.561 92.5274 112.951 92.6719 111.316C92.6719 111.04 92.4566 110.764 92.0106 110.472C91.5646 110.181 91.3186 109.951 91.3032 109.766C91.3075 109.589 91.3666 109.418 91.4723 109.275C91.7208 109.027 92.036 108.857 92.3797 108.784C92.8564 108.646 93.1178 108.462 93.164 108.247C93.5638 106.713 94.1636 103.864 94.9632 99.7001C95.4427 96.8843 96.0793 94.0974 96.8702 91.3524C96.9459 91.1344 97.0901 90.9466 97.2812 90.8167C97.4723 90.6868 97.7002 90.6218 97.9313 90.6312C98.3382 90.5886 98.7471 90.692 99.0846 90.9228C100.066 91.6867 100.742 92.7749 100.992 93.9918C101.284 95.204 101.561 96.4009 101.822 97.6132C103.575 103.382 105.691 109.035 108.158 114.539ZM100.838 106.575C100.616 105.337 100.307 104.117 99.9151 102.923C99.5152 101.756 99.1154 100.59 98.7463 99.4239C98.0697 101.971 97.516 104.529 97.0855 107.096C98.3256 106.863 99.5786 106.704 100.838 106.621" fill="black"/>
<path d="M126.474 87.7156C126.474 91.7359 126.381 95.787 126.351 99.8534C126.289 104.672 126.397 108.677 126.674 111.869C126.786 112.892 126.909 113.915 127.043 114.938C127.079 115.169 127.062 115.405 126.992 115.628C126.923 115.852 126.803 116.056 126.643 116.226C126.492 116.413 126.306 116.567 126.094 116.68C125.883 116.794 125.651 116.864 125.413 116.886C124.49 116.963 123.659 116.411 122.921 115.214C119.674 109.769 116.762 104.132 114.202 98.3343C114.125 98.1655 114.032 98.0734 113.94 98.0888C113.848 98.1041 113.617 98.3343 113.602 98.7486C113.486 103.265 113.64 107.785 114.063 112.283C114.263 114.554 114.54 116.886 114.863 119.203C114.947 119.538 114.936 119.889 114.83 120.218C114.724 120.546 114.527 120.838 114.263 121.06C114.187 121.164 114.09 121.251 113.979 121.317C113.868 121.383 113.745 121.426 113.617 121.444C113.329 121.442 113.044 121.374 112.787 121.244L111.91 120.922C111.51 120.83 111.234 120.492 111.095 119.909C110.957 119.326 110.941 118.943 110.865 118.375C110.618 116.718 110.419 114.968 110.249 113.158C109.973 109.996 109.793 106.027 109.711 101.25C109.609 94.0172 109.557 90.0122 109.557 89.2347C109.557 88.5749 110.049 88.2066 111.095 88.0992C111.603 87.9918 112.372 88.2987 113.433 89.0199C115.076 91.7618 116.53 94.6123 117.785 97.5517C119.05 100.526 120.552 103.394 122.275 106.13C122.352 102.124 122.521 96.0632 122.737 87.9457C122.737 87.3473 123.183 87.0097 123.967 86.933C124.284 86.898 124.604 86.898 124.92 86.933L125.782 87.0711C125.928 87.1101 126.063 87.1833 126.175 87.2847C126.287 87.3861 126.374 87.5128 126.427 87.6542" fill="black"/>
<path d="M57.486 45.8084C55.1456 52.0661 53.194 58.4617 51.6422 64.9589C50.6439 69.4131 49.9096 73.9221 49.4431 78.4625C48.9649 83.0685 48.1477 87.6332 46.998 92.1195C46.8452 92.3437 46.6446 92.5315 46.4107 92.6695C46.1768 92.8074 45.9152 92.8921 45.6447 92.9175C44.7387 92.9059 43.8562 92.6284 43.1072 92.1195C39.9451 85.6082 37.2522 78.8803 35.0489 71.9869C32.8344 64.9728 29.9773 58.177 26.5139 51.6855C27.006 50.504 27.452 49.8902 27.8518 49.8595C28.1609 49.6318 28.5295 49.4985 28.9129 49.4759C30.354 49.6675 31.7208 50.2278 32.8806 51.1024C35.1653 55.3525 37.1489 59.757 38.8166 64.2838C40.416 68.8259 42.0307 73.3373 43.6608 77.818C44.8194 72.2222 45.9881 66.5497 47.1671 60.8004C48.368 55.1632 49.9086 49.6033 51.7806 44.1512C52.0702 43.5253 52.5769 43.0251 53.2073 42.743C53.8377 42.461 54.5491 42.4161 55.21 42.6167C55.4833 42.7048 55.7313 42.8574 55.9328 43.0617C56.0733 43.1956 56.2402 43.2989 56.4229 43.365C56.6056 43.431 56.8001 43.4584 56.9939 43.4453C57.3938 43.4453 57.6244 43.7522 57.686 44.366C57.7281 44.837 57.6542 45.3111 57.4707 45.747" fill="black"/>
<path d="M66.9284 49.5986C67.1283 50.9029 67.2975 52.2533 67.4205 53.6497C67.6973 56.7187 67.805 61.3682 67.7435 67.5982C67.6819 73.8283 67.7793 78.529 68.0356 81.7003C68.1433 82.8818 68.2817 84.0174 68.4201 85.1529C68.3302 85.7382 68.0288 86.2704 67.5727 86.6492C67.1166 87.028 66.5373 87.2272 65.9442 87.2091C63.986 87.3012 62.848 86.5646 62.5302 84.9994C62.2176 83.3459 62.0019 81.6756 61.8843 79.997C61.5846 75.3994 61.5435 70.7887 61.7613 66.1865C61.9659 61.5841 61.9249 56.9741 61.6382 52.376C61.5306 51.1945 61.3768 50.059 61.1769 48.9388C61.3519 48.4958 61.6538 48.114 62.0449 47.8411C62.436 47.5682 62.8989 47.4163 63.376 47.4043C64.2691 47.3585 65.159 47.5435 65.9596 47.9414C66.0642 47.8276 66.1967 47.743 66.344 47.6958C66.4824 47.6958 66.5593 47.9107 66.6055 48.3557C66.5772 48.6758 66.6085 48.9983 66.6977 49.3071C66.6977 49.4298 66.8208 49.5219 66.9284 49.5526" fill="black"/>
<path d="M100.407 41.9416C98.0589 48.1928 96.1021 54.5835 94.548 61.0768C93.558 65.5318 92.8289 70.0406 92.3643 74.5803C91.8824 79.1869 91.06 83.7517 89.9037 88.2373C89.7525 88.4631 89.5524 88.652 89.3182 88.7901C89.0839 88.9282 88.8215 89.012 88.5504 89.0353C87.6473 89.0204 86.7671 88.7489 86.013 88.2527C82.861 81.7336 80.1733 75.0009 77.9701 68.1047C75.7486 61.0908 72.8864 54.2951 69.4197 47.8034C69.9118 46.6218 70.3578 46.0233 70.7576 45.9773C71.0627 45.7354 71.431 45.5863 71.8187 45.5476C73.2718 45.752 74.6454 46.3341 75.8017 47.2356C78.0722 51.4831 80.0453 55.8822 81.707 60.4016C83.3064 64.9437 84.9262 69.4602 86.5666 73.9512C87.7354 68.294 88.9041 62.6164 90.0729 56.9183C91.2833 51.2802 92.8342 45.7203 94.7172 40.269C95.0088 39.6486 95.5134 39.1528 96.1396 38.8713C96.7658 38.5899 97.4722 38.5413 98.1312 38.7345C98.3905 38.8456 98.6178 39.0197 98.7924 39.2409C98.9345 39.3726 99.1016 39.4744 99.2839 39.5403C99.4662 39.6062 99.6599 39.6348 99.8536 39.6245C100.269 39.6245 100.499 39.916 100.561 40.5452C100.586 41.0205 100.513 41.4959 100.346 41.9416" fill="black"/>
<path d="M109.834 45.7165C110.039 47.026 110.208 48.3763 110.342 49.7676C110.618 52.8366 110.721 57.4861 110.649 63.7162C110.577 69.9462 110.685 74.6418 110.972 77.8028C111.08 78.9844 111.203 80.1199 111.357 81.2554C111.263 81.842 110.959 82.3745 110.5 82.7531C110.042 83.1316 109.46 83.3302 108.865 83.3117C106.928 83.4037 105.79 82.6672 105.467 81.102C105.124 79.4554 104.877 77.7902 104.729 76.1149C104.429 71.5173 104.388 66.9066 104.605 62.3044C104.826 57.7023 104.785 53.0914 104.482 48.494C104.375 47.3277 104.221 46.1769 104.036 45.0567C104.204 44.6114 104.501 44.2267 104.891 43.953C105.28 43.6792 105.744 43.5291 106.22 43.5222C107.131 43.4554 108.044 43.6301 108.865 44.0286C108.97 43.9148 109.102 43.8302 109.25 43.7831C109.388 43.7831 109.48 43.9979 109.527 44.4429C109.505 44.7621 109.531 45.0827 109.603 45.3943C109.647 45.5022 109.729 45.5899 109.834 45.6398" fill="black"/>
<path d="M125.735 61.752C123.167 67.4143 131.302 72.0792 134.839 67.0921C139.591 60.1868 128.688 55.1537 125.735 61.752Z" fill="black"/>
<path d="M138.084 56.3964C134.839 60.1252 134.47 59.7416 137.684 56.0588C139.007 54.5243 139.422 54.8466 138.084 56.3964Z" fill="black"/>
<path d="M139.484 56.8876C137.023 59.2814 132.21 63.2404 139.115 56.504C141.145 54.5245 141.514 54.8927 139.484 56.8876Z" fill="black"/>
<path d="M139.776 58.4988C135.378 61.8901 135.085 61.4297 139.453 58.0692C141.268 56.6728 141.606 57.0871 139.776 58.4988Z" fill="black"/>
<path d="M137.869 60.8927C136.869 61.3838 136.623 61.3224 137.669 60.5705C140.745 58.3608 142.759 58.5603 137.869 60.8927Z" fill="black"/>
<path d="M141.514 60.5549C132.902 63.6239 137.269 61.5063 141.329 60.0485C144.051 59.0818 144.22 59.5728 141.514 60.5549Z" fill="black"/>
<path d="M141.852 62.3963C135.701 63.4705 135.531 62.9487 141.76 61.8593C144.328 61.4142 144.42 61.9513 141.852 62.3963Z" fill="black"/>
<path d="M140.637 63.8235C136.546 63.9155 136.531 63.3784 140.637 63.2864C142.344 63.2864 142.359 63.7774 140.637 63.8235Z" fill="black"/>
<path d="M138.023 64.6215C136.485 64.4373 136.27 64.2532 138.023 64.2532C144.42 64.2532 144.174 65.4347 138.023 64.6215Z" fill="black"/>
<path d="M141.96 66.4476C132.579 64.1151 138.884 65.1125 142.083 65.9258C144.851 66.6164 144.712 67.1381 141.96 66.4476Z" fill="black"/>
<path d="M138.054 66.7851C136.685 66.0026 136.946 65.9412 138.207 66.4476C142.944 68.2736 143.421 69.8081 138.054 66.7851Z" fill="black"/>
<path d="M140.606 69.2709C141.79 70.0228 142.375 70.3911 142.329 70.5292C142.021 71.4192 130.026 62.5651 140.606 69.2709Z" fill="black"/>
<path d="M136.177 55.8134C133.901 59.7264 133.455 59.4195 135.716 55.5526C136.639 53.9413 137.115 54.1869 136.177 55.8134Z" fill="black"/>
<path d="M135.147 53.6498C132.579 59.9566 132.071 59.7878 134.655 53.4503C135.716 50.811 136.193 51.0258 135.147 53.6498Z" fill="black"/>
<path d="M132.21 57.7775C131.964 57.7775 132.933 52.1459 133.317 52.1919C133.701 52.238 132.44 57.8082 132.21 57.7775Z" fill="black"/>
<path d="M131.395 52.5449C131.395 58.6829 130.856 58.6829 130.856 52.5449C130.856 50.013 131.395 50.013 131.395 52.5449Z" fill="black"/>
<path d="M129.841 53.5577C130.441 58.913 129.841 59.0051 129.319 53.5577C129.057 51.3326 129.595 51.2866 129.841 53.5577Z" fill="black"/>
<path d="M128.95 58.1766C128.78 58.1766 126.643 51.9005 127.012 51.7624C127.381 51.6243 129.257 58.0999 128.95 58.1766Z" fill="black"/>
<path d="M127.212 56.6113C128.488 59.6803 126.781 56.9028 125.443 53.8339C124.628 51.9771 124.305 49.8288 127.212 56.6113Z" fill="black"/>
<path d="M125.52 55.7674C126.827 57.8543 128.38 61.3683 125.059 56.0436C124.075 54.5091 124.536 54.1561 125.52 55.7674Z" fill="black"/>
<path d="M124.136 56.1203C128.965 62.4578 125.336 58.5908 123.705 56.4425C122.291 54.5858 122.721 54.2635 124.136 56.1203Z" fill="black"/>
<path d="M125.428 59.7111C125.305 59.8339 120.276 55.7521 120.538 55.4299C120.799 55.1076 125.674 59.4656 125.428 59.7111Z" fill="black"/>
<path d="M125.351 60.601C125.259 60.7545 120.199 58.2532 120.368 57.885C120.538 57.5167 125.536 60.3095 125.351 60.601Z" fill="black"/>
<path d="M121.86 60.0948C126.335 61.9822 126.135 62.4732 121.645 60.5858C119.784 59.8186 119.999 59.3122 121.86 60.0948Z" fill="black"/>
<path d="M119.799 60.8313C127.934 63.4553 122.629 62.3658 119.646 61.3377C117.539 60.6625 117.077 59.9567 119.799 60.8313Z" fill="black"/>
<path d="M120.445 62.9641C119.353 62.8413 118.815 62.6572 118.907 62.5344C118.907 61.7825 130.364 64.0689 120.445 62.9641Z" fill="black"/>
<path d="M121.122 63.6241C125.935 63.6241 125.92 64.1919 121.122 64.1612C119.123 64.1612 119.123 63.6087 121.122 63.6241Z" fill="black"/>
<path d="M124.044 64.8976C124.044 65.2045 117.569 66.0638 117.554 65.5114C117.539 64.959 124.028 64.7288 124.044 64.8976Z" fill="black"/>
<path d="M120.707 66.4474C125.797 64.9129 125.951 65.3732 120.861 66.9691C118.754 67.6289 118.6 67.1225 120.707 66.4474Z" fill="black"/>
<path d="M121.752 67.3988C126.135 65.4193 126.366 65.8643 121.968 67.8898C120.153 68.7031 119.922 68.2121 121.752 67.3988Z" fill="black"/>
<path d="M120.83 69.5012C126.089 66.4322 126.397 66.8158 121.107 69.9615C118.907 71.2659 118.646 70.8055 120.83 69.5012Z" fill="black"/>
<path d="M125.966 68.0895C126.166 68.3197 121.845 72.0485 121.568 71.6342C121.291 71.2199 125.828 67.9207 125.966 68.0895Z" fill="black"/>
<path d="M125.889 69.6393C127.058 68.3657 127.427 68.1048 126.181 69.8848C120.768 77.189 121.891 73.9973 125.889 69.6393Z" fill="black"/>
<path d="M126.92 70.7594C127.581 69.8234 128.011 69.4551 127.227 70.9589C124.044 77.0048 124.474 74.1046 126.92 70.7594Z" fill="black"/>
<path d="M127.381 74.5649C127.012 75.8385 126.735 76.4677 126.612 76.437C125.843 76.2682 130.764 63.0255 127.381 74.5649Z" fill="black"/>
<path d="M128.657 74.0279C129.841 68.5191 130.364 68.6419 129.196 74.1354C128.703 76.4064 128.181 76.3143 128.657 74.0279Z" fill="black"/>
<path d="M130.18 75.2402C130.38 68.9487 130.918 68.9641 130.718 75.2402C130.641 77.8488 130.103 77.8335 130.18 75.2402Z" fill="black"/>
<path d="M131.487 70.2378C131.718 70.2378 132.61 75.7466 132.21 75.8387C131.81 75.9308 131.21 70.2685 131.487 70.2378Z" fill="black"/>
<path d="M132.625 73.3987C131.948 70.3297 131.825 67.2607 133.148 73.2759C133.563 75.2401 133.025 75.3321 132.625 73.3987Z" fill="black"/>
<path d="M134.394 74.7185C133.655 72.7083 131.733 65.9412 134.901 74.5344C135.839 77.0817 135.209 76.9435 134.394 74.7185Z" fill="black"/>
<path d="M135.701 72.9998C133.071 68.3963 133.532 68.1047 136.177 72.7389C137.269 74.657 136.793 74.9179 135.701 72.9998Z" fill="black"/>
<path d="M134.67 68.5343C134.87 68.3656 139.591 73.8284 139.284 74.1046C138.976 74.3808 134.486 68.7031 134.67 68.5343Z" fill="black"/>
<path d="M138.253 71.2812C135.808 69.0409 133.963 66.6777 138.607 70.8823C140.253 72.4168 139.591 72.5088 138.253 71.2812Z" fill="black"/>
<path d="M136.008 67.5369C136.147 67.3681 139.945 70.2683 139.684 70.6059C139.422 70.9435 135.824 67.767 136.008 67.5369Z" fill="black"/>
</svg>
