<svg xmlns="http://www.w3.org/2000/svg" viewBox="0 0 76.46 57.47"><defs><style>.cls-1{fill:#fef608;}</style></defs><title>Recurso 1</title><g id="Capa_2" data-name="Capa 2"><g id="Capa_1-2" data-name="Capa 1"><path class="cls-1" d="M17.47,37.16A70.87,70.87,0,0,0,15,45.42,48.16,48.16,0,0,0,14,51.23,40.75,40.75,0,0,1,13,57.12a.79.79,0,0,1-.58.35,2,2,0,0,1-1.09-.35,65.15,65.15,0,0,1-3.46-8.68,51.55,51.55,0,0,0-3.68-8.75c.21-.51.4-.77.58-.78a.77.77,0,0,1,.45-.19,3.64,3.64,0,0,1,1.71.72,45,45,0,0,1,2.55,5.68c.68,2,1.38,3.9,2.08,5.84.51-2.44,1-4.88,1.51-7.34a61.12,61.12,0,0,1,2-7.18,1.23,1.23,0,0,1,1.47-.63.73.73,0,0,1,.31.19.64.64,0,0,0,.46.17c.17,0,.27.12.3.4a1.39,1.39,0,0,1-.1.59"/><path class="cls-1" d="M28.25,38.36a31.74,31.74,0,0,1-3.08,1.31A31.06,31.06,0,0,0,22.08,41,15.34,15.34,0,0,0,22,44.39a2.94,2.94,0,0,0,1.09.08,8.08,8.08,0,0,0,1.36-.27,11.2,11.2,0,0,1,1.36-.27,2.66,2.66,0,0,1,1.43.23,2,2,0,0,1,.48.72.37.37,0,0,1-.18.34,3,3,0,0,0-.37.44.67.67,0,0,1-.56.29,13.1,13.1,0,0,1-2.23.38,6.64,6.64,0,0,0-2.16.54A14.91,14.91,0,0,0,22,50.33a3.22,3.22,0,0,0,.35,1.32c1,.56,2.58.69,4.83.39a.8.8,0,0,0,.48-.26.78.78,0,0,1,.41-.26c.54-.17.93.21,1.19,1.13a1.15,1.15,0,0,1-.08.87.87.87,0,0,1-.67.49,22,22,0,0,1-6.18,0,3.09,3.09,0,0,1-1.57-.77,2.63,2.63,0,0,1-.9-1.51,19.81,19.81,0,0,1-.41-4.54c-.58-.32-.85-.66-.83-1,0-.17.14-.35.41-.52s.42-.34.44-.5,0-1.08,0-2.79c-1.1-.11-1.68-.47-1.71-1.08a1.58,1.58,0,0,1,.9-1.43l1.8-.93a14.72,14.72,0,0,1,2.65-1.24c.91-.33,1.83-.66,2.76-1a1.48,1.48,0,0,1,.35-.06,3.82,3.82,0,0,1,1.89.44c0,.08.09.22.18.43a1.63,1.63,0,0,1,.16.45.43.43,0,0,1-.17.4"/><path class="cls-1" d="M40.11,44.64a16.73,16.73,0,0,0-.59,4.9c.06,1.66.12,3.32.19,5,0,.49-.29.76-.89.81a1.24,1.24,0,0,1-.51,0,2,2,0,0,1-1.43-1.84,10.6,10.6,0,0,1,0-1.25,9.57,9.57,0,0,0,0-1.22c0-.57,0-1.42.06-2.56a13.3,13.3,0,0,1-4.29,3.24,2.07,2.07,0,0,1-.69.18,3.17,3.17,0,0,1-2.61-1.29,3.37,3.37,0,0,1-.83-2,8.34,8.34,0,0,1,.26-2.64,31.88,31.88,0,0,1,4.09-9.69c1-1.6,1.92-2.44,2.8-2.52s1.24.18,1.39.76a.91.91,0,0,1-.4,1.09c-.65.43-1,.67-1,.71a29.13,29.13,0,0,0-3.85,7.41A11.39,11.39,0,0,0,31,48.49c0,.25.06.51.1.76,0,0,.11.1.2.26s.21.2.34.13A25.78,25.78,0,0,0,37,45.12a3.42,3.42,0,0,0,.55-1.4,1.06,1.06,0,0,1,1-.91c-.15,0,0,0,.46-.1.23-.06.39,0,.48.07a2.69,2.69,0,0,1,.68,1.29,1.68,1.68,0,0,1-.07.57"/><path class="cls-1" d="M53.09,49.4a2.21,2.21,0,0,1,.25.8,1.31,1.31,0,0,1-.4,1.06c-.31.32-.52.48-.64.47-1-.09-1.64-.8-2-2.14A22.54,22.54,0,0,0,49,46l-2,.35a3.3,3.3,0,0,0-1.71.86,32.75,32.75,0,0,0-.56,3.29,20.67,20.67,0,0,1-.67,3.32c-.12.36-.44.49-1,.38s-1-.42-1.1-.78a7.17,7.17,0,0,1,.37-3,12.35,12.35,0,0,0,.69-3.12c0-.18-.14-.36-.43-.55s-.45-.34-.46-.46a.56.56,0,0,1,.11-.32,1.18,1.18,0,0,1,.59-.32c.31-.09.48-.21.51-.35q.39-1.5,1.17-5.57a50,50,0,0,1,1.24-5.44.7.7,0,0,1,.69-.47,1.12,1.12,0,0,1,.75.19,3.4,3.4,0,0,1,1.24,2c.19.79.37,1.57.54,2.36A93.36,93.36,0,0,0,53.09,49.4m-4.76-5.19a17.63,17.63,0,0,0-.6-2.38c-.26-.76-.52-1.52-.76-2.28q-.66,2.49-1.08,5a20.53,20.53,0,0,1,2.44-.31"/><path class="cls-1" d="M65,31.92c0,2.62-.06,5.26-.08,7.91q-.06,4.71.21,7.83.11,1,.24,2a1,1,0,0,1-.26.84,1.17,1.17,0,0,1-.8.43c-.6.05-1.14-.31-1.62-1.09a101.59,101.59,0,0,1-5.67-11c-.05-.11-.11-.17-.17-.16s-.21.16-.22.43a74,74,0,0,0,.3,8.82c.13,1.48.31,3,.52,4.51a1.2,1.2,0,0,1-.39,1.21.63.63,0,0,1-.42.25,1.21,1.21,0,0,1-.54-.13l-.57-.21c-.26-.06-.44-.28-.53-.66s-.1-.63-.15-1c-.16-1.08-.29-2.22-.4-3.4q-.27-3.09-.35-7.76Q54,33.67,54,32.91c0-.43.32-.67,1-.74.33-.07.83.13,1.52.6a45.8,45.8,0,0,1,2.83,5.56,39.46,39.46,0,0,0,2.92,5.59c.05-2.61.16-6.56.3-11.85,0-.39.29-.61.8-.66a2.82,2.82,0,0,1,.62,0l.56.09a.62.62,0,0,1,.42.38"/><path class="cls-1" d="M20.14,4.61a105.92,105.92,0,0,0-3.8,12.48,75.68,75.68,0,0,0-1.43,8.8,61.51,61.51,0,0,1-1.59,8.9,1.2,1.2,0,0,1-.88.52,3,3,0,0,1-1.65-.52A99.22,99.22,0,0,1,5.55,21.67,78.08,78.08,0,0,0,0,8.44c.32-.77.61-1.17.87-1.19A1.29,1.29,0,0,1,1.56,7,5.48,5.48,0,0,1,4.14,8.06,67.29,67.29,0,0,1,8,16.65q1.56,4.44,3.15,8.82Q12.28,20,13.43,14.38a93.37,93.37,0,0,1,3-10.85,1.86,1.86,0,0,1,2.23-1,1.16,1.16,0,0,1,.47.29.91.91,0,0,0,.69.25q.39,0,.45.6a1.89,1.89,0,0,1-.14.9"/><path class="cls-1" d="M26.28,7.08c.13.85.24,1.73.32,2.64q.27,3,.21,9.09T27,28c.07.77.16,1.51.25,2.25a1.58,1.58,0,0,1-1.61,1.34q-1.91.09-2.22-1.44A28.2,28.2,0,0,1,23,26.89a80.31,80.31,0,0,1-.08-9,84.57,84.57,0,0,0-.08-9c-.07-.77-.17-1.51-.3-2.24a1.58,1.58,0,0,1,1.43-1A3.38,3.38,0,0,1,25.65,6a.58.58,0,0,1,.25-.16c.09,0,.14.14.17.43a1.7,1.7,0,0,0,.06.62c0,.08.08.14.15.16"/><path class="cls-1" d="M48.05,2.09a105.05,105.05,0,0,0-3.81,12.47,76.6,76.6,0,0,0-1.42,8.8,61.26,61.26,0,0,1-1.6,8.9,1.18,1.18,0,0,1-.88.52,3.09,3.09,0,0,1-1.65-.51,100.39,100.39,0,0,1-5.23-13.13A78.32,78.32,0,0,0,27.9,5.91c.32-.77.61-1.16.87-1.19a1.32,1.32,0,0,1,.69-.28,5.44,5.44,0,0,1,2.59,1.1,68,68,0,0,1,3.84,8.58q1.56,4.44,3.16,8.83,1.14-5.53,2.28-11.1A93.23,93.23,0,0,1,44.35,1a1.87,1.87,0,0,1,2.22-1A1.1,1.1,0,0,1,47,.33a.94.94,0,0,0,.69.25c.27,0,.42.19.46.6a2.25,2.25,0,0,1-.14.91"/><path class="cls-1" d="M54.18,4.55q.2,1.28.33,2.64.27,3,.2,9.09t.21,9.18c.07.77.15,1.51.25,2.25a1.59,1.59,0,0,1-1.62,1.34c-1.26.06-2-.42-2.21-1.44a28.15,28.15,0,0,1-.48-3.25,80.31,80.31,0,0,1-.08-9,79.42,79.42,0,0,0-.08-9c-.07-.76-.17-1.51-.29-2.24a1.54,1.54,0,0,1,1.42-1,3.37,3.37,0,0,1,1.72.33.58.58,0,0,1,.25-.16c.09,0,.15.14.18.43a2.1,2.1,0,0,0,.05.62.3.3,0,0,0,.15.16"/><path class="cls-1" d="M17.47,37.16A70.87,70.87,0,0,0,15,45.42,48.16,48.16,0,0,0,14,51.23,40.75,40.75,0,0,1,13,57.12a.79.79,0,0,1-.58.35,2,2,0,0,1-1.09-.35,65.15,65.15,0,0,1-3.46-8.68,51.55,51.55,0,0,0-3.68-8.75c.21-.51.4-.77.58-.78a.77.77,0,0,1,.45-.19,3.64,3.64,0,0,1,1.71.72,45,45,0,0,1,2.55,5.68c.68,2,1.38,3.9,2.08,5.84.51-2.44,1-4.88,1.51-7.34a61.12,61.12,0,0,1,2-7.18,1.23,1.23,0,0,1,1.47-.63.73.73,0,0,1,.31.19.64.64,0,0,0,.46.17c.17,0,.27.12.3.4a1.39,1.39,0,0,1-.1.59"/><path class="cls-1" d="M28.25,38.36a31.74,31.74,0,0,1-3.08,1.31A31.06,31.06,0,0,0,22.08,41,15.34,15.34,0,0,0,22,44.39a2.94,2.94,0,0,0,1.09.08,8.08,8.08,0,0,0,1.36-.27,11.2,11.2,0,0,1,1.36-.27,2.66,2.66,0,0,1,1.43.23,2,2,0,0,1,.48.72.37.37,0,0,1-.18.34,3,3,0,0,0-.37.44.67.67,0,0,1-.56.29,13.1,13.1,0,0,1-2.23.38,6.64,6.64,0,0,0-2.16.54A14.91,14.91,0,0,0,22,50.33a3.22,3.22,0,0,0,.35,1.32c1,.56,2.58.69,4.83.39a.8.8,0,0,0,.48-.26.78.78,0,0,1,.41-.26c.54-.17.93.21,1.19,1.13a1.15,1.15,0,0,1-.08.87.87.87,0,0,1-.67.49,22,22,0,0,1-6.18,0,3.09,3.09,0,0,1-1.57-.77,2.63,2.63,0,0,1-.9-1.51,19.81,19.81,0,0,1-.41-4.54c-.58-.32-.85-.66-.83-1,0-.17.14-.35.41-.52s.42-.34.44-.5,0-1.08,0-2.79c-1.1-.11-1.68-.47-1.71-1.08a1.58,1.58,0,0,1,.9-1.43l1.8-.93a14.72,14.72,0,0,1,2.65-1.24c.91-.33,1.83-.66,2.76-1a1.48,1.48,0,0,1,.35-.06,3.82,3.82,0,0,1,1.89.44c0,.08.09.22.18.43a1.63,1.63,0,0,1,.16.45.43.43,0,0,1-.17.4"/><path class="cls-1" d="M40.11,44.64a16.73,16.73,0,0,0-.59,4.9c.06,1.66.12,3.32.19,5,0,.49-.29.76-.89.81a1.24,1.24,0,0,1-.51,0,2,2,0,0,1-1.43-1.84,10.6,10.6,0,0,1,0-1.25,9.57,9.57,0,0,0,0-1.22c0-.57,0-1.42.06-2.56a13.3,13.3,0,0,1-4.29,3.24,2.07,2.07,0,0,1-.69.18,3.17,3.17,0,0,1-2.61-1.29,3.37,3.37,0,0,1-.83-2,8.34,8.34,0,0,1,.26-2.64,31.88,31.88,0,0,1,4.09-9.69c1-1.6,1.92-2.44,2.8-2.52s1.24.18,1.39.76a.91.91,0,0,1-.4,1.09c-.65.43-1,.67-1,.71a29.13,29.13,0,0,0-3.85,7.41A11.39,11.39,0,0,0,31,48.49c0,.25.06.51.1.76,0,0,.11.1.2.26s.21.2.34.13A25.78,25.78,0,0,0,37,45.12a3.42,3.42,0,0,0,.55-1.4,1.06,1.06,0,0,1,1-.91c-.15,0,0,0,.46-.1.23-.06.39,0,.48.07a2.69,2.69,0,0,1,.68,1.29,1.68,1.68,0,0,1-.07.57"/><path class="cls-1" d="M53.09,49.4a2.21,2.21,0,0,1,.25.8,1.31,1.31,0,0,1-.4,1.06c-.31.32-.52.48-.64.47-1-.09-1.64-.8-2-2.14A22.54,22.54,0,0,0,49,46l-2,.35a3.3,3.3,0,0,0-1.71.86,32.75,32.75,0,0,0-.56,3.29,20.67,20.67,0,0,1-.67,3.32c-.12.36-.44.49-1,.38s-1-.42-1.1-.78a7.17,7.17,0,0,1,.37-3,12.35,12.35,0,0,0,.69-3.12c0-.18-.14-.36-.43-.55s-.45-.34-.46-.46a.56.56,0,0,1,.11-.32,1.18,1.18,0,0,1,.59-.32c.31-.09.48-.21.51-.35q.39-1.5,1.17-5.57a50,50,0,0,1,1.24-5.44.7.7,0,0,1,.69-.47,1.12,1.12,0,0,1,.75.19,3.4,3.4,0,0,1,1.24,2c.19.79.37,1.57.54,2.36A93.36,93.36,0,0,0,53.09,49.4m-4.76-5.19a17.63,17.63,0,0,0-.6-2.38c-.26-.76-.52-1.52-.76-2.28q-.66,2.49-1.08,5a20.53,20.53,0,0,1,2.44-.31"/><path class="cls-1" d="M65,31.92c0,2.62-.06,5.26-.08,7.91q-.06,4.71.21,7.83.11,1,.24,2a1,1,0,0,1-.26.84,1.17,1.17,0,0,1-.8.43c-.6.05-1.14-.31-1.62-1.09a101.59,101.59,0,0,1-5.67-11c-.05-.11-.11-.17-.17-.16s-.21.16-.22.43a74,74,0,0,0,.3,8.82c.13,1.48.31,3,.52,4.51a1.2,1.2,0,0,1-.39,1.21.63.63,0,0,1-.42.25,1.21,1.21,0,0,1-.54-.13l-.57-.21c-.26-.06-.44-.28-.53-.66s-.1-.63-.15-1c-.16-1.08-.29-2.22-.4-3.4q-.27-3.09-.35-7.76Q54,33.67,54,32.91c0-.43.32-.67,1-.74.33-.07.83.13,1.52.6a45.8,45.8,0,0,1,2.83,5.56,39.46,39.46,0,0,0,2.92,5.59c.05-2.61.16-6.56.3-11.85,0-.39.29-.61.8-.66a2.82,2.82,0,0,1,.62,0l.56.09a.62.62,0,0,1,.42.38"/><path class="cls-1" d="M20.14,4.61a105.92,105.92,0,0,0-3.8,12.48,75.68,75.68,0,0,0-1.43,8.8,61.51,61.51,0,0,1-1.59,8.9,1.2,1.2,0,0,1-.88.52,3,3,0,0,1-1.65-.52A99.22,99.22,0,0,1,5.55,21.67,78.08,78.08,0,0,0,0,8.44c.32-.77.61-1.17.87-1.19A1.29,1.29,0,0,1,1.56,7,5.48,5.48,0,0,1,4.14,8.06,67.29,67.29,0,0,1,8,16.65q1.56,4.44,3.15,8.82Q12.28,20,13.43,14.38a93.37,93.37,0,0,1,3-10.85,1.86,1.86,0,0,1,2.23-1,1.16,1.16,0,0,1,.47.29.91.91,0,0,0,.69.25q.39,0,.45.6a1.89,1.89,0,0,1-.14.9"/><path class="cls-1" d="M26.28,7.08c.13.85.24,1.73.32,2.64q.27,3,.21,9.09T27,28c.07.77.16,1.51.25,2.25a1.58,1.58,0,0,1-1.61,1.34q-1.91.09-2.22-1.44A28.2,28.2,0,0,1,23,26.89a80.31,80.31,0,0,1-.08-9,84.57,84.57,0,0,0-.08-9c-.07-.77-.17-1.51-.3-2.24a1.58,1.58,0,0,1,1.43-1A3.38,3.38,0,0,1,25.65,6a.58.58,0,0,1,.25-.16c.09,0,.14.14.17.43a1.7,1.7,0,0,0,.06.62c0,.08.08.14.15.16"/><path class="cls-1" d="M48.05,2.09a105.05,105.05,0,0,0-3.81,12.47,76.6,76.6,0,0,0-1.42,8.8,61.26,61.26,0,0,1-1.6,8.9,1.18,1.18,0,0,1-.88.52,3.09,3.09,0,0,1-1.65-.51,100.39,100.39,0,0,1-5.23-13.13A78.32,78.32,0,0,0,27.9,5.91c.32-.77.61-1.16.87-1.19a1.32,1.32,0,0,1,.69-.28,5.44,5.44,0,0,1,2.59,1.1,68,68,0,0,1,3.84,8.58q1.56,4.44,3.16,8.83,1.14-5.53,2.28-11.1A93.23,93.23,0,0,1,44.35,1a1.87,1.87,0,0,1,2.22-1A1.1,1.1,0,0,1,47,.33a.94.94,0,0,0,.69.25c.27,0,.42.19.46.6a2.25,2.25,0,0,1-.14.91"/><path class="cls-1" d="M54.18,4.55q.2,1.28.33,2.64.27,3,.2,9.09t.21,9.18c.07.77.15,1.51.25,2.25a1.59,1.59,0,0,1-1.62,1.34c-1.26.06-2-.42-2.21-1.44a28.15,28.15,0,0,1-.48-3.25,80.31,80.31,0,0,1-.08-9,79.42,79.42,0,0,0-.08-9c-.07-.76-.17-1.51-.29-2.24a1.54,1.54,0,0,1,1.42-1,3.37,3.37,0,0,1,1.72.33.58.58,0,0,1,.25-.16c.09,0,.15.14.18.43a2.1,2.1,0,0,0,.05.62.3.3,0,0,0,.15.16"/><path class="cls-1" d="M64.52,15c-1.67,3.69,3.62,6.73,5.92,3.48,3.09-4.5-4-7.78-5.92-3.48"/><path class="cls-1" d="M72.55,11.51c-2.11,2.43-2.35,2.18-.26-.22.86-1,1.13-.79.26.22"/><path class="cls-1" d="M73.46,11.83c-1.6,1.56-4.73,4.14-.24-.25,1.32-1.29,1.56-1.05.24.25"/><path class="cls-1" d="M73.65,12.88c-2.86,2.21-3.05,1.91-.21-.28,1.18-.91,1.4-.64.21.28"/><path class="cls-1" d="M72.41,14.44c-.65.32-.81.28-.13-.21,2-1.44,3.31-1.31.13.21"/><path class="cls-1" d="M74.78,14.22c-5.6,2-2.76.62-.12-.33,1.77-.63,1.88-.31.12.33"/><path class="cls-1" d="M75,15.42c-4,.7-4.11.36-.06-.35,1.67-.29,1.73.06.06.35"/><path class="cls-1" d="M74.21,16.35c-2.66.06-2.67-.29,0-.35,1.11,0,1.12.32,0,.35"/><path class="cls-1" d="M72.51,16.87c-1-.12-1.14-.24,0-.24,4.16,0,4,.77,0,.24"/><path class="cls-1" d="M75.07,18.06c-6.1-1.52-2-.87.08-.34,1.8.45,1.71.79-.08.34"/><path class="cls-1" d="M72.53,18.28c-.89-.51-.72-.55.1-.22,3.08,1.19,3.39,2.19-.1.22"/><path class="cls-1" d="M74.19,19.9c.77.49,1.15.73,1.12.82-.2.58-8-5.19-1.12-.82"/><path class="cls-1" d="M71.31,11.13c-1.48,2.55-1.77,2.35-.3-.17.6-1.05.91-.89.3.17"/><path class="cls-1" d="M70.64,9.72c-1.67,4.11-2,4-.32-.13.69-1.72,1-1.58.32.13"/><path class="cls-1" d="M68.73,12.41c-.16,0,.47-3.67.72-3.64s-.57,3.66-.72,3.64"/><path class="cls-1" d="M68.2,9c0,4-.35,4-.35,0,0-1.65.35-1.65.35,0"/><path class="cls-1" d="M67.19,9.66c.39,3.49,0,3.55-.34,0-.17-1.45.18-1.48.34,0"/><path class="cls-1" d="M66.61,12.67c-.11,0-1.5-4.09-1.26-4.18s1.46,4.13,1.26,4.18"/><path class="cls-1" d="M65.48,11.65c.83,2-.28.19-1.15-1.81-.53-1.21-.74-2.61,1.15,1.81"/><path class="cls-1" d="M64.38,11.1c.85,1.36,1.86,3.65-.3.18-.64-1-.34-1.23.3-.18"/><path class="cls-1" d="M63.48,11.33c3.14,4.13.78,1.61-.28.21-.92-1.21-.64-1.42.28-.21"/><path class="cls-1" d="M64.32,13.67c-.08.08-3.35-2.58-3.18-2.79s3.34,2.63,3.18,2.79"/><path class="cls-1" d="M64.27,14.25c-.06.1-3.35-1.53-3.24-1.77s3.36,1.58,3.24,1.77"/><path class="cls-1" d="M62,13.92c2.91,1.23,2.78,1.55-.14.32-1.21-.5-1.07-.83.14-.32"/><path class="cls-1" d="M60.66,14.4c5.29,1.71,1.84,1-.1.33-1.37-.44-1.67-.9.1-.33"/><path class="cls-1" d="M61.08,15.79c-.71-.08-1.06-.2-1-.28,0-.49,7.45,1,1,.28"/><path class="cls-1" d="M61.52,16.22c3.13,0,3.12.37,0,.35-1.3,0-1.3-.36,0-.35"/><path class="cls-1" d="M63.42,17.05c0,.2-4.21.76-4.22.4s4.21-.51,4.22-.4"/><path class="cls-1" d="M61.25,18.06c3.31-1,3.41-.7.1.34-1.37.43-1.47.1-.1-.34"/><path class="cls-1" d="M61.93,18.68c2.85-1.29,3-1,.14.32-1.18.53-1.33.21-.14-.32"/><path class="cls-1" d="M61.33,20.05c3.42-2,3.62-1.75.18.3-1.43.85-1.6.55-.18-.3"/><path class="cls-1" d="M64.67,19.13c.13.15-2.68,2.58-2.86,2.31s2.77-2.42,2.86-2.31"/><path class="cls-1" d="M64.62,20.14c.76-.83,1-1,.19.16-3.52,4.76-2.79,2.68-.19-.16"/><path class="cls-1" d="M65.29,20.87c.43-.61.71-.85.2.13-2.07,3.94-1.79,2.05-.2-.13"/><path class="cls-1" d="M65.59,23.35c-.24.83-.42,1.24-.5,1.22-.5-.11,2.7-8.74.5-1.22"/><path class="cls-1" d="M66.42,23c.77-3.59,1.11-3.51.35.07-.32,1.48-.66,1.42-.35-.07"/><path class="cls-1" d="M67.41,23.79c.13-4.1.48-4.09.35,0-.05,1.7-.4,1.69-.35,0"/><path class="cls-1" d="M68.26,20.53c.15,0,.73,3.59.47,3.65s-.65-3.63-.47-3.65"/><path class="cls-1" d="M69,22.59c-.44-2-.52-4,.34-.08.27,1.28-.08,1.34-.34.08"/><path class="cls-1" d="M70.15,23.45c-.48-1.31-1.73-5.72.33-.12.61,1.66.2,1.57-.33.12"/><path class="cls-1" d="M71,22.33c-1.71-3-1.41-3.19.31-.17.71,1.25.4,1.42-.31.17"/><path class="cls-1" d="M70.33,19.42c.13-.11,3.2,3.45,3,3.63s-3.12-3.52-3-3.63"/><path class="cls-1" d="M72.66,21.21c-1.59-1.46-2.79-3,.23-.26,1.07,1,.64,1.06-.23.26"/><path class="cls-1" d="M71.2,18.77c.09-.11,2.56,1.78,2.39,2s-2.51-1.85-2.39-2"/></g></g></svg>