<svg xmlns="http://www.w3.org/2000/svg" xmlns:xlink="http://www.w3.org/1999/xlink" viewBox="0 0 618.2 495.96"><defs><style>.cls-1,.cls-6{fill:none;}.cls-2{clip-path:url(#clip-path);}.cls-3{fill:#7ec6e8;}.cls-4{fill:#1c1b1a;}.cls-5{fill:#fffffd;}.cls-6{stroke:#fffffd;stroke-miterlimit:10;stroke-width:10px;}</style><clipPath id="clip-path" transform="translate(-252.63 -289.52)"><rect class="cls-1" width="1080" height="1080"/></clipPath></defs><title>Recurso 5</title><g id="Capa_2" data-name="Capa 2"><g id="Capa_1-2" data-name="Capa 1"><g class="cls-2"><g class="cls-2"><path class="cls-3" d="M844.74,501.74c-12.11-8.77-27.55-12-42-14.52-11.06-1.9-23.23-5.58-35-6.81a43.76,43.76,0,0,0,5.62-9.53c8.07-18.71,4.5-41.65-14.4-51.31,4.21-8.46,8.22-17.81,6.59-27.19-2-11.56-9-21.26-18.63-27.91-11.22-7.77-29.13-7.83-41.89-1.29-1.64-6.51-5.61-13.13-8.65-16.15a28.5,28.5,0,0,0-35.46-3.89c-1.64-19.16-11.87-32.63-31.54-40.3-26.12-10.18-47.82-2.38-67.46,14.25-8.38-14.1-23-21-39.69-22-20-1.23-37.32,11.54-47,28.05-7.16-8.75-17.58-11-30-8.32-15.43,3.34-19.2,13.8-20.61,26.76-12.91-6.28-26.45-11.91-41.16-9.73-17.42,2.57-32.64,8-44.83,21.05-17.16,18.37-16.22,44-1.47,61.66-13.52.83-27.71,6.35-28,21.7-.28,13.27,9.08,26.82,22,30.94-11.81,15.6-17,35.59.82,49.66-22.93,5.86-43.59,24.63-58.14,41.47-11.07,12.81-27.58,38.16-18.58,56.25,10.64,21.38,40.6,3,52.68-7,12.29-10.11,21.18-22.77,28-36.61a193.75,193.75,0,0,0,5.42,40.12c8.33,35,25.92,67.48,48.93,95.08C437.65,763.07,514,791.7,587.61,784.34c69.15-6.91,131.86-42.11,168.51-101.38,31-50.17,34.32-109,17.36-163.06,27.91,32.21,70.67,73.09,93.14,39,12.86-19.5-6.47-46-21.88-57.16" transform="translate(-252.63 -289.52)"/><path class="cls-4" d="M597.26,774.33A317.17,317.17,0,0,0,598,728.5c-.48-9.06,0-18.13-2.78-26.57.72-.2,1.44-.42,2.17-.68,5.73-2,15.64-8.1,17.45-14.18,1.65-5.53-7-7.88-8.68-2.37-.9,3-10.9,7.85-13.73,8.86q-.75.26-1.5.45a4.61,4.61,0,0,0-5.49.69c-6.68,0-13.22-2.85-19.74-4.2-5.66-1.17-8.07,7.43-2.39,8.6,8.19,1.69,15.28,4.08,22.86,4.08,3.87,9.31,2.61,21.11,3.13,30.9a276.06,276.06,0,0,1-1.07,41.37l-1.12,9,9.44-1.12Z" transform="translate(-252.63 -289.52)"/><path class="cls-5" d="M776.77,458.82c2.61-15.76-2.69-32-17.81-39.72,4.21-8.46,8.22-17.82,6.59-27.19-2-11.56-9-21.26-18.64-27.92-11.21-7.76-29.12-7.82-41.88-1.28-1.64-6.51-5.61-13.13-8.65-16.15a28.5,28.5,0,0,0-35.47-3.89c-1.63-19.16-11.86-32.63-31.53-40.3-26.12-10.18-47.82-2.38-67.46,14.25-8.38-14.1-23-21-39.69-22-20-1.23-37.32,11.54-47,28-7.16-8.75-17.58-11-30-8.32-15.43,3.34-19.21,13.8-20.61,26.76-12.91-6.28-26.45-11.91-41.16-9.73-17.43,2.57-32.65,8-44.83,21-17.16,18.38-16.22,44-1.47,61.67-13.53.83-27.71,6.35-28,21.7-.28,13.27,9.08,26.82,22,30.94-11.44,15.12-16.65,34.35-.77,48.33a11.37,11.37,0,0,0,2.54,2.23c4.56,2.92,10.74,6.92,19.22,6a145.47,145.47,0,0,0,16.05,0,56.09,56.09,0,0,0,18.1-3.45c.41-.17.74-.35,1.09-.53a16.94,16.94,0,0,0,.1,2.24c.52,4.1,2.89,7.29,5.44,10.38,5.29,6.42,15.6,7.47,23.16,6.18,8.07-1.37,23-4.05,29.66-11.43,13.5,15.76,39.5,21.32,58.48,16.93,12.86-3,34.16-11.1,41.4-24.4,16.18,9.13,38.08,15.93,48.5-1.71,13.57,11.77,28.86,20,47.49,20.84,16.74.79,30.39-11.76,36.43-26.49,6.88,3.51,16.78,3,23.7,1.95,11.19-1.76,19.76-9.38,21.85-19.7A45.1,45.1,0,0,0,752.3,492a79.28,79.28,0,0,0,14.08-11.92l1.36-.12a43.76,43.76,0,0,0,5.62-9.53c.18-.41.35-.83.51-1.25a30.23,30.23,0,0,0,2.9-10.34" transform="translate(-252.63 -289.52)"/><path class="cls-6" d="M776.77,458.82c2.61-15.76-2.69-32-17.81-39.72,4.21-8.46,8.22-17.82,6.59-27.19-2-11.56-9-21.26-18.64-27.92-11.21-7.76-29.12-7.82-41.88-1.28-1.64-6.51-5.61-13.13-8.65-16.15a28.5,28.5,0,0,0-35.47-3.89c-1.63-19.16-11.86-32.63-31.53-40.3-26.12-10.18-47.82-2.38-67.46,14.25-8.38-14.1-23-21-39.69-22-20-1.23-37.32,11.54-47,28-7.16-8.75-17.58-11-30-8.32-15.43,3.34-19.21,13.8-20.61,26.76-12.91-6.28-26.45-11.91-41.16-9.73-17.43,2.57-32.65,8-44.83,21-17.16,18.38-16.22,44-1.47,61.67-13.53.83-27.71,6.35-28,21.7-.28,13.27,9.08,26.82,22,30.94-11.44,15.12-16.65,34.35-.77,48.33a11.37,11.37,0,0,0,2.54,2.23c4.56,2.92,10.74,6.92,19.22,6a145.47,145.47,0,0,0,16.05,0,56.09,56.09,0,0,0,18.1-3.45c.41-.17.74-.35,1.09-.53a16.94,16.94,0,0,0,.1,2.24c.52,4.1,2.89,7.29,5.44,10.38,5.29,6.42,15.6,7.47,23.16,6.18,8.07-1.37,23-4.05,29.66-11.43,13.5,15.76,39.5,21.32,58.48,16.93,12.86-3,34.16-11.1,41.4-24.4,16.18,9.13,38.08,15.93,48.5-1.71,13.57,11.77,28.86,20,47.49,20.84,16.74.79,30.39-11.76,36.43-26.49,6.88,3.51,16.78,3,23.7,1.95,11.19-1.76,19.76-9.38,21.85-19.7A45.1,45.1,0,0,0,752.3,492a79.28,79.28,0,0,0,14.08-11.92l1.36-.12a43.76,43.76,0,0,0,5.62-9.53c.18-.41.35-.83.51-1.25A30.23,30.23,0,0,0,776.77,458.82Z" transform="translate(-252.63 -289.52)"/><path class="cls-4" d="M455.39,590.17a9.06,9.06,0,0,0-2-.41c-3.48-.25-7.48,1.71-9,4.89a8.19,8.19,0,0,0-.67,2c-.06.17-.14.33-.19.51-.93,3.53.7,6.31,3.2,8.26a7.46,7.46,0,0,0,3.66,3.12,2.75,2.75,0,0,0,.28.19,4.32,4.32,0,0,0,3.69.3,8.14,8.14,0,0,0,4.41-1.91,8.9,8.9,0,0,0,1.92-1.45,6.7,6.7,0,0,0,2.41-3.54,7.15,7.15,0,0,0,.1-3.31c-.23-4.28-3.22-8.35-7.81-8.64" transform="translate(-252.63 -289.52)"/><path class="cls-4" d="M687.48,562.67a9,9,0,0,0-8-.84,10.54,10.54,0,0,0-2.37.3l-.34.1a9.34,9.34,0,0,0-4.07,2.19c-3.32,3.14-3.35,8.29-1.38,12.1a9.28,9.28,0,0,0,5.24,4.48l.18.08.42.14a10.62,10.62,0,0,0,3.73,1c10.26.77,14.94-14.1,6.61-19.6" transform="translate(-252.63 -289.52)"/></g></g></g></g></svg>