<svg width="209" height="210" viewBox="0 0 266 275" fill="none" xmlns="http://www.w3.org/2000/svg">
<circle cx="161" cy="170" r="105" fill="black"/>
<path d="M182 120.772H180.809L175.418 120.715H113.533C113.297 120.709 113.061 120.75 112.841 120.837C112.62 120.925 112.419 121.055 112.25 121.222C112.08 121.389 111.946 121.589 111.854 121.809C111.762 122.029 111.714 122.266 111.714 122.505V132.423C111.714 143.308 119.319 149.304 133.111 149.304L182 149.389C184.487 149.389 186.872 150.387 188.63 152.164C190.389 153.94 191.377 156.35 191.377 158.862C191.377 161.375 190.389 163.784 188.63 165.561C186.872 167.337 184.487 168.335 182 168.335H127.185C126.798 168.336 126.422 168.466 126.117 168.706C125.811 168.946 125.593 169.282 125.498 169.661L112.521 221.374C112.455 221.634 112.449 221.906 112.504 222.169C112.56 222.432 112.674 222.679 112.84 222.889C113.002 223.101 113.209 223.272 113.446 223.39C113.683 223.508 113.944 223.57 114.208 223.571H131.592C138.1 223.571 141.231 218.115 141.972 215.245L147.082 196.432H182C191.829 196.275 201.202 192.22 208.097 185.142C214.993 178.065 218.857 168.532 218.857 158.602C218.857 148.671 214.993 139.138 208.097 132.061C201.202 124.984 191.829 120.929 182 120.772V120.772Z" stroke="#FEF608" stroke-width="7" stroke-miterlimit="10"/>
</svg>
