<svg width="168" height="173" viewBox="0 0 168 173" fill="none" xmlns="http://www.w3.org/2000/svg">
<circle cx="102" cy="107" r="66" fill="#1D1D1B"/>
<path d="M115.2 76.0565H114.452L111.063 76.0208H72.1639C72.0152 76.0168 71.8671 76.043 71.7286 76.0977C71.59 76.1525 71.4637 76.2348 71.3571 76.3397C71.2505 76.4446 71.1658 76.57 71.108 76.7085C71.0502 76.847 71.0205 76.9958 71.0205 77.1462V83.3804C71.0205 90.222 75.8004 93.9911 84.4701 93.9911L115.2 94.0447C116.763 94.0447 118.262 94.672 119.368 95.7887C120.473 96.9053 121.094 98.4199 121.094 99.9991C121.094 101.578 120.473 103.093 119.368 104.209C118.262 105.326 116.763 105.953 115.2 105.953H80.7452C80.5019 105.954 80.2656 106.036 80.0735 106.187C79.8814 106.338 79.7445 106.549 79.6843 106.787L71.5274 139.292C71.4858 139.456 71.4823 139.627 71.517 139.792C71.5518 139.957 71.6239 140.112 71.7278 140.245C71.8296 140.377 71.96 140.485 72.1091 140.559C72.2582 140.634 72.422 140.673 72.5883 140.673H83.5153C87.6056 140.673 89.5741 137.244 90.0397 135.44L93.2518 123.614H115.2C121.378 123.515 127.27 120.967 131.604 116.518C135.938 112.069 138.367 106.077 138.367 99.8353C138.367 93.5932 135.938 87.6013 131.604 83.1526C127.27 78.704 121.378 76.1553 115.2 76.0565V76.0565Z" stroke="#F6A02A" stroke-width="7" stroke-miterlimit="10"/>
</svg>
