<svg xmlns="http://www.w3.org/2000/svg" xmlns:xlink="http://www.w3.org/1999/xlink" viewBox="0 0 434.85 480.82"><defs><style>.cls-1{fill:none;}.cls-2{clip-path:url(#clip-path);}.cls-3{fill:#f5df66;}.cls-4{fill:#1c1b1a;}.cls-5{fill:#da403f;}</style><clipPath id="clip-path" transform="translate(-319.03 -327.05)"><rect class="cls-1" width="1080" height="1080"/></clipPath></defs><title>Recurso 2</title><g id="Capa_2" data-name="Capa 2"><g id="Capa_1-2" data-name="Capa 1"><g class="cls-2"><g class="cls-2"><path class="cls-3" d="M728.48,489.83c-8.09-15-22.7-27.36-35.77-37.95-15.44-12.51-31.85-25-49.67-34s-36.86-7.63-55.95-11.39c-22.77-4.48-26.43-27.18-29.47-46.2-.48-3-3.32-3.65-5.55-2.64a4.41,4.41,0,0,0-5.17,1.62c-4,5.66-4.75,12.28-5.58,18.8a43.63,43.63,0,0,0-.89-4.52c-2.32-8.6-2.3-17.21-5.73-25.57-1.21-2.92-6.19-4.84-7.86-1-3.93,9-7.42,18-9.24,27.72-1.29,6.8-2.05,15.62-6.48,21.22-.26.33-2.66-12.74-2.66-14.6,0-3.71.35-7.44.55-11.15a133.28,133.28,0,0,0-3-37.32,4.38,4.38,0,0,0-.77-1.67c.24-4.45-7-6-8.48-1.17-3.41,11.11-8.14,20.92-13.67,31.13-6.17,11.4-9.48,23.94-16.46,35.08-6.24,9.95-16.15,15.36-26.43,20.34a213,213,0,0,0-32.14,19.13c-18,12.91-29.62,30.51-45,45.88C346.64,498,339.37,519,331.54,540.23a3.58,3.58,0,0,0,.17,3.15c-5,26.21-11.32,52.51-12.56,79.18-1.24,26.32,7.89,49.35,21.7,71.37,27.32,43.56,66.57,80.93,115.08,99.77,23.64,9.17,49.05,12,74.19,13.56,28.64,1.79,58.6,0,85.64-10.15,43.57-16.3,75.27-52.06,103-87.81a4,4,0,0,0,2.76-2c39.94-66,43.74-149.2,7-217.49" transform="translate(-319.03 -327.05)"/><path class="cls-4" d="M437.82,591.09a9.23,9.23,0,0,0-1.87.25,9.86,9.86,0,0,0-8,1.61c-3.46,2.57-4.12,6.75-3.51,10.75a8.53,8.53,0,0,0,3.79,5.82,10.46,10.46,0,0,0,2.72,2.4c3.68,2.27,9.44,1.88,12.89-.66,7.9-5.83,4.55-20.29-6-20.17" transform="translate(-319.03 -327.05)"/><path class="cls-4" d="M660,592.25a8.62,8.62,0,0,0-.64-.8,15.83,15.83,0,0,0-14.05-6.55c-6,.93-7.24,7.9-6,12.83a15.46,15.46,0,0,0,3,7.7c2.94,3.78,7.34,4.64,10.94,2.71,7.27-1.08,10.86-9.74,6.75-15.89" transform="translate(-319.03 -327.05)"/><path class="cls-5" d="M600.41,617.86a4.3,4.3,0,0,0-.35-2.16c-3.44-8-12.35-9.72-20.18-11.36-13.23-2.79-22.79-3.66-36.26-.55-12.06,2.8-32.92,7-33.24,22.57a3.86,3.86,0,0,0,3.55,4.07c5.19,6,13.54,8.31,20.07,12.93,7,5,13.65,8.07,18.88,15.34,3.52,4.9,6.57,10,10.34,14.71,2.56,3.21,7.08.24,7.34-3,1-12,7.54-23.34,16.2-31.5,4.88-4.6,9.54-9.07,12.33-15a3.86,3.86,0,0,0,1.56-3.24v-1.42a4.19,4.19,0,0,0-.24-1.4" transform="translate(-319.03 -327.05)"/></g></g></g></g></svg>