<svg width="372" height="230" viewBox="0 0 372 230" fill="none" xmlns="http://www.w3.org/2000/svg">
<ellipse cx="151.837" cy="136.461" rx="93.0843" ry="93.4382" fill="#BCCF00"/>
<path d="M105.435 141.764V167H113.787V160.448H117.279C123.831 160.448 127.611 156.92 127.611 150.8C127.611 145.04 123.831 141.764 117.279 141.764H105.435ZM113.787 148.1H116.847C118.647 148.1 119.691 149.18 119.691 151.052C119.691 152.996 118.647 154.112 116.847 154.112H113.787V148.1ZM144.622 167H154.054L149.086 158.792C151.678 157.208 153.082 154.472 153.082 150.8C153.082 145.04 149.158 141.764 142.318 141.764H130.114V167H138.466V160.448H141.598L144.622 167ZM138.466 154.112V148.1H142.318C144.118 148.1 145.162 149.18 145.162 151.052C145.162 152.996 144.118 154.112 142.318 154.112H138.466ZM177.548 148.1V141.764H156.2V167H177.872V160.664H164.552V157.532H176.36V151.196H164.552V148.1H177.548ZM181.056 141.764V167H189.408V160.448H192.9C199.452 160.448 203.232 156.92 203.232 150.8C203.232 145.04 199.452 141.764 192.9 141.764H181.056ZM189.408 148.1H192.468C194.268 148.1 195.312 149.18 195.312 151.052C195.312 152.996 194.268 154.112 192.468 154.112H189.408V148.1ZM220.763 163.436L222.023 167H230.915L220.655 141.764H212.087L201.431 167H209.999L211.295 163.436H220.763ZM218.711 157.46H213.455L216.119 150.08L218.711 157.46ZM246.857 167H256.289L251.321 158.792C253.913 157.208 255.317 154.472 255.317 150.8C255.317 145.04 251.393 141.764 244.553 141.764H232.349V167H240.701V160.448H243.833L246.857 167ZM240.701 154.112V148.1H244.553C246.353 148.1 247.397 149.18 247.397 151.052C247.397 152.996 246.353 154.112 244.553 154.112H240.701ZM275.607 163.436L276.867 167H285.759L275.499 141.764H266.931L256.275 167H264.843L266.139 163.436H275.607ZM273.555 157.46H268.299L270.963 150.08L273.555 157.46ZM315.849 167V141.764H307.029L301.521 154.94L296.013 141.764H287.193V167H294.465V153.176L298.785 164.552H304.257L308.577 153.176V167H315.849ZM332.066 141.512C324.038 141.512 318.206 146.876 318.206 154.364C318.206 161.888 324.038 167.36 332.066 167.36C340.094 167.36 345.926 161.852 345.926 154.364C345.926 146.912 340.094 141.512 332.066 141.512ZM332.174 148.46C335.054 148.46 337.358 150.944 337.358 154.4C337.358 157.856 335.054 160.412 332.174 160.412C329.294 160.412 326.774 157.856 326.774 154.4C326.774 150.944 329.258 148.46 332.174 148.46ZM359.203 141.404C352.651 141.404 348.403 144.572 348.403 149.612C348.403 158.468 361.471 156.308 361.471 159.584C361.471 160.484 360.679 160.88 359.455 160.88C356.899 160.88 352.435 159.116 349.843 156.956L346.747 163.22C350.095 165.776 354.991 167.252 359.383 167.252C365.071 167.252 370.003 164.768 370.003 159.152C370.003 150.008 356.935 151.988 356.935 148.82C356.935 148.064 357.547 147.776 358.483 147.776C360.679 147.776 364.603 149.324 367.159 150.728L370.183 144.392C367.339 142.592 363.199 141.404 359.203 141.404ZM158.593 191.352V184.764H135.877V191.352H143.041V210H151.393V191.352H158.593ZM184.428 184.764H176.076V199.308C176.076 201.828 174.492 203.412 172.44 203.412C170.352 203.412 168.552 201.792 168.552 199.308V184.764H160.2V199.308C160.2 206.004 165.06 210.36 172.404 210.36C179.712 210.36 184.428 206.004 184.428 199.308V184.764ZM195.189 184.764V210H203.541V203.448H207.033C213.585 203.448 217.365 199.92 217.365 193.8C217.365 188.04 213.585 184.764 207.033 184.764H195.189ZM203.541 191.1H206.601C208.401 191.1 209.445 192.18 209.445 194.052C209.445 195.996 208.401 197.112 206.601 197.112H203.541V191.1ZM241.216 191.1V184.764H219.868V210H241.54V203.664H228.22V200.532H240.028V194.196H228.22V191.1H241.216ZM244.724 184.764V210H255.668C264.2 210 269.708 205.032 269.708 197.364C269.708 189.696 264.308 184.764 255.992 184.764H244.724ZM253.076 191.244H255.812C259.052 191.244 261.176 193.692 261.176 197.436C261.176 201.144 259.232 203.52 256.208 203.52H253.076V191.244ZM280.392 210V184.764H272.04V210H280.392ZM283.993 184.764V210H294.937C303.469 210 308.977 205.032 308.977 197.364C308.977 189.696 303.577 184.764 295.261 184.764H283.993ZM292.345 191.244H295.081C298.321 191.244 300.445 193.692 300.445 197.436C300.445 201.144 298.501 203.52 295.477 203.52H292.345V191.244ZM323.91 184.512C315.882 184.512 310.05 189.876 310.05 197.364C310.05 204.888 315.882 210.36 323.91 210.36C331.938 210.36 337.77 204.852 337.77 197.364C337.77 189.912 331.938 184.512 323.91 184.512ZM324.018 191.46C326.898 191.46 329.202 193.944 329.202 197.4C329.202 200.856 326.898 203.412 324.018 203.412C321.138 203.412 318.618 200.856 318.618 197.4C318.618 193.944 321.102 191.46 324.018 191.46Z" fill="white"/>
<path d="M131.136 52.1379C128.545 47.3337 123.866 43.375 119.68 39.9833C114.735 35.9766 109.479 31.9763 103.772 29.0937C98.0641 26.2112 91.966 26.65 85.8519 25.4457C78.5591 24.0109 77.3869 16.7405 76.4132 10.6488C76.2595 9.68797 75.3499 9.47978 74.6357 9.80327C74.3413 9.69319 74.0186 9.68445 73.7187 9.77843C73.4187 9.87241 73.1587 10.0637 72.9798 10.3221C71.6987 12.1349 71.4585 14.2552 71.1926 16.3434C71.1232 15.8562 71.028 15.3729 70.9076 14.8957C70.1645 12.1413 70.171 9.3837 69.0724 6.70616C68.6849 5.77094 67.0899 5.15601 66.555 6.38588C65.2963 9.2684 64.1785 12.1509 63.5956 15.264C63.1824 17.442 62.939 20.2668 61.5202 22.0604C61.4369 22.1661 60.6682 17.98 60.6682 17.3843C60.6682 16.1961 60.7803 15.0014 60.8444 13.8132C61.0881 9.80353 60.7647 5.77955 59.8836 1.86032C59.8401 1.66659 59.7561 1.48428 59.6369 1.32545C59.7138 -0.0997943 57.395 -0.596223 56.921 0.95073C55.8288 4.50904 54.3139 7.65099 52.5427 10.9211C50.5666 14.5722 49.5065 18.5885 47.2709 22.1565C45.2724 25.3433 42.0984 27.076 38.8059 28.671C35.2016 30.4075 31.7571 32.4577 28.5121 34.7979C22.7471 38.9327 19.0254 44.5697 14.0995 49.4924C8.84052 54.7546 6.51208 61.4805 4.00429 68.28C3.93571 68.4412 3.90496 68.6159 3.9144 68.7908C3.92384 68.9656 3.97321 69.136 4.05873 69.2889C2.45733 77.6834 0.433164 86.1068 0.0360162 94.6487C-0.361131 103.078 2.56303 110.454 6.9861 117.507C15.7361 131.458 28.3071 143.427 43.8439 149.461C51.4153 152.398 59.5537 153.305 67.6055 153.804C76.7783 154.378 86.3739 153.804 95.0343 150.554C108.989 145.333 119.142 133.88 128.023 122.43C128.209 122.395 128.384 122.319 128.537 122.208C128.69 122.098 128.816 121.954 128.907 121.789C141.699 100.651 142.916 74.0034 131.149 52.1315" fill="#F5DF66"/>
<path d="M38.0436 84.5695C37.8418 84.5756 37.6411 84.6025 37.4447 84.6495C37.0056 84.5476 36.5497 84.5409 36.1077 84.6299C35.6658 84.7188 35.248 84.9013 34.8825 85.1652C33.7743 85.9883 33.5629 87.3271 33.7583 88.6082C33.8185 88.9867 33.9578 89.3482 34.1669 89.6693C34.376 89.9905 34.6504 90.264 34.9721 90.4722C35.2155 90.7772 35.5104 91.0374 35.8433 91.2409C37.0219 91.9679 38.8667 91.843 39.9717 91.0295C42.5019 89.1623 41.429 84.531 38.05 84.5695" fill="#1C1B1A"/>
<path d="M109.204 84.941C109.14 84.8516 109.072 84.766 108.999 84.6848C108.491 83.9786 107.811 83.4147 107.023 83.0473C106.235 82.68 105.366 82.5214 104.499 82.5869C102.577 82.8848 102.18 85.1171 102.577 86.6961C102.667 87.5901 103 88.4426 103.538 89.1623C104.479 90.3729 105.889 90.6484 107.042 90.0302C109.37 89.6843 110.52 86.9107 109.204 84.941" fill="#1C1B1A"/>
<path d="M90.118 93.1433C90.1409 92.9069 90.1023 92.6686 90.0059 92.4516C88.9041 89.8893 86.0504 89.3384 83.5426 88.8132C79.3053 87.9196 76.2435 87.6409 71.9293 88.637C68.0667 89.5338 61.3857 90.879 61.2832 95.8657C61.2646 96.1885 61.3732 96.5058 61.5857 96.7495C61.7983 96.9931 62.0978 97.1438 62.4202 97.1693C64.0824 99.091 66.7568 99.8308 68.8482 101.31C71.0901 102.912 73.22 103.895 74.8951 106.224C76.0225 107.793 76.9993 109.426 78.2068 110.935C79.0267 111.963 80.4744 111.012 80.5576 109.974C80.8779 106.131 82.9725 102.499 85.7462 99.8852C87.3091 98.412 88.8016 96.9803 89.6952 95.081C89.8565 94.9616 89.9862 94.8047 90.0733 94.6239C90.1603 94.4431 90.202 94.2439 90.1949 94.0433V93.5885C90.1949 93.4358 90.1689 93.2841 90.118 93.1401" fill="#DA403F"/>
<path d="M180.927 27.028C175.207 27.028 169.903 29.16 164.703 32.748L169.175 41.432C172.711 38.572 176.299 36.752 179.055 36.752C180.615 36.752 181.447 37.428 181.447 38.676C181.447 39.924 180.251 41.744 178.795 43.304L166.159 56.46V64H194.603V54.744H181.499L187.011 49.232C191.067 45.176 194.083 41.12 194.083 36.908C194.083 30.98 188.415 27.028 180.927 27.028Z" fill="#FFE864"/>
</svg>
