<svg xmlns="http://www.w3.org/2000/svg" xmlns:xlink="http://www.w3.org/1999/xlink" viewBox="0 0 735.46 507.09"><defs><style>.cls-1{fill:none;}.cls-2{clip-path:url(#clip-path);}.cls-3{fill:#da403f;}.cls-4{fill:#fffffd;}.cls-5{fill:#1c1b1a;}</style><clipPath id="clip-path" transform="translate(-172.27 -286.45)"><rect class="cls-1" width="1080" height="1080"/></clipPath></defs><title>Recurso 4</title><g id="Capa_2" data-name="Capa 2"><g id="Capa_1-2" data-name="Capa 1"><g class="cls-2"><g class="cls-2"><path class="cls-3" d="M372.46,383.31A133.33,133.33,0,0,1,350,377.8a104.43,104.43,0,0,1-34.09-19c-13.34-11.23-14.57-25.9-13.39-41.92.37-5.12-6.93-6.55-9.36-2.51-17.7,29.33-29.7,60-11.53,92.08,8.06,14.24,22.87,25.7,39.44,32,5.22,1.66,11.45,3.58,13.09.14,7.72-16.19,38.26-55.26,38.26-55.26m385.78,6a61.77,61.77,0,0,0,11.21-12.21c20.36-29.17,13.54-67.49-14.11-89.29a5.41,5.41,0,0,0-3.45-1.21c-2.83-.55-6.08,1-6,4.66.59,25.45-12.55,42.56-34.1,55.06a78.36,78.36,0,0,1-15.88,6.81s46.75,45.75,47.52,46.1c1.11.5,12.26-7.25,14.8-9.92M541.59,791.53c7.4.57,14.85.86,22.14.86" transform="translate(-172.27 -286.45)"/><path class="cls-4" d="M905.57,441.75c-15.1-12.23-29.87-24.91-45.29-36.75-11.46-8.8-24.42-19.75-38.79-23.55s-27.31-2.64-41.54,1.63c-7.3,2.18-33.46,12.54-35.66,16.11-4.67-8.36-39.95-41.79-48.43-46C637.3,308.89,559.93,293.09,488,311.48c-45.22,11.57-84.65,37.85-115.61,71.95-12.82,12.73-30.17,38.3-41.15,57.23-.65-.39-6.2-1.11-10.2-2.11-8.05-1.84-16.12-3.72-24.23-5.74-14.43-3.57-27.37-4.1-41.57.39s-26.59,16-37.61,25.39c-14.8,12.56-28.94,26-43.42,38.89-2.77,2.48-2.71,6.86.95,8.56,13.33,6.17,27,7.79,41.15,11.14,15.63,3.69,28.65,7.47,44.5,3.07,12-3.33,21.81-15.28,30.05-23.81a319.09,319.09,0,0,1,26.84-24.83c-12.82,32.59-19.73,67.89-18,102.79a132.84,132.84,0,0,0,8,39c-.27,15.1,3.46,30.46,11.22,45.24C342.6,703.78,403,781,541.53,791.65c7.4.57,14.86.86,22.14.86,118.4,0,194.19-72.68,225.64-140.7,9.54-20.63,14.12-40.72,13.83-59.34,0-.14.06-.28.08-.42,9.66-58.54-10.79-120.48-44.56-170.84A314.23,314.23,0,0,1,789,446.33c8.64,8.13,19,19.59,31.18,22.33,16,3.64,28.87-.76,44.29-5.2,14-4,27.55-6.31,40.56-13.12,3.57-1.87,3.42-6.25.53-8.59" transform="translate(-172.27 -286.45)"/><path class="cls-3" d="M719.79,509.08c-36.71-.95-63.91,12.3-90.23,25.1-19.66,9.57-38.24,18.61-58.26,19.8-27.33,1.61-45.73-7.3-65.27-16.78s-39.74-19.28-71.56-19.28a180.44,180.44,0,0,0-23.92,1.68c-43.12,5.78-77.05,27-93.1,58.2-12.78,24.84-12.34,53.05,1.25,79.43,23.63,45.91,84,124.55,223.08,135.44,7.44.58,14.92.88,22.22.88,118.21,0,193.84-73.93,225.2-143.13,17.62-38.87,18-75.45,1-103-14.52-23.56-40.18-37.53-70.39-38.33" transform="translate(-172.27 -286.45)"/><path class="cls-5" d="M423.16,593.64a9.78,9.78,0,0,0-14.44,6.73c-1.05,5.8,2.44,12.72,9.27,12a6.5,6.5,0,0,0,1.27-.26,9.26,9.26,0,0,0,4.29-.85c3.31-1.55,4.73-5.07,4.93-8.5.23-3.73-2.19-7.3-5.32-9.14" transform="translate(-172.27 -286.45)"/><path class="cls-5" d="M742.06,592.72a12.05,12.05,0,0,0-9.19-9.62,6.73,6.73,0,0,0-.85-.74,7.83,7.83,0,0,0-9.74,0c-2.64,2.05-3.29,5.65-3.63,8.74-.72,6.69,5.28,13,11.74,13.9,7.66,1.11,13-4.94,11.67-12.32" transform="translate(-172.27 -286.45)"/><path class="cls-5" d="M573.81,697.77c-43.69,9.46-98.95,9-126.63-30.91-3.64-5.26-12.35-.28-8.67,5,30.58,44.11,89.2,46,138,35.49,6.33-1.37,3.64-11-2.67-9.6" transform="translate(-172.27 -286.45)"/><path class="cls-5" d="M417.14,448.2c-14.7.15-32.55,9.37-38.65,23.07-2.59,5.82,6.06,10.89,8.67,5,4.58-10.27,16-15.43,26.31-17.63,15-3.21,30.22,7.78,38.71,19.29,3.78,5.13,12.5.17,8.67-5-10.39-14.09-25.72-24.93-43.71-24.73" transform="translate(-172.27 -286.45)"/><path class="cls-5" d="M665.48,432.44a36,36,0,0,0-21.4,5.82c-3.5,2.22-6.18,5.5-8.72,8.69-.75.93-9.21,14.15-9.42,15.66,0,.24-.07.48-.11.72-.84,5.85,7.47,8.58,9.37,3.84a16.32,16.32,0,0,0,2.24-4.31c3.32-7.29,7.93-13.6,14.77-17.95,11.79-7.47,34.81-1,41.12,10.64,3.07,5.66,11.74.62,8.67-5-7.17-13.21-22.3-17.42-36.52-18.08" transform="translate(-172.27 -286.45)"/></g></g></g></g></svg>