<svg width="123" height="78" viewBox="0 0 123 78" fill="none" xmlns="http://www.w3.org/2000/svg">
<path d="M29.0799 48.5934H19.192L0.902771 0.381836H10.8549L24.4276 37.219L37.8701 0.381836H47.4349L29.0799 48.5934Z" fill="#E83F40"/>
<path d="M60.037 0.381836H50.7952V48.5934H60.037V0.381836Z" fill="#E83F40"/>
<path d="M91.5744 48.5934H81.6866L63.3973 0.381836H73.3495L86.9206 37.219L100.363 0.381836H109.928L91.5744 48.5934Z" fill="#E83F40"/>
<path d="M122.53 0.381836H113.288V48.5934H122.53V0.381836Z" fill="#E83F40"/>
<path d="M33.7842 76.9466H30.003L21.4516 54.5623H25.2328L31.984 72.5055L38.6754 54.5623H42.3357L33.7842 76.9466Z" fill="#F6A02A"/>
<path d="M43.8926 54.5623H55.6251V57.6531H47.4335V63.7444H54.9653V66.7143H47.4335V73.8557H55.8655V76.9466H43.8926V54.5623Z" fill="#F6A02A"/>
<path d="M69.9662 77.666C63.0651 77.666 57.6642 72.3264 57.6642 65.7253C57.6642 59.1548 63.0651 53.8442 69.9662 53.8442C73.2071 53.8442 76.2688 55.0689 78.3385 56.9641L75.9978 59.4549C74.361 57.9277 72.2048 57.08 69.9662 57.0835C65.1057 57.0835 61.2403 61.0745 61.2403 65.6962C61.2492 68.0077 62.1713 70.222 63.8058 71.8566C65.4404 73.4911 67.6547 74.4132 69.9662 74.4221C73.8669 74.4221 77.0786 71.3604 77.6481 67.5501H70.5969L71.9165 64.4883H81.3084V65.7498C81.3084 72.3509 76.2979 77.6614 69.9662 77.6614" fill="#F6A02A"/>
<path d="M96.7579 72.6862H86.1061L84.4558 76.9466H80.7955L89.7067 54.5623H93.2476L102.159 76.9466H98.379L96.7579 72.6862ZM95.648 69.8051L91.4473 58.8226L87.2175 69.8051H95.648Z" fill="#F6A02A"/>
<path d="M107.257 60.3826V76.9466H103.716V54.5623H107.318L118.989 70.9149V54.5623H122.53V76.9466H119.11L107.257 60.3826Z" fill="#F6A02A"/>
</svg>
