<svg width="209" height="210" viewBox="0 0 209 210" fill="none" xmlns="http://www.w3.org/2000/svg">
<ellipse cx="104.5" cy="105" rx="104.5" ry="105" fill="black"/>
<path d="M142.238 67.0046C137.327 62.0471 131.479 58.1168 125.034 55.4427C118.59 52.7685 111.678 51.4041 104.701 51.4288C75.4651 51.4288 51.6388 75.2546 51.6121 104.505C51.6121 113.873 54.0623 122.987 58.6883 131.056L51.1836 158.571L79.328 151.192C87.1139 155.43 95.8365 157.652 104.701 157.654H104.728C133.97 157.654 157.789 133.828 157.816 104.551C157.823 97.574 156.449 90.6643 153.774 84.2203C151.1 77.7763 147.176 71.9254 142.231 67.0046H142.238ZM104.701 148.667C96.7943 148.67 89.0332 146.542 82.2335 142.507L80.6267 141.542L63.9302 145.922L68.3889 129.629L67.3445 127.949C62.9247 120.92 60.5872 112.781 60.603 104.478C60.603 80.1966 80.3991 60.3886 104.728 60.3886C110.523 60.3782 116.264 61.5154 121.618 63.7347C126.973 65.954 131.835 69.2115 135.925 73.3194C140.029 77.4112 143.282 82.2753 145.498 87.6311C147.713 92.987 148.846 98.7285 148.832 104.525C148.805 128.893 129.009 148.667 104.701 148.667V148.667ZM128.902 115.627C127.583 114.964 121.069 111.757 119.844 111.301C118.626 110.866 117.735 110.638 116.865 111.964C115.975 113.284 113.431 116.29 112.667 117.154C111.904 118.045 111.114 118.145 109.789 117.489C108.47 116.819 104.192 115.426 99.1308 110.893C95.1809 107.377 92.5365 103.025 91.7466 101.705C90.9834 100.38 91.6729 99.6697 92.3357 99.0068C92.9181 98.4175 93.6546 97.4532 94.3173 96.6898C94.9868 95.9264 95.2077 95.3639 95.6429 94.48C96.078 93.5827 95.8705 92.8193 95.5424 92.1563C95.2077 91.4934 92.5633 84.951 91.4453 82.3126C90.3742 79.7077 89.2829 80.0693 88.4662 80.0358C87.703 79.989 86.8126 79.989 85.9222 79.989C85.2498 80.0057 84.5881 80.1612 83.9787 80.4459C83.3693 80.7305 82.8252 81.1381 82.3807 81.643C81.1623 82.9689 77.7547 86.1765 77.7547 92.7188C77.7547 99.2612 82.5079 105.549 83.1774 106.44C83.8335 107.33 92.5098 120.717 105.825 126.475C108.972 127.848 111.449 128.658 113.384 129.275C116.564 130.292 119.436 130.138 121.725 129.81C124.269 129.422 129.565 126.596 130.683 123.496C131.781 120.388 131.781 117.737 131.446 117.181C131.118 116.618 130.228 116.29 128.902 115.627V115.627Z" fill="#FEF608"/>
</svg>
