<svg width="49" height="50" viewBox="0 0 49 50" fill="none" xmlns="http://www.w3.org/2000/svg">
<circle cx="24.5" cy="25" r="24.5" fill="#F6A02A"/>
<path d="M33.3476 16.1344C32.1963 14.9777 30.8252 14.0606 29.3143 13.4366C27.8034 12.8127 26.1828 12.4943 24.5471 12.5001C17.6928 12.5001 12.1067 18.0594 12.1005 24.8844C12.1005 27.0703 12.6749 29.1969 13.7595 31.0797L12 37.5L18.5984 35.7781C20.4238 36.7671 22.4689 37.2854 24.5471 37.2859H24.5534C31.4092 37.2859 36.9937 31.7266 37 24.8954C37.0016 23.2673 36.6795 21.655 36.0524 20.1514C35.4253 18.6478 34.5055 17.2826 33.3461 16.1344H33.3476ZM24.5471 35.1891C22.6934 35.1897 20.8738 34.6931 19.2796 33.7516L18.9029 33.5266L14.9884 34.5484L16.0338 30.7469L15.7889 30.3547C14.7527 28.7146 14.2047 26.8157 14.2084 24.8782C14.2084 19.2126 18.8496 14.5907 24.5534 14.5907C25.9122 14.5883 27.2581 14.8536 28.5134 15.3715C29.7687 15.8893 30.9087 16.6494 31.8675 17.6079C32.8297 18.5626 33.5925 19.6976 34.1119 20.9473C34.6313 22.197 34.897 23.5367 34.8936 24.8891C34.8874 30.575 30.2462 35.1891 24.5471 35.1891ZM30.2211 27.4797C29.9118 27.325 28.3847 26.5766 28.0974 26.4703C27.8118 26.3688 27.603 26.3157 27.399 26.625C27.1902 26.9328 26.5938 27.6344 26.4149 27.836C26.2359 28.0438 26.0507 28.0672 25.74 27.9141C25.4307 27.7578 24.4278 27.4328 23.2412 26.375C22.3152 25.5547 21.6952 24.5391 21.51 24.2313C21.331 23.9219 21.4927 23.7563 21.6481 23.6016C21.7847 23.4641 21.9573 23.2391 22.1127 23.061C22.2696 22.8829 22.3214 22.7516 22.4235 22.5454C22.5255 22.336 22.4768 22.1579 22.3999 22.0032C22.3214 21.8485 21.7015 20.3219 21.4393 19.7063C21.1882 19.0985 20.9324 19.1829 20.7409 19.1751C20.562 19.1641 20.3532 19.1641 20.1445 19.1641C19.9868 19.168 19.8317 19.2043 19.6888 19.2707C19.5459 19.3371 19.4184 19.4322 19.3142 19.5501C19.0285 19.8594 18.2296 20.6079 18.2296 22.1344C18.2296 23.661 19.344 25.1282 19.5009 25.336C19.6548 25.5438 21.6889 28.6672 24.8108 30.011C25.5485 30.3313 26.1292 30.5203 26.5828 30.6641C27.3283 30.9016 28.0017 30.8656 28.5385 30.7891C29.1349 30.6985 30.3764 30.0391 30.6386 29.3157C30.896 28.5907 30.896 27.9719 30.8175 27.8422C30.7406 27.711 30.5318 27.6344 30.2211 27.4797Z" fill="#1D1D1B"/>
</svg>
