<svg width="132" height="132" viewBox="0 0 132 132" fill="none" xmlns="http://www.w3.org/2000/svg">
<circle cx="66" cy="66" r="66" fill="#1D1D1B"/>
<path d="M89.8343 42.1173C86.7328 39.0011 83.0393 36.5306 78.9691 34.8497C74.8988 33.1689 70.5333 32.3112 66.1267 32.3267C47.6621 32.3267 32.6139 47.303 32.597 65.6886C32.597 71.5773 34.1445 77.3059 37.0662 82.378L32.3264 99.6735L50.1018 95.035C55.0192 97.699 60.5283 99.0954 66.1267 99.0968H66.1436C84.6125 99.0968 99.6564 84.1206 99.6733 65.7181C99.6776 61.3323 98.81 56.9891 97.1206 52.9385C95.4313 48.888 92.9535 45.2103 89.8301 42.1173H89.8343ZM66.1267 93.4481C61.1332 93.4498 56.2315 92.1121 51.9369 89.5757L50.9221 88.9696L40.3769 91.7224L43.1929 81.4814L42.5333 80.4249C39.7419 76.0067 38.2656 70.8913 38.2755 65.6718C38.2755 50.4093 50.7783 37.9586 66.1436 37.9586C69.8042 37.9521 73.4298 38.6669 76.8115 40.0619C80.1932 41.4569 83.2641 43.5044 85.8471 46.0865C88.4391 48.6585 90.494 51.716 91.8931 55.0825C93.2923 58.449 94.008 62.058 93.9991 65.7013C93.9822 81.0184 81.4794 93.4481 66.1267 93.4481ZM81.4117 72.6801C80.5787 72.2634 76.4647 70.2472 75.6909 69.9609C74.9214 69.6873 74.359 69.5442 73.8094 70.3777C73.247 71.2069 71.6403 73.0968 71.1583 73.6398C70.6763 74.1996 70.1773 74.2627 69.3402 73.8502C68.5072 73.4293 65.8054 72.5538 62.6089 69.7042C60.1142 67.4944 58.4441 64.7584 57.9451 63.9292C57.4631 63.0958 57.8986 62.6496 58.3172 62.2329C58.6851 61.8625 59.1502 61.2564 59.5688 60.7765C59.9916 60.2967 60.1311 59.9431 60.406 59.3875C60.6808 58.8235 60.5497 58.3436 60.3425 57.9269C60.1311 57.5102 58.461 53.3979 57.7549 51.7394C57.0784 50.1021 56.3892 50.3294 55.8733 50.3083C55.3913 50.2789 54.8289 50.2789 54.2666 50.2789C53.8419 50.2894 53.424 50.3871 53.0391 50.5661C52.6542 50.745 52.3106 51.0011 52.0299 51.3185C51.2603 52.1519 49.1082 54.1681 49.1082 58.2805C49.1082 62.3929 52.1102 66.3453 52.533 66.9051C52.9474 67.4649 58.4272 75.879 66.8371 79.4989C68.8243 80.3618 70.3888 80.8711 71.6107 81.2584C73.6191 81.8982 75.433 81.8013 76.8791 81.5951C78.4858 81.351 81.8303 79.5747 82.5364 77.6258C83.2298 75.6728 83.2298 74.006 83.0184 73.6566C82.8112 73.303 82.2489 73.0968 81.4117 72.6801Z" fill="#F6A02A"/>
</svg>
